<?xml version="1.0" encoding="UTF-8" standalone="no"?> <svg xmlns:dc="http://purl.org/dc/elements/1.1/" xmlns:cc="http://creativecommons.org/ns#" xmlns:rdf="http://www.w3.org/1999/02/22-rdf-syntax-ns#" xmlns:svg="http://www.w3.org/2000/svg" xmlns="http://www.w3.org/2000/svg" xmlns:sodipodi="http://sodipodi.sourceforge.net/DTD/sodipodi-0.dtd" xmlns:inkscape="http://www.inkscape.org/namespaces/inkscape" width="350.34738" height="353.77548" id="svg2" version="1.1" inkscape:version="0.48.4 r9939" sodipodi:docname="edumaps-logo-white-labeled.svg"><defs id="defs4"></defs><metadata id="metadata7"></metadata><g inkscape:label="Layer 1" inkscape:groupmode="layer" id="layer1" transform="translate(-38.219167,-37.444475)"><g transform="translate(-151.5153,-113.58589)" id="layer1-2" inkscape:label="Layer 1"><g style="font-size:18.82649231px;font-style:normal;font-variant:normal;font-weight:normal;font-stretch:normal;line-height:125%;letter-spacing:0px;word-spacing:0px;fill:#000000;fill-opacity:1;stroke:none;font-family:sans;-inkscape-font-specification:Raleway" id="text3231"><path d="m 221.06224,479.49189 c -2.96158,0 -5.67263,-0.53968 -8.13318,-1.61905 -2.46057,-1.07936 -4.56912,-2.54788 -6.32567,-4.40556 -1.75656,-1.85767 -3.12435,-4.02904 -4.10336,-6.51412 -0.97902,-2.48506 -1.46852,-5.10802 -1.46852,-7.86889 0,-2.76236 0.4895,-5.37345 1.46852,-7.83326 0.97901,-2.45977 2.35944,-4.6185 4.14128,-6.47621 1.78183,-1.85764 3.90264,-3.32616 6.36244,-4.40556 2.45978,-1.07933 5.17122,-1.61901 8.13433,-1.61905 2.96153,4e-5 5.65994,0.55236 8.09525,1.65697 2.43525,1.10468 4.50626,2.5732 6.21306,4.40556 1.70673,1.83243 3.02434,3.96627 3.95283,6.40152 0.92841,2.4353 1.39264,4.95752 1.39268,7.56667 -4e-5,0.55311 -0.0127,1.05564 -0.0379,1.50759 -0.0253,0.45199 -0.0625,0.80361 -0.11146,1.05486 l -32.60853,0 c 0.15014,1.95804 0.60172,3.74026 1.35476,5.34666 0.75302,1.60642 1.73203,2.98684 2.93705,4.14127 1.20498,1.15445 2.57315,2.05801 4.1045,2.71068 1.53132,0.65268 3.15037,0.97902 4.85716,0.97901 1.20574,10e-6 2.38584,-0.16316 3.5403,-0.4895 1.15442,-0.32634 2.23378,-0.76567 3.23811,-1.318 1.00426,-0.55231 1.89556,-1.22989 2.6739,-2.03272 0.77828,-0.80281 1.36814,-1.70675 1.76958,-2.71182 l 5.72241,1.58113 c -0.65272,1.45704 -1.54402,2.78767 -2.67391,3.9919 -1.12996,1.20424 -2.43531,2.24568 -3.91605,3.12434 -1.48081,0.87866 -3.12476,1.56926 -4.93185,2.07179 -1.80714,0.50253 -3.68971,0.75379 -5.64771,0.75379 z m 13.47868,-23.0436 c -0.15018,-1.85842 -0.61441,-3.57821 -1.39268,-5.15936 -0.77834,-1.58111 -1.75736,-2.92399 -2.93705,-4.02867 -1.17975,-1.10462 -2.54753,-1.97064 -4.10335,-2.59807 -1.55588,-0.62736 -3.21247,-0.94106 -4.96976,-0.94109 -1.75735,3e-5 -3.41432,0.31373 -4.97092,0.94109 -1.55663,0.62743 -2.9248,1.50609 -4.1045,2.63599 -1.17973,1.12995 -2.13347,2.47284 -2.86121,4.02866 -0.72775,1.55588 -1.1667,3.26303 -1.31684,5.12145 z" style="font-size:75.30596924px;font-family:Raleway;-inkscape-font-specification:Raleway" id="path3022"></path><path d="m 264.42384,479.49189 c -2.71184,0 -5.22219,-0.55232 -7.53106,-1.65697 -2.30889,-1.10464 -4.29181,-2.5858 -5.94877,-4.44348 -1.65698,-1.85767 -2.95007,-4.0164 -3.87929,-6.4762 -0.92922,-2.45978 -1.39383,-5.04559 -1.39383,-7.75743 0,-2.76083 0.43933,-5.38379 1.31799,-7.86888 0.87866,-2.48505 2.10894,-4.65642 3.69084,-6.51413 1.58189,-1.85764 3.46446,-3.32616 5.64772,-4.40556 2.18323,-1.07933 4.5802,-1.61901 7.19093,-1.61905 3.16377,4e-5 5.9882,0.82852 8.4733,2.48545 2.48504,1.65701 4.45532,3.66521 5.91085,6.02462 l 0,-23.49635 6.62789,0 0,46.84101 c -5e-5,1.55663 0.70242,2.36022 2.1074,2.41077 l 0,5.72241 c -0.70327,0.10112 -1.26824,0.17657 -1.69489,0.22637 -0.42673,0.0498 -0.84078,0.0747 -1.24215,0.0747 -1.30539,0 -2.44757,-0.43933 -3.42655,-1.318 -0.97905,-0.87866 -1.46856,-1.89482 -1.46852,-3.0485 l 0,-3.31394 c -1.55512,2.56015 -3.62576,4.55571 -6.21192,5.9867 -2.58621,1.43098 -5.30953,2.14647 -8.16994,2.14647 z m 1.58113,-5.7247 c 1.20421,0 2.44636,-0.22598 3.72646,-0.67796 1.28005,-0.45196 2.48504,-1.07936 3.615,-1.88219 1.1299,-0.80281 2.10891,-1.74391 2.93704,-2.82328 0.82807,-1.07936 1.36775,-2.22192 1.61905,-3.4277 l 0,-11.29544 c -0.452,-1.25476 -1.12957,-2.44712 -2.03271,-3.57708 -0.90321,-1.12989 -1.91976,-2.10891 -3.04966,-2.93704 -1.12995,-0.82807 -2.33495,-1.48036 -3.615,-1.95688 -1.28009,-0.47645 -2.54753,-0.71469 -3.80229,-0.71473 -1.95805,4e-5 -3.72802,0.41409 -5.30989,1.24216 -1.58192,0.82813 -2.93744,1.93239 -4.06659,3.31279 -1.12917,1.38045 -1.99519,2.96196 -2.59807,4.74454 -0.60289,1.78263 -0.90433,3.60238 -0.90432,5.45927 -1e-5,1.95805 0.35161,3.82836 1.05485,5.61095 0.70323,1.78261 1.65734,3.32659 2.86236,4.63193 1.20498,1.30536 2.62333,2.34681 4.25503,3.12434 1.63167,0.77755 3.40125,1.16632 5.30874,1.16632 z" style="font-size:75.30596924px;font-family:Raleway;-inkscape-font-specification:Raleway" id="path3024"></path><path d="m 307.7165,479.49189 c -4.11678,0 -7.22924,-1.3808 -9.33741,-4.14242 -2.10818,-2.76161 -3.16227,-6.87876 -3.16226,-12.35144 l 0,-23.56989 6.62558,0 0,22.28982 c -10e-6,8.03283 2.78688,12.04923 8.36069,12.04923 2.71027,0 5.25778,-0.86602 7.64252,-2.59807 2.38469,-1.73203 4.15465,-4.10411 5.30989,-7.11624 l 0,-24.62474 6.62558,0 0,31.17678 c -4e-5,1.55663 0.7032,2.36022 2.10971,2.41077 l 0,5.72241 c -0.75384,0.10112 -1.34408,0.16393 -1.77073,0.18845 -0.42673,0.0245 -0.84078,0.0368 -1.24215,0.0368 -1.30539,0 -2.3974,-0.38916 -3.27602,-1.16747 -0.8787,-0.7783 -1.34331,-1.74429 -1.39384,-2.89797 l -0.14938,-4.59401 c -1.75735,2.96156 -4.06699,5.23328 -6.92894,6.81518 -2.86199,1.58189 -5.99973,2.37284 -9.41324,2.37284 z" style="font-size:75.30596924px;font-family:Raleway;-inkscape-font-specification:Raleway" id="path3026"></path><path d="m 400.15982,478.7381 -6.62789,0 0,-21.98876 c -5e-5,-4.11673 -0.66499,-7.15413 -1.9948,-9.11218 -1.32992,-1.958 -3.3002,-2.93701 -5.91085,-2.93705 -2.71187,4e-5 -5.13451,0.96641 -7.26792,2.89913 -2.1335,1.93277 -3.65219,4.43048 -4.55609,7.49313 l 0,23.64573 -6.62559,0 0,-21.98876 c -3e-5,-4.21785 -0.6527,-7.28052 -1.95803,-9.18802 -1.30538,-1.90744 -3.2634,-2.86117 -5.87408,-2.86121 -2.66129,4e-5 -5.07128,0.94113 -7.23,2.82329 -2.15875,1.88222 -3.69008,4.37993 -4.59401,7.49313 l 0,23.72157 -6.62559,0 0,-39.30996 6.02347,0 0,8.43423 c 1.60716,-2.91096 3.69082,-5.1574 6.25098,-6.73934 2.56013,-1.58185 5.44661,-2.3728 8.65945,-2.37284 3.31392,4e-5 5.93726,0.89134 7.87004,2.6739 1.93271,1.78264 3.12507,4.07964 3.57708,6.89102 3.5146,-6.37658 8.51002,-9.56488 14.98627,-9.56492 2.25827,4e-5 4.1531,0.41447 5.68449,1.2433 1.53128,0.82891 2.74892,1.98373 3.65292,3.46447 0.90388,1.48081 1.55655,3.22511 1.95803,5.2329 0.40135,2.00785 0.60205,4.19148 0.60212,6.55089 z" style="font-size:75.30596924px;font-family:Raleway;-inkscape-font-specification:Raleway" id="path3028"></path><path d="m 420.55364,479.49189 c -1.85692,0 -3.58858,-0.31408 -5.19498,-0.94224 -1.60642,-0.62816 -2.99948,-1.49418 -4.1792,-2.59807 -1.17972,-1.10387 -2.10856,-2.39658 -2.78651,-3.87813 -0.67796,-1.48154 -1.01694,-3.10097 -1.01693,-4.85831 -10e-6,-1.80633 0.40179,-3.44989 1.20538,-4.93069 0.80358,-1.48076 1.94576,-2.74857 3.42655,-3.80345 1.48077,-1.05483 3.23771,-1.88331 5.27082,-2.48545 2.03309,-0.6021 4.25463,-0.90315 6.66465,-0.90318 1.90745,3e-5 3.8402,0.17584 5.79825,0.52743 1.958,0.35164 3.69004,0.82851 5.19613,1.4306 l 0,-3.16226 c -3e-5,-3.21433 -0.90359,-5.7377 -2.71068,-7.57013 -1.80714,-1.83236 -4.36766,-2.74855 -7.68158,-2.74859 -3.96664,4e-5 -8.13319,1.53137 -12.49967,4.59401 l -2.18555,-4.29295 c 5.07126,-3.41349 10.16703,-5.12025 15.28733,-5.12029 5.17083,4e-5 9.19988,1.38084 12.08715,4.14242 2.88722,2.76165 4.33084,6.65204 4.33088,11.67119 l 0,16.04112 c -4e-5,1.55663 0.70243,2.36022 2.10741,2.41077 l 0,5.72241 c -0.70328,0.10112 -1.2805,0.17657 -1.73166,0.22637 -0.45124,0.0498 -0.92811,0.0747 -1.4306,0.0747 -1.30539,0 -2.34722,-0.38916 -3.1255,-1.16747 -0.77834,-0.7783 -1.24256,-1.71978 -1.39268,-2.82443 l -0.15168,-2.78536 c -1.75735,2.35944 -3.9789,4.1543 -6.66465,5.38457 -2.6858,1.23028 -5.56002,1.84542 -8.62268,1.84542 z m 1.73281,-4.97091 c 2.35942,10e-6 4.55569,-0.43932 6.58881,-1.31799 2.03308,-0.87866 3.57744,-2.04573 4.63308,-3.50124 0.95294,-0.95449 1.42943,-1.9335 1.42946,-2.93704 l 0,-5.79825 c -3.21285,-1.25477 -6.5513,-1.88217 -10.01537,-1.88219 -3.31395,2e-5 -6.01237,0.70287 -8.09525,2.10856 -2.0829,1.40572 -3.12435,3.23773 -3.12434,5.49604 -10e-6,1.10466 0.21333,2.13384 0.64003,3.08757 0.42669,0.95374 1.0288,1.78223 1.80636,2.48546 0.77753,0.70324 1.69372,1.25556 2.74859,1.65697 1.05484,0.40141 2.18438,0.60212 3.38863,0.60211 z" style="font-size:75.30596924px;font-family:Raleway;-inkscape-font-specification:Raleway" id="path3030"></path><path d="m 473.39514,479.49189 c -3.2634,0 -6.13763,-0.8032 -8.62268,-2.40961 -2.48509,-1.60641 -4.45537,-3.63989 -5.91085,-6.10046 l 0,23.79741 -6.62559,0 0,-55.35109 5.87179,0 0,7.37938 c 1.55661,-2.40843 3.57745,-4.35344 6.06254,-5.83502 2.48505,-1.4815 5.23364,-2.22227 8.24578,-2.22231 2.71179,4e-5 5.19725,0.55236 7.45637,1.65697 2.25905,1.10468 4.21707,2.59848 5.87408,4.4814 1.65693,1.88299 2.94964,4.05436 3.87814,6.51412 0.92841,2.45982 1.39264,5.02035 1.39268,7.68159 -4e-5,2.81143 -0.42673,5.45967 -1.28007,7.94472 -0.85342,2.48509 -2.05842,4.64382 -3.615,6.47621 -1.55666,1.8324 -3.41433,3.28828 -5.57303,4.36764 -2.15876,1.07937 -4.54348,1.61905 -7.15416,1.61905 z m -2.03157,-5.7247 c 1.95801,0 3.72758,-0.41405 5.30874,-1.24216 1.5811,-0.82809 2.93625,-1.93235 4.06544,-3.31279 1.12913,-1.38041 1.99515,-2.94929 2.59807,-4.70662 0.60284,-1.75731 0.90428,-3.56442 0.90432,-5.42135 -4e-5,-1.95801 -0.35165,-3.82832 -1.05485,-5.61095 -0.70327,-1.78257 -1.65701,-3.33919 -2.86121,-4.66985 -1.20426,-1.3306 -2.62222,-2.38469 -4.25388,-3.16226 -1.63172,-0.77751 -3.40207,-1.16628 -5.31104,-1.16632 -1.20426,4e-5 -2.44641,0.23828 -3.72646,0.71473 -1.28009,0.47652 -2.48509,1.10391 -3.615,1.88219 -1.12994,0.77834 -2.10896,1.70718 -2.93704,2.78651 -0.82812,1.0794 -1.3678,2.2212 -1.61905,3.4254 l 0,11.2219 c 0.55307,1.30536 1.25631,2.52262 2.1097,3.65177 0.85337,1.12917 1.832,2.10818 2.9359,2.93704 1.10386,0.82888 2.28358,1.48155 3.53916,1.95803 1.25553,0.47649 2.56127,0.71473 3.9172,0.71473 z" style="font-size:75.30596924px;font-family:Raleway;-inkscape-font-specification:Raleway" id="path3032"></path><path d="m 512.93491,479.49189 c -3.16228,0 -6.27475,-0.4895 -9.33741,-1.46852 -3.06268,-0.97901 -5.69866,-2.39774 -7.90795,-4.25618 l 2.8612,-4.44234 c 2.31041,1.75733 4.62005,3.07532 6.92894,3.95398 2.30887,0.87867 4.74414,1.318 7.30584,1.31799 2.86041,1e-5 5.13176,-0.56496 6.81403,-1.69489 1.68222,-1.12992 2.52335,-2.72369 2.52338,-4.78131 -3e-5,-0.95449 -0.22602,-1.77072 -0.67796,-2.44869 -0.452,-0.67794 -1.12995,-1.2678 -2.03387,-1.76958 -0.90396,-0.50175 -2.05879,-0.95333 -3.46447,-1.35476 -1.40572,-0.40139 -3.03703,-0.82808 -4.89392,-1.28007 -2.35946,-0.6021 -4.39256,-1.17932 -6.09931,-1.73166 -1.70677,-0.55231 -3.11247,-1.20498 -4.21711,-1.95803 -1.10466,-0.75301 -1.90824,-1.65695 -2.41077,-2.71183 -0.50253,-1.05482 -0.7538,-2.35979 -0.75379,-3.9149 -10e-6,-1.958 0.38915,-3.70268 1.16746,-5.23405 0.7783,-1.53131 1.84541,-2.81176 3.20133,-3.84137 1.3559,-1.02954 2.95006,-1.80784 4.78246,-2.33493 1.83238,-0.527 3.80267,-0.79052 5.91086,-0.79056 2.96154,4e-5 5.72277,0.4769 8.2837,1.4306 2.56088,0.95377 4.72,2.20895 6.47735,3.76553 l -3.01288,3.99189 c -1.65776,-1.45546 -3.51582,-2.54747 -5.57417,-3.27602 -2.05841,-0.72848 -4.16696,-1.09273 -6.32568,-1.09277 -2.40848,4e-5 -4.45384,0.51482 -6.13607,1.54436 -1.68227,1.02961 -2.52339,2.67355 -2.52338,4.93184 -1e-5,0.90397 0.16316,1.65738 0.48951,2.26024 0.32633,0.60291 0.86601,1.12995 1.61905,1.58113 0.75301,0.45123 1.71939,0.85264 2.89912,1.20423 1.17971,0.35165 2.59843,0.72816 4.25619,1.12955 2.61068,0.60367 4.8824,1.21919 6.81518,1.84657 1.93272,0.62741 3.53913,1.3678 4.81923,2.22116 1.28004,0.8534 2.23377,1.85731 2.8612,3.01174 0.62737,1.15445 0.94106,2.56054 0.9411,4.21826 -4e-5,3.6648 -1.40574,6.57656 -4.21712,8.73529 -2.81143,2.15874 -6.60186,3.2381 -11.37127,3.2381 z" style="font-size:75.30596924px;font-family:Raleway;-inkscape-font-specification:Raleway" id="path3034"></path></g><rect y="202.71881" x="200.60173" height="83.113625" width="87.807251" id="rect3040-2-6" style="fill:#b3b3b3;fill-opacity:1;stroke:none"></rect><rect y="161.03036" x="199.73447" height="22.692537" width="88.561668" id="rect3040-02" style="fill:#b3b3b3;fill-opacity:1;stroke:none"></rect><rect y="161.15527" x="320.44876" height="22.692537" width="88.561668" id="rect3040-02-0" style="fill:#4d4d4d;fill-opacity:1;stroke:none"></rect><rect y="202.78557" x="320.62918" height="122.4451" width="88.561668" id="rect3040-02-0-6" style="fill:#4d4d4d;fill-opacity:1;stroke:none"></rect><rect y="161.29535" x="441.26843" height="22.692537" width="88.561668" id="rect3040-02-9" style="fill:#b3b3b3;fill-opacity:1;stroke:none"></rect><rect y="202.99466" x="441.52017" height="168.58539" width="88.561668" id="rect3040-02-9-3" style="fill:#b3b3b3;fill-opacity:1;stroke:none"></rect></g></g></svg> 