<?xml version="1.0" encoding="utf-8"?>
<!-- Generator: Adobe Illustrator 21.0.0, SVG Export Plug-In . SVG Version: 6.00 Build 0)  -->
<svg version="1.1" id="Ebene_1" xmlns="http://www.w3.org/2000/svg" xmlns:xlink="http://www.w3.org/1999/xlink" x="0px" y="0px"
	 viewBox="0 0 1000 1000" style="enable-background:new 0 0 1000 1000;" xml:space="preserve">
<style type="text/css">
	.st0{fill:#ED7203;}
	.st1{fill:#FFFFFF;}
</style>
<path class="st0" d="M288.5,38.7c-141.9,0-258,116-258,257.9v421.2c0,141.9,116.1,258.1,258,258.1h421.2
	c142,0,258.1-116.2,258.1-258.1V38.7H288.5z"/>
<path class="st1" d="M695.6,744.7c-55.2,0.4-96.4-32-116.8-64.4c-5.1-8.3-6.1-19.2,3-26c7.6-5.9,18.4-5.2,25.2,4
	c18.6,24.9,49.8,49.8,88.2,49.5c62-0.5,85.9-44.2,85.6-84.4c-0.6-71.9-86.8-72.9-86.8-72.9c-73.6-3.6-116.7-43.4-117.2-103.7
	c-0.4-51,38.5-104.9,115.5-105.5c33.6-0.3,66.3,13.7,84.8,32c7.6,7.4,7.7,19.1,0.2,25.8c-7.4,6.8-17.5,6.9-28.4-1.4
	c-15.3-12.5-32.9-20.6-56.3-20.5c-62.7,0.6-78.3,46.6-78.1,69.2c0.5,62.8,78.4,68,78.4,68c67,3.7,126.6,32.5,127.2,108.7
	C820.7,691.8,774.2,744.1,695.6,744.7z"/>
<path class="st1" d="M258,252.4c-0.1-14.9-11.5-26.1-26.4-26c-14.9,0.1-26.1,11.6-26,26.5c0.2,14.8,11.6,26,26.4,25.9
	C247,278.7,258.2,267.3,258,252.4z"/>
<path class="st1" d="M231.8,744.1c-10.6,0-19.2-7.8-19.2-17.4V358.8c0-9.6,8.6-17.4,19.2-17.4s19.2,7.8,19.2,17.4v367.9
	C251,736.3,242.4,744.1,231.8,744.1z"/>
<path class="st1" d="M528,713.9c-2.7-10.2-13.1-16.2-23.3-13.5c-40.4,10.7-71.1,8.6-91.5-6.2c-13-9.4-28.9-29.7-31.1-72.6l-0.1-1.3
	c-0.4-8.1-0.4-122.2-0.2-240.7h125.7c10.5,0,19-8.5,19-19s-8.5-19-19-19H381.8c0.1-36.7,0.1-72.7,0.2-105.1c0-10.5-8.5-19.1-19-19.1
	c0,0,0,0,0,0c-10.5,0-19,8.5-19,19c-0.1,37.9-0.9,370.9,0,386.2l0.1,1.1c3.1,57.9,27.1,87.1,46.7,101.4
	c18.5,13.4,41.3,20.2,68.2,20.2c16.9,0,35.4-2.7,55.5-8C524.6,734.5,530.6,724,528,713.9z"/>
</svg>
