<?xml version="1.0" encoding="UTF-8"?> <svg xmlns="http://www.w3.org/2000/svg" xmlns:xlink="http://www.w3.org/1999/xlink" version="1.1" id="Layer_1" x="0px" y="0px" viewBox="0 0 171 66.67" style="enable-background:new 0 0 171 66.67;" xml:space="preserve"> <style type="text/css"> .st0{fill:#EE7203;} .st1{fill:#FFFFFF;} .st2{fill:#5C2E47;} .st3{fill:#A6A4A5;} </style> <path class="st0" d="M15.89,2.64c-7.5,0-13.64,6.14-13.64,13.64v22.27c0,7.5,6.14,13.65,13.64,13.65h22.27 c7.51,0,13.65-6.14,13.65-13.65V2.64H15.89z"></path> <path class="st1" d="M37.42,39.98c-2.92,0.02-5.1-1.69-6.17-3.41c-0.27-0.44-0.32-1.01,0.16-1.38c0.4-0.31,0.98-0.27,1.33,0.21 c0.98,1.32,2.63,2.63,4.67,2.62c3.28-0.03,4.54-2.34,4.53-4.46c-0.03-3.8-4.59-3.85-4.59-3.85c-3.89-0.19-6.17-2.3-6.2-5.48 c-0.02-2.7,2.04-5.55,6.11-5.58c1.77-0.02,3.51,0.73,4.48,1.69c0.4,0.39,0.41,1.01,0.01,1.37c-0.39,0.36-0.93,0.37-1.5-0.07 c-0.81-0.66-1.74-1.09-2.98-1.08c-3.32,0.03-4.14,2.47-4.13,3.66c0.03,3.32,4.15,3.6,4.15,3.6c3.54,0.2,6.7,1.72,6.73,5.75 C44.04,37.18,41.58,39.94,37.42,39.98z"></path> <path class="st1" d="M14.28,13.94c-0.01-0.79-0.61-1.38-1.39-1.38c-0.79,0.01-1.38,0.61-1.38,1.4c0.01,0.78,0.61,1.38,1.4,1.37 C13.7,15.33,14.29,14.73,14.28,13.94z"></path> <path class="st1" d="M12.9,39.95c-0.56,0-1.02-0.41-1.02-0.92V19.57c0-0.51,0.45-0.92,1.02-0.92s1.02,0.41,1.02,0.92v19.46 C13.91,39.53,13.46,39.95,12.9,39.95z"></path> <path class="st1" d="M28.56,38.35c-0.14-0.54-0.69-0.86-1.23-0.72c-2.14,0.57-3.76,0.46-4.84-0.33c-0.69-0.5-1.53-1.57-1.65-3.84 l0-0.07c-0.02-0.43-0.02-6.46-0.01-12.73h6.65c0.56,0,1.01-0.45,1.01-1.01c0-0.56-0.45-1.01-1.01-1.01h-6.65 c0-1.94,0.01-3.84,0.01-5.56c0-0.56-0.45-1.01-1-1.01c0,0,0,0,0,0c-0.56,0-1.01,0.45-1.01,1c0,2.01-0.05,19.61,0,20.42l0,0.06 c0.16,3.06,1.43,4.6,2.47,5.36c0.98,0.71,2.18,1.07,3.61,1.07c0.89,0,1.87-0.14,2.93-0.42C28.38,39.44,28.7,38.88,28.56,38.35z"></path> <g> <path class="st2" d="M83.97,35.2c-0.4-0.31-0.97-0.27-1.33,0.21c-0.98,1.32-2.63,2.63-4.67,2.62c-3.28-0.03-4.52-2.28-4.52-4.46 c0-0.01,0-0.16,0-0.41l8.05-4.29l0.05-0.03c1.74-0.93,2.67-2.54,2.69-4.61c0.02-2.7-2.04-5.55-6.11-5.58c-0.11,0-0.55,0-0.67,0 c-4.07,0.04-6.14,2.88-6.12,5.58v9.5c0.03,3.56,2.51,6.22,6.62,6.25c2.92,0.02,5.1-1.69,6.17-3.4 C84.4,36.13,84.46,35.57,83.97,35.2z M73.43,24.2c-0.01-1.19,0.78-3.6,4.04-3.66c0.12,0,0.69,0,0.69,0 c3.25,0.06,4.08,2.48,4.08,3.67c0,1.41-0.69,2.13-1.37,2.56l-7.44,3.97C73.42,27.99,73.43,24.2,73.43,24.2z"></path> <path class="st2" d="M99.91,23.59c0-2.45-2.47-4.94-6.22-4.94c-0.47,0-1.16,0.08-1.77,0.24c-0.92,0.23-2.02,0.78-2.71,1.45 c-0.4,0.41-0.41,1.01-0.01,1.37c0.39,0.36,0.93,0.36,1.5-0.07c0.8-0.66,1.74-1.09,2.98-1.08c3.31,0.03,4.14,2.46,4.12,3.66 c0,0.01,0,0.25,0,0.25s-6.79,3.65-8.26,4.45c-1.47,0.8-2.58,2.35-2.6,4.64c-0.03,3.37,2.11,5.97,5.75,6.34 c0.48,0.04,1.16,0.04,1.44,0c3.49-0.36,5.79-2.96,5.79-5.92C99.92,31.01,99.91,25.8,99.91,23.59z M97.82,33.56L97.82,33.56 c0.01,2.09-1.23,4.3-4.41,4.38c-3.18-0.08-4.33-2.29-4.36-4.38c-0.02-2.04,1.39-2.73,2.29-3.21c0.9-0.49,6.48-3.48,6.48-3.48V33.56 z"></path> <path class="st2" d="M162.19,18.65c-0.11,0-0.55,0-0.66,0c-4.06,0.03-6.12,2.87-6.09,5.56v10.16c-0.02,2.69,2.03,5.53,6.09,5.56 c0.11,0,0.55,0,0.66,0c1.7-0.01,3.01-0.53,4-1.3v1.8l-0.01,0.38c0.02,2.03-1.38,2.71-2.51,3.32c-0.61,0.34-4.91,2.62-5.21,2.8 c-0.3,0.18-0.64,0.78-0.32,1.37c0.31,0.59,0.96,0.64,1.29,0.47c0.33-0.17,6.19-3.31,6.19-3.31l0.04-0.02 c1.53-0.89,2.65-2.32,2.67-4.61l0.02-1.16v-15.2C168.38,21.53,166.25,18.68,162.19,18.65z M166.29,34.39 c0.01,1.18-0.8,3.6-4.05,3.66c-0.01,0-0.6,0.01-0.71,0c-3.25-0.06-4.06-2.46-4.05-3.64h0V24.18h0c-0.01-1.18,0.81-3.58,4.05-3.64 c0.11,0,0.7,0,0.71,0c3.25,0.06,4.06,2.48,4.05,3.66V34.39z"></path> <path class="st2" d="M68.41,37.63c-2.14,0.57-3.76,0.46-4.84-0.33c-0.69-0.5-1.53-1.57-1.65-3.84l0-0.07 c-0.02-0.43-0.02-6.46-0.01-12.73h0.01v-2.01h-0.01c0-1.94,0.01-3.84,0.01-5.56c0-0.56-0.45-1.01-1-1.01c0,0,0,0,0,0 c-0.56,0-1.01,0.45-1.01,1c0,2.01-0.05,19.61,0,20.42l0,0.06c0.16,3.06,1.43,4.6,2.47,5.36c0.98,0.71,2.18,1.07,3.61,1.07 c0.89,0,1.87-0.14,2.93-0.42c0.54-0.14,0.86-0.69,0.72-1.23C69.5,37.81,68.95,37.49,68.41,37.63z"></path> <path class="st2" d="M104.59,39.92C104.58,39.92,104.58,39.92,104.59,39.92c-0.56,0-1.01-0.46-1.01-1.01l0.04-13.58 c-0.01-0.34-0.02-3.6,2.3-5.45c1.62-1.3,3.9-1.57,6.78-0.8c0.54,0.14,0.86,0.7,0.72,1.23c-0.14,0.54-0.69,0.86-1.23,0.72 c-2.23-0.59-3.91-0.45-5,0.43c-1.59,1.27-1.54,3.8-1.54,3.83c0,0.01,0,0.03,0,0.04l-0.04,13.6 C105.59,39.47,105.14,39.92,104.59,39.92z"></path> <path class="st2" d="M135.24,13.86c-0.01-0.79-0.61-1.38-1.39-1.38c-0.79,0.01-1.38,0.61-1.38,1.4c0.01,0.78,0.61,1.38,1.4,1.37 C134.65,15.25,135.24,14.65,135.24,13.86z"></path> <path class="st2" d="M133.85,39.95c-0.56,0-1.02-0.41-1.02-0.92V19.57c0-0.51,0.45-0.92,1.02-0.92c0.56,0,1.02,0.41,1.02,0.92 v19.46C134.87,39.53,134.41,39.95,133.85,39.95z"></path> <path class="st2" d="M127.9,39.94C127.89,39.94,127.89,39.94,127.9,39.94c-0.56,0-1.01-0.45-1.01-1.01c0-0.07,0.02-7.57,0-14.79 c-0.01-2.27-2.29-3.47-4.54-3.47c0,0,0,0-0.01,0c-2.14,0-4.3,1.05-4.31,3.4c-0.1,7.09-0.16,14.8-0.16,14.88c0,0.56-0.46,1-1.01,1 c0,0-0.01,0-0.01,0c-0.56,0-1.01-0.46-1-1.02c0-0.08,0.06-7.8,0.16-14.88c0.01-2.6,2-5.4,6.33-5.4c0,0,0.01,0,0.01,0 c3.25,0,6.55,1.89,6.56,5.48c0.02,7.23,0,14.73,0,14.81C128.9,39.49,128.45,39.94,127.9,39.94z"></path> <path class="st2" d="M150.69,39.94C150.69,39.94,150.69,39.94,150.69,39.94c-0.56,0-1.01-0.45-1.01-1.01c0-0.07,0.02-7.57,0-14.79 c-0.01-2.27-2.29-3.47-4.54-3.47c0,0,0,0-0.01,0c-2.14,0-4.3,1.05-4.31,3.4c-0.1,7.09-0.16,14.8-0.16,14.88c0,0.56-0.46,1-1.01,1 c0,0-0.01,0-0.01,0c-0.56,0-1.01-0.46-1-1.02c0-0.08,0.06-7.8,0.16-14.88c0.01-2.6,2-5.4,6.33-5.4c0,0,0.01,0,0.01,0 c3.25,0,6.55,1.89,6.56,5.48c0.02,7.23,0,14.73,0,14.81C151.7,39.49,151.25,39.94,150.69,39.94z"></path> </g> <g> <path class="st3" d="M59.88,55.39C60.3,55,60.8,54.8,61.38,54.8c0.21,0,0.4,0.03,0.57,0.1c0.17,0.07,0.31,0.17,0.42,0.29 c0.11,0.13,0.2,0.28,0.26,0.45s0.09,0.37,0.09,0.58v2.37h-0.35c-0.08,0-0.13-0.01-0.17-0.03c-0.04-0.02-0.07-0.07-0.1-0.14 l-0.08-0.3c-0.09,0.09-0.19,0.16-0.28,0.23c-0.09,0.07-0.19,0.12-0.29,0.17s-0.2,0.08-0.32,0.1c-0.11,0.02-0.24,0.03-0.37,0.03 c-0.15,0-0.29-0.02-0.42-0.06c-0.13-0.04-0.24-0.1-0.34-0.19c-0.09-0.08-0.17-0.19-0.22-0.31c-0.05-0.12-0.08-0.27-0.08-0.44 c0-0.14,0.04-0.28,0.12-0.42c0.08-0.14,0.2-0.26,0.38-0.37c0.18-0.11,0.41-0.2,0.7-0.27c0.29-0.07,0.64-0.11,1.07-0.12v-0.25 c0-0.27-0.06-0.47-0.17-0.6s-0.28-0.2-0.5-0.2c-0.15,0-0.28,0.02-0.38,0.06c-0.1,0.04-0.19,0.08-0.27,0.12s-0.14,0.08-0.2,0.12 c-0.06,0.04-0.12,0.06-0.19,0.06c-0.05,0-0.1-0.01-0.14-0.04c-0.04-0.03-0.07-0.06-0.09-0.1L59.88,55.39z M61.96,56.97 c-0.28,0.01-0.52,0.03-0.71,0.07c-0.19,0.04-0.35,0.08-0.47,0.14c-0.12,0.05-0.21,0.12-0.26,0.2c-0.05,0.08-0.08,0.16-0.08,0.25 c0,0.09,0.01,0.16,0.04,0.22c0.03,0.06,0.07,0.11,0.12,0.15c0.05,0.04,0.11,0.07,0.18,0.09c0.07,0.02,0.14,0.03,0.22,0.03 c0.2,0,0.38-0.04,0.53-0.11c0.15-0.08,0.29-0.19,0.43-0.33V56.97z"></path> <path class="st3" d="M68.36,54.24c-0.03,0.04-0.05,0.08-0.08,0.1c-0.03,0.02-0.07,0.03-0.11,0.03c-0.05,0-0.1-0.02-0.16-0.06 c-0.06-0.04-0.13-0.08-0.21-0.13c-0.08-0.05-0.18-0.09-0.3-0.13c-0.11-0.04-0.25-0.06-0.41-0.06c-0.15,0-0.27,0.02-0.39,0.05 c-0.11,0.04-0.2,0.09-0.28,0.15c-0.08,0.07-0.13,0.14-0.17,0.23s-0.06,0.19-0.06,0.29c0,0.13,0.04,0.25,0.11,0.33 c0.07,0.09,0.16,0.16,0.28,0.23c0.12,0.06,0.25,0.12,0.4,0.17c0.15,0.05,0.3,0.1,0.45,0.15c0.15,0.05,0.31,0.11,0.45,0.18 c0.15,0.07,0.28,0.15,0.4,0.26c0.12,0.1,0.21,0.23,0.28,0.38c0.07,0.15,0.11,0.33,0.11,0.55c0,0.23-0.04,0.45-0.12,0.66 c-0.08,0.2-0.2,0.38-0.35,0.54c-0.15,0.15-0.34,0.27-0.56,0.36c-0.22,0.09-0.48,0.13-0.76,0.13c-0.17,0-0.33-0.02-0.49-0.05 c-0.16-0.03-0.31-0.08-0.46-0.14c-0.14-0.06-0.28-0.13-0.41-0.22c-0.13-0.09-0.24-0.18-0.34-0.28l0.25-0.41 c0.02-0.03,0.05-0.06,0.08-0.08c0.03-0.02,0.07-0.03,0.11-0.03c0.06,0,0.12,0.03,0.19,0.08c0.07,0.05,0.15,0.11,0.25,0.17 c0.1,0.06,0.21,0.12,0.35,0.17c0.14,0.05,0.3,0.08,0.49,0.08c0.31,0,0.55-0.08,0.72-0.23s0.25-0.36,0.25-0.62 c0-0.15-0.04-0.27-0.11-0.36c-0.07-0.09-0.16-0.17-0.28-0.24c-0.12-0.06-0.25-0.12-0.4-0.16c-0.15-0.04-0.3-0.09-0.45-0.14 s-0.3-0.11-0.45-0.18c-0.15-0.07-0.28-0.15-0.4-0.26c-0.12-0.11-0.21-0.24-0.28-0.4c-0.07-0.16-0.11-0.36-0.11-0.6 c0-0.19,0.04-0.37,0.11-0.55c0.07-0.18,0.18-0.34,0.33-0.47c0.14-0.14,0.32-0.25,0.53-0.33c0.21-0.08,0.45-0.12,0.72-0.12 c0.3,0,0.58,0.05,0.83,0.14c0.25,0.09,0.47,0.23,0.65,0.41L68.36,54.24z"></path> <path class="st3" d="M69.3,55.39c0.42-0.39,0.92-0.59,1.51-0.59c0.21,0,0.4,0.03,0.57,0.1c0.17,0.07,0.31,0.17,0.42,0.29 c0.11,0.13,0.2,0.28,0.26,0.45c0.06,0.17,0.09,0.37,0.09,0.58v2.37H71.8c-0.08,0-0.13-0.01-0.17-0.03s-0.07-0.07-0.1-0.14 l-0.08-0.3c-0.09,0.09-0.19,0.16-0.28,0.23c-0.09,0.07-0.19,0.12-0.29,0.17c-0.1,0.05-0.2,0.08-0.32,0.1 c-0.11,0.02-0.24,0.03-0.37,0.03c-0.15,0-0.29-0.02-0.42-0.06c-0.13-0.04-0.24-0.1-0.34-0.19s-0.17-0.19-0.22-0.31 c-0.05-0.12-0.08-0.27-0.08-0.44c0-0.14,0.04-0.28,0.11-0.42c0.08-0.14,0.2-0.26,0.38-0.37c0.18-0.11,0.41-0.2,0.7-0.27 c0.29-0.07,0.64-0.11,1.07-0.12v-0.25c0-0.27-0.06-0.47-0.17-0.6c-0.11-0.13-0.28-0.2-0.5-0.2c-0.15,0-0.28,0.02-0.38,0.06 c-0.1,0.04-0.19,0.08-0.27,0.12c-0.08,0.04-0.14,0.08-0.2,0.12s-0.12,0.06-0.19,0.06c-0.05,0-0.1-0.01-0.14-0.04 c-0.04-0.03-0.07-0.06-0.09-0.1L69.3,55.39z M71.39,56.97c-0.28,0.01-0.52,0.03-0.71,0.07c-0.19,0.04-0.35,0.08-0.47,0.14 c-0.12,0.05-0.21,0.12-0.26,0.2c-0.05,0.08-0.08,0.16-0.08,0.25c0,0.09,0.01,0.16,0.04,0.22c0.03,0.06,0.07,0.11,0.12,0.15 c0.05,0.04,0.11,0.07,0.18,0.09c0.07,0.02,0.14,0.03,0.22,0.03c0.2,0,0.38-0.04,0.53-0.11c0.15-0.08,0.29-0.19,0.43-0.33V56.97z"></path> <path class="st3" d="M73.8,55.37c0.08-0.08,0.16-0.16,0.25-0.22c0.09-0.07,0.18-0.12,0.28-0.17c0.1-0.05,0.2-0.09,0.31-0.11 c0.11-0.03,0.23-0.04,0.36-0.04c0.2,0,0.38,0.03,0.54,0.1c0.15,0.07,0.29,0.16,0.39,0.29s0.19,0.27,0.24,0.45s0.08,0.37,0.08,0.58 v2.37h-0.78v-2.37c0-0.25-0.06-0.45-0.17-0.58c-0.12-0.14-0.29-0.21-0.53-0.21c-0.18,0-0.34,0.04-0.49,0.12 c-0.15,0.08-0.29,0.19-0.42,0.33v2.71h-0.79v-3.73h0.47c0.11,0,0.18,0.05,0.2,0.15L73.8,55.37z"></path> <path class="st3" d="M78.77,54.81c0.28,0,0.52,0.05,0.75,0.14c0.22,0.09,0.41,0.22,0.57,0.38c0.16,0.17,0.28,0.37,0.36,0.6 c0.09,0.24,0.13,0.5,0.13,0.8c0,0.29-0.04,0.56-0.13,0.8c-0.09,0.24-0.21,0.44-0.36,0.6c-0.16,0.17-0.35,0.3-0.57,0.39 c-0.22,0.09-0.47,0.14-0.75,0.14c-0.28,0-0.53-0.05-0.75-0.14c-0.22-0.09-0.41-0.22-0.57-0.39c-0.16-0.17-0.28-0.37-0.37-0.6 c-0.09-0.24-0.13-0.5-0.13-0.8c0-0.29,0.04-0.56,0.13-0.8c0.09-0.24,0.21-0.44,0.37-0.6c0.16-0.17,0.35-0.29,0.57-0.38 C78.25,54.86,78.5,54.81,78.77,54.81z M78.77,58.04c0.34,0,0.59-0.11,0.75-0.34c0.16-0.23,0.25-0.55,0.25-0.97 s-0.08-0.74-0.25-0.97c-0.16-0.23-0.41-0.34-0.75-0.34c-0.34,0-0.59,0.11-0.76,0.34c-0.17,0.23-0.25,0.55-0.25,0.97 s0.08,0.74,0.25,0.97C78.18,57.93,78.43,58.04,78.77,58.04z"></path> <path class="st3" d="M81.34,58.6v-3.73h0.47c0.11,0,0.18,0.05,0.2,0.15l0.05,0.32c0.07-0.08,0.14-0.15,0.21-0.21 c0.07-0.06,0.15-0.12,0.24-0.17c0.08-0.05,0.17-0.08,0.27-0.11c0.1-0.03,0.2-0.04,0.31-0.04c0.12,0,0.23,0.02,0.33,0.05 c0.1,0.03,0.19,0.08,0.26,0.15c0.08,0.06,0.14,0.14,0.2,0.23c0.06,0.09,0.1,0.19,0.14,0.3c0.06-0.13,0.13-0.24,0.21-0.33 c0.08-0.09,0.18-0.17,0.28-0.23c0.1-0.06,0.22-0.1,0.33-0.13c0.12-0.03,0.24-0.04,0.36-0.04c0.2,0,0.38,0.03,0.54,0.09 c0.16,0.06,0.29,0.16,0.4,0.28c0.11,0.12,0.19,0.27,0.25,0.44c0.06,0.18,0.08,0.38,0.08,0.6v2.37H85.7v-2.37 c0-0.26-0.06-0.46-0.17-0.59c-0.11-0.13-0.28-0.2-0.5-0.2c-0.1,0-0.19,0.02-0.28,0.05c-0.09,0.03-0.16,0.08-0.23,0.15 c-0.07,0.07-0.12,0.15-0.16,0.25c-0.04,0.1-0.06,0.21-0.06,0.35v2.37h-0.79v-2.37c0-0.27-0.06-0.47-0.16-0.6 c-0.11-0.13-0.27-0.19-0.48-0.19c-0.15,0-0.28,0.04-0.41,0.11c-0.12,0.07-0.24,0.18-0.34,0.31v2.75H81.34z"></path> <path class="st3" d="M87.31,55.39c0.42-0.39,0.92-0.59,1.51-0.59c0.21,0,0.4,0.03,0.57,0.1c0.17,0.07,0.31,0.17,0.42,0.29 c0.11,0.13,0.2,0.28,0.26,0.45c0.06,0.17,0.09,0.37,0.09,0.58v2.37h-0.35c-0.08,0-0.13-0.01-0.17-0.03 c-0.04-0.02-0.07-0.07-0.1-0.14l-0.08-0.3c-0.09,0.09-0.19,0.16-0.28,0.23c-0.09,0.07-0.19,0.12-0.29,0.17 c-0.1,0.05-0.2,0.08-0.32,0.1c-0.11,0.02-0.24,0.03-0.37,0.03c-0.15,0-0.29-0.02-0.42-0.06c-0.13-0.04-0.24-0.1-0.34-0.19 c-0.09-0.08-0.17-0.19-0.22-0.31c-0.05-0.12-0.08-0.27-0.08-0.44c0-0.14,0.04-0.28,0.12-0.42c0.08-0.14,0.2-0.26,0.38-0.37 c0.18-0.11,0.41-0.2,0.7-0.27c0.29-0.07,0.64-0.11,1.07-0.12v-0.25c0-0.27-0.06-0.47-0.17-0.6c-0.11-0.13-0.28-0.2-0.5-0.2 c-0.15,0-0.28,0.02-0.38,0.06c-0.1,0.04-0.19,0.08-0.27,0.12s-0.14,0.08-0.2,0.12s-0.12,0.06-0.19,0.06c-0.05,0-0.1-0.01-0.14-0.04 c-0.04-0.03-0.07-0.06-0.09-0.1L87.31,55.39z M89.39,56.97c-0.28,0.01-0.52,0.03-0.71,0.07c-0.19,0.04-0.35,0.08-0.47,0.14 c-0.12,0.05-0.21,0.12-0.26,0.2c-0.05,0.08-0.08,0.16-0.08,0.25c0,0.09,0.01,0.16,0.04,0.22c0.03,0.06,0.07,0.11,0.12,0.15 c0.05,0.04,0.11,0.07,0.18,0.09c0.07,0.02,0.14,0.03,0.22,0.03c0.2,0,0.38-0.04,0.53-0.11c0.15-0.08,0.29-0.19,0.43-0.33V56.97z"></path> <path class="st3" d="M95.53,55.6c-0.02,0.03-0.05,0.06-0.07,0.07c-0.02,0.02-0.05,0.03-0.1,0.03s-0.08-0.01-0.13-0.04 c-0.04-0.03-0.1-0.06-0.16-0.1c-0.06-0.04-0.14-0.07-0.22-0.1c-0.09-0.03-0.2-0.04-0.33-0.04c-0.17,0-0.32,0.03-0.45,0.09 c-0.13,0.06-0.24,0.15-0.32,0.26c-0.09,0.11-0.15,0.25-0.19,0.41c-0.04,0.16-0.06,0.34-0.06,0.55c0,0.21,0.02,0.4,0.07,0.56 c0.05,0.16,0.11,0.3,0.2,0.41c0.09,0.11,0.19,0.2,0.31,0.26c0.12,0.06,0.26,0.09,0.41,0.09c0.15,0,0.27-0.02,0.37-0.05 c0.1-0.04,0.17-0.08,0.24-0.12c0.06-0.04,0.12-0.08,0.16-0.12c0.04-0.04,0.09-0.05,0.14-0.05c0.06,0,0.11,0.02,0.15,0.07l0.22,0.29 c-0.09,0.11-0.19,0.2-0.3,0.28c-0.11,0.08-0.23,0.14-0.35,0.18c-0.12,0.05-0.25,0.08-0.38,0.1c-0.13,0.02-0.26,0.03-0.4,0.03 c-0.23,0-0.45-0.04-0.65-0.13c-0.2-0.09-0.38-0.21-0.53-0.38c-0.15-0.16-0.27-0.37-0.35-0.6c-0.09-0.24-0.13-0.51-0.13-0.81 c0-0.28,0.04-0.53,0.12-0.77c0.08-0.23,0.19-0.44,0.34-0.61c0.15-0.17,0.34-0.3,0.56-0.4c0.22-0.1,0.48-0.14,0.77-0.14 c0.27,0,0.51,0.04,0.71,0.13c0.21,0.09,0.39,0.21,0.55,0.37L95.53,55.6z"></path> <path class="st3" d="M97.94,54.81c0.28,0,0.52,0.05,0.75,0.14c0.22,0.09,0.41,0.22,0.57,0.38c0.16,0.17,0.28,0.37,0.36,0.6 c0.09,0.24,0.13,0.5,0.13,0.8c0,0.29-0.04,0.56-0.13,0.8c-0.09,0.24-0.21,0.44-0.36,0.6c-0.16,0.17-0.35,0.3-0.57,0.39 c-0.22,0.09-0.47,0.14-0.75,0.14c-0.28,0-0.53-0.05-0.75-0.14c-0.22-0.09-0.41-0.22-0.57-0.39c-0.16-0.17-0.28-0.37-0.37-0.6 c-0.09-0.24-0.13-0.5-0.13-0.8c0-0.29,0.04-0.56,0.13-0.8c0.09-0.24,0.21-0.44,0.37-0.6c0.16-0.17,0.35-0.29,0.57-0.38 C97.42,54.86,97.67,54.81,97.94,54.81z M97.94,58.04c0.34,0,0.59-0.11,0.75-0.34c0.16-0.23,0.25-0.55,0.25-0.97 s-0.08-0.74-0.25-0.97c-0.16-0.23-0.41-0.34-0.75-0.34c-0.34,0-0.59,0.11-0.76,0.34c-0.17,0.23-0.25,0.55-0.25,0.97 s0.08,0.74,0.25,0.97C97.35,57.93,97.6,58.04,97.94,58.04z"></path> <path class="st3" d="M100.51,58.6v-3.73h0.47c0.11,0,0.18,0.05,0.2,0.15l0.05,0.32c0.07-0.08,0.14-0.15,0.21-0.21 c0.07-0.06,0.15-0.12,0.24-0.17c0.08-0.05,0.17-0.08,0.27-0.11c0.1-0.03,0.2-0.04,0.31-0.04c0.12,0,0.23,0.02,0.33,0.05 c0.1,0.03,0.19,0.08,0.26,0.15c0.08,0.06,0.14,0.14,0.2,0.23c0.06,0.09,0.1,0.19,0.14,0.3c0.06-0.13,0.13-0.24,0.21-0.33 c0.08-0.09,0.18-0.17,0.28-0.23c0.1-0.06,0.22-0.1,0.33-0.13c0.12-0.03,0.24-0.04,0.36-0.04c0.2,0,0.38,0.03,0.54,0.09 c0.16,0.06,0.29,0.16,0.4,0.28c0.11,0.12,0.19,0.27,0.25,0.44c0.06,0.18,0.08,0.38,0.08,0.6v2.37h-0.79v-2.37 c0-0.26-0.06-0.46-0.17-0.59c-0.11-0.13-0.28-0.2-0.5-0.2c-0.1,0-0.19,0.02-0.28,0.05c-0.09,0.03-0.16,0.08-0.23,0.15 c-0.07,0.07-0.12,0.15-0.16,0.25c-0.04,0.1-0.06,0.21-0.06,0.35v2.37h-0.79v-2.37c0-0.27-0.06-0.47-0.16-0.6 c-0.11-0.13-0.27-0.19-0.48-0.19c-0.15,0-0.28,0.04-0.41,0.11c-0.12,0.07-0.24,0.18-0.34,0.31v2.75H100.51z"></path> <path class="st3" d="M107.32,55.41c0.16-0.18,0.33-0.33,0.53-0.44c0.2-0.11,0.43-0.17,0.69-0.17c0.21,0,0.4,0.04,0.57,0.13 c0.17,0.08,0.32,0.21,0.44,0.37c0.12,0.16,0.22,0.36,0.28,0.6c0.07,0.24,0.1,0.51,0.1,0.82c0,0.28-0.04,0.53-0.11,0.77 c-0.07,0.24-0.18,0.44-0.32,0.62c-0.14,0.17-0.31,0.31-0.5,0.41c-0.2,0.1-0.42,0.15-0.67,0.15c-0.22,0-0.4-0.04-0.56-0.11 c-0.15-0.07-0.29-0.17-0.41-0.29v1.58h-0.79v-4.96h0.47c0.11,0,0.18,0.05,0.2,0.15L107.32,55.41z M107.36,57.66 c0.11,0.14,0.23,0.24,0.36,0.3c0.13,0.06,0.27,0.09,0.43,0.09c0.31,0,0.55-0.11,0.72-0.34c0.17-0.22,0.26-0.56,0.26-1 c0-0.23-0.02-0.42-0.06-0.59c-0.04-0.16-0.09-0.29-0.17-0.4c-0.07-0.1-0.16-0.18-0.27-0.22c-0.1-0.05-0.22-0.07-0.35-0.07 c-0.2,0-0.37,0.04-0.52,0.13c-0.15,0.09-0.28,0.21-0.4,0.37V57.66z"></path> <path class="st3" d="M110.61,55.39c0.42-0.39,0.92-0.59,1.51-0.59c0.21,0,0.4,0.03,0.57,0.1c0.17,0.07,0.31,0.17,0.42,0.29 c0.11,0.13,0.2,0.28,0.26,0.45c0.06,0.17,0.09,0.37,0.09,0.58v2.37h-0.35c-0.08,0-0.13-0.01-0.17-0.03s-0.07-0.07-0.1-0.14 l-0.08-0.3c-0.09,0.09-0.19,0.16-0.28,0.23c-0.09,0.07-0.19,0.12-0.29,0.17c-0.1,0.05-0.2,0.08-0.32,0.1 c-0.11,0.02-0.24,0.03-0.37,0.03c-0.15,0-0.29-0.02-0.42-0.06c-0.13-0.04-0.24-0.1-0.34-0.19c-0.09-0.08-0.17-0.19-0.22-0.31 c-0.05-0.12-0.08-0.27-0.08-0.44c0-0.14,0.04-0.28,0.12-0.42c0.08-0.14,0.2-0.26,0.38-0.37s0.41-0.2,0.7-0.27 c0.29-0.07,0.64-0.11,1.07-0.12v-0.25c0-0.27-0.06-0.47-0.17-0.6c-0.11-0.13-0.28-0.2-0.5-0.2c-0.15,0-0.28,0.02-0.38,0.06 c-0.1,0.04-0.19,0.08-0.27,0.12c-0.08,0.04-0.14,0.08-0.2,0.12s-0.12,0.06-0.19,0.06c-0.05,0-0.1-0.01-0.14-0.04 c-0.04-0.03-0.07-0.06-0.09-0.1L110.61,55.39z M112.69,56.97c-0.28,0.01-0.52,0.03-0.71,0.07c-0.19,0.04-0.35,0.08-0.47,0.14 c-0.12,0.05-0.21,0.12-0.26,0.2c-0.05,0.08-0.08,0.16-0.08,0.25c0,0.09,0.01,0.16,0.04,0.22c0.03,0.06,0.07,0.11,0.12,0.15 c0.05,0.04,0.11,0.07,0.18,0.09c0.07,0.02,0.14,0.03,0.22,0.03c0.2,0,0.38-0.04,0.53-0.11c0.15-0.08,0.29-0.19,0.43-0.33V56.97z"></path> <path class="st3" d="M115.1,55.37c0.08-0.08,0.16-0.16,0.25-0.22c0.09-0.07,0.18-0.12,0.28-0.17c0.1-0.05,0.2-0.09,0.31-0.11 c0.11-0.03,0.23-0.04,0.36-0.04c0.2,0,0.38,0.03,0.54,0.1c0.15,0.07,0.29,0.16,0.39,0.29c0.11,0.12,0.19,0.27,0.24,0.45 c0.05,0.17,0.08,0.37,0.08,0.58v2.37h-0.78v-2.37c0-0.25-0.06-0.45-0.17-0.58c-0.12-0.14-0.29-0.21-0.53-0.21 c-0.18,0-0.34,0.04-0.49,0.12c-0.15,0.08-0.29,0.19-0.42,0.33v2.71h-0.79v-3.73h0.47c0.11,0,0.18,0.05,0.2,0.15L115.1,55.37z"></path> <path class="st3" d="M121.68,54.87l-2.05,4.79c-0.03,0.06-0.06,0.1-0.1,0.13c-0.04,0.03-0.1,0.05-0.17,0.05h-0.58l0.69-1.49 l-1.52-3.47h0.68c0.07,0,0.12,0.02,0.15,0.05c0.04,0.03,0.06,0.07,0.08,0.11l0.89,2.12c0.02,0.06,0.04,0.12,0.06,0.18 c0.02,0.06,0.04,0.12,0.05,0.18c0.02-0.06,0.04-0.13,0.06-0.19c0.02-0.06,0.04-0.12,0.07-0.18l0.85-2.11 c0.02-0.04,0.05-0.08,0.09-0.11c0.04-0.03,0.08-0.04,0.13-0.04H121.68z"></path> </g> </svg> 