<svg xmlns="http://www.w3.org/2000/svg" height="128px" viewBox="0 -960 960 960" width="128px" fill="#e3e3e3" style="background: #424242"><path d="m 363.51139,-44.761905 q -15.9617,0 -26.75931,-10.797619 -10.79762,-10.797619 -10.79762,-26.759317 V -533.00207 q 0,-15.96169 10.79762,-26.75931 10.79761,-10.79762 26.75931,-10.79762 h 225.34162 q 15.96169,0 26.75931,10.79762 10.79762,10.79762 10.79762,26.75931 v 450.683229 q 0,15.961698 -10.79762,26.759317 -10.79762,10.797619 -26.75931,10.797619 z M 476.1822,-373.38509 q 19.71739,0 33.33178,-13.61439 13.61439,-13.61439 13.61439,-33.33178 0,-19.71739 -13.61439,-33.33178 -13.61439,-13.61439 -33.33178,-13.61439 -19.71739,0 -33.33178,13.61439 -13.61439,13.61439 -13.61439,33.33178 0,19.71739 13.61439,33.33178 13.61439,13.61439 33.33178,13.61439 z m -133.32712,-255.38716 -52.57971,-52.57971 q 37.55693,-37.55694 85.44203,-57.27433 47.88509,-19.71739 100.4648,-19.71739 52.57971,0 100.4648,19.71739 47.8851,19.71739 85.44203,57.27433 l -52.57971,52.57971 q -27.22878,-27.22878 -61.49948,-40.84317 -34.2707,-13.61439 -71.82764,-13.61439 -37.55694,0 -71.82764,13.61439 -34.2707,13.61439 -61.49948,40.84317 z M 237.69566,-733.93167 183.2381,-788.38923 q 59.15217,-57.27433 134.73551,-88.72826 75.58333,-31.45393 158.20859,-31.45393 82.62526,0 158.20859,31.45393 75.58333,31.45393 132.85766,90.60611 l -52.57971,52.57971 q -46.94617,-48.82402 -108.91511,-74.17495 -61.96895,-25.35093 -129.57143,-25.35093 -67.60249,0 -129.57143,25.35093 -61.96894,25.35093 -108.91511,74.17495 z"/>
</svg>
