<?xml version="1.0" encoding="UTF-8"?>
<svg width="1024" height="1024" version="1.1" viewBox="0 0 270.9 270.9" xmlns="http://www.w3.org/2000/svg">
 <g transform="matrix(6.209 0 0 6.209 313.9 14.36)">
  <path d="m-28.81-2c-10.9 0.02541-20.24 8.297-21.34 19.38-0.8743 8.813 3.711 16.93 11 20.97l2.625-11.06c-2.248-2.25-3.495-5.459-3.156-8.875 0.5622-5.668 5.331-9.893 10.91-9.906 0.3717-8.666e-4 0.7472 0.02502 1.125 0.0625 6.045 0.5997 10.44 5.986 9.844 12.03-0.2605 2.626-1.427 4.953-3.156 6.688l2.625 11.06c5.986-3.308 10.28-9.417 11-16.72 1.172-11.82-7.465-22.36-19.28-23.53-0.7385-0.07326-1.461-0.09544-2.188-0.09375z" fill="#f58220"/>
  <path d="m-29.12 13c-0.428 0.02569-0.851 0.1035-1.281 0.2188-3.442 0.9223-5.485 4.464-4.562 7.906 0.5054 1.886 1.776 3.337 3.406 4.125l-2.75 15.03c3.645 0.9768 7.48 0.9768 11.12 0l-2.812-15c2.773-1.305 4.289-4.438 3.469-7.5-0.8071-3.012-3.598-4.961-6.594-4.781z" fill="#0a3565"/>
 </g>
</svg>
