<?xml version="1.0" encoding="UTF-8"?> <svg xmlns="http://www.w3.org/2000/svg" id="Layer_1" width="279.4mm" height="84.31mm" viewBox="0 0 792 239"><g><path d="M47.71,108.38c-2.17,1.63-3.51,3.7-3.53,6.77,0,16.69,1.82,26.64,4.35,32.82,2.53,6.17,5.52,8.7,8.89,11.25,3.26,2.43,6.58,4.14,9.06,5.25,2.45,1.06,4,1.47,4.02,1.5l2.23,.63-5.27,27.76,6.17,.52,9.3-27.46,102.18-5.85,2.69-.08,11.09,28.42,5.14-1.09-5.33-28.11,2.23-.63s1.55-.44,4.02-1.53c2.47-1.06,5.76-2.77,9.05-5.22,5.22-3.97,14.3-14.14,14.33-36.73,0-4.3-.33-9.03-1.09-14.22-.76-5.57-6.09-8.35-12.08-8.43-4.87-.03-9.19,2.12-10.31,4.9-3.4,7.31-.9,20.23-2.91,30.07-1.71,8.51-7.5,14.55-16.31,15.91-18.87,3.13-33.31,3.65-52.07,4.73-16.31,.93-27.46,1.39-43.8,1.69h-.6c-6.39,.03-11.15-1.8-14.36-5.03-3.15-3.21-4.65-7.43-5.55-11.86-1.74-8.86-1.41-17.07-4.7-24.33-.98-2.39-4.41-4.1-8.57-4.08h-.05c-2.96,0-6.07,.9-8.24,2.45Z" fill="#6aa044" fill-rule="evenodd"></path><path d="M184.89,49.32c-14.25,.19-95.22,5.52-116.65,9.22-20.53,3.56-21.12,23.98-17.78,41.3,1.79-.51,3.7-.76,5.55-.76,5.33,0,10.93,2.04,13.27,7.15,2.91,6.64,3.34,12.81,4.13,19.58,.71,6.82,1.93,12.61,5.11,15.69,2.09,2.09,5.14,3.48,10.66,3.48h.52c16.29-.27,27.38-.76,43.58-1.68,18.9-1.04,33.14-1.58,51.5-4.68,6.96-1.28,8.89-4.9,10.55-11.91,1.9-8.16-.98-21.18,3.21-31.05,2.09-4.51,8.29-6.9,13.24-7.64,.71-18.44-4.1-39.02-26.89-38.69Z" fill="#a6ce39" fill-rule="evenodd"></path></g><path d="M285.51,86.62c9.86,.66,13.97,4.6,14.63,6.57,0,2.14-1.15,5.59-2.47,7.4-2.3-.49-4.77-.66-7.56-1.64-2.47-.99-5.1-1.48-8.05-1.48-6.74,0-11.18,3.45-11.18,8.55,0,2.8,1.32,5.26,5.26,8.38,4.11,3.29,11.67,8.22,16.6,12.33,7.07,5.59,9.7,11.01,9.7,17.92,0,15.29-12.33,23.01-27.45,23.01-10.19,0-18.9-2.96-20.55-7.07,0-2.63,.99-6.08,2.63-8.22h.66c1.31,0,2.79,.49,4.44,1.32,3.45,1.48,7.89,2.63,12.49,2.63,.99,0,2.14-.16,3.12-.33,5.92-.66,9.53-4.44,9.53-9.86,0-3.78-1.97-7.07-7.07-10.68-4.27-3.12-9.53-6.9-13.31-10.03l-3.95-3.45c-4.93-4.77-7.23-9.86-7.23-15.45,0-12.66,10.19-20.22,24.98-20.22,1.81,0,3.45,.16,4.77,.33Z" fill="#6aa044"></path><path d="M338.1,167.82c-20.38,0-31.72-12-31.72-40.44s13.31-41.09,32.22-41.09c20.71,0,31.23,13.64,31.23,40.11s-13.48,41.42-31.72,41.42Zm.33-10.68c8.71,0,16.27-7.56,16.27-30.24s-6.41-29.59-16.27-29.59h-.33c-8.71,0-16.44,8.05-16.44,29.42,0,22.68,7.07,30.41,16.77,30.41Z" fill="#6aa044"></path><path d="M424.39,54.73c-.16,1.32-.33,2.47-.82,3.62-.66,1.48-1.15,2.47-1.97,3.29-.49,.17-1.97-.33-3.29-.66-1.64-.49-4.44-.66-6.58-.66-7.4,0-14.14,3.29-14.79,17.42-.16,3.45-.16,7.07-.16,10.68h8.87c3.62,0,7.23,0,9.37-.17-.49,7.73-1.32,9.37-3.62,10.19-.33,.16-.99,.49-1.81,.66-3.45,.33-7.89,.33-12.99,.33,0,18.57,.17,45.2,.33,62.79,0,.82,0,2.63-1.31,3.12-2.63,.49-7.4,.66-9.37,.66-1.31,0-2.47-.17-3.62-.33-.16-.98-.16-2.3-.16-3.78,0-6.58,.16-13.31,.16-20.05,0-13.48-.16-27.61-.16-42.41-5.26-.16-8.38-.66-10.19-1.97,.66-6.08,1.15-6.9,3.78-7.56,1.31-.33,3.45-.82,6.41-1.48,0-4.44,.16-8.55,.66-12.33,1.81-21.86,16.93-27.12,28.44-27.12,6.74,0,10.85,1.48,12.33,3.12,.66,.82,.49,1.81,.49,2.63Z" fill="#6aa044"></path><path d="M417.15,95.99c0-.66,.16-1.31,.33-1.81,3.45-3.29,13.31-7.56,24.33-7.89,2.63,0,2.96,0,5.75,.16,12.16,.82,16.11,8.88,16.11,22.85v7.4c0,11.34-.33,24.49-.33,33.2,0,0-.66,8.55,4.6,7.56-.16,2.3-.16,5.1-.16,6.08-1.31,1.81-4.44,3.62-8.71,3.78-3.95,0-8.22-3.62-9.86-5.92-.99,.99-2.96,2.8-4.77,3.78-3.62,1.81-7.56,2.14-12,2.14-10.52,0-20.55-6.57-20.55-21.7,0-20.22,17.92-25.31,27.78-26.3,1.64-.16,3.12-.16,4.6-.16,2.14,0,3.95,.16,5.42,.49v-9.37c0-7.4-.82-11.51-7.89-11.51-5.75,0-12.49,2.3-17.26,4.27-1.81,.82-3.45,1.31-4.77,1.31-1.48-1.64-2.14-4.6-2.47-6.57-.16-.49-.16-1.15-.16-1.81Zm32.54,44.71v-11.67c-.99-.17-2.14-.17-3.29-.17-1.97,0-3.78,.17-5.42,.33-7.89,1.31-14.63,4.77-14.63,15.12,0,8.38,3.62,11.34,8.71,11.67h1.15c4.93,0,10.35-2.3,12.66-5.09,.16-.33,.33-1.32,.49-2.3,.33-1.97,.33-4.44,.33-7.89Z" fill="#6aa044"></path><path d="M515.93,156.8c0,1.48,0,3.13-.16,4.6-.33,1.32-1.15,2.3-2.47,3.29-3.12,1.97-8.71,3.12-13.81,3.12-15.29,0-18.08-14.3-18.08-27.61v-40.6c-5.26,0-7.89-.66-9.86-1.64,0-5.09,.16-4.44,1.48-5.75,2.3-1.97,7.4-2.47,9.86-3.62l.82-14.79c1.15-3.29,4.6-6.08,12.33-6.57-.17,7.56-.33,14.46-.33,21.2h21.2c-.49,8.22-1.48,10.03-3.78,10.52-1.31,.17-2.63,.33-3.94,.33-4.27,.16-6.41,.16-13.48,.16-.17,7.56-.33,15.29-.33,22.35s.16,13.64,.16,19.07c.66,9.21,2.14,15.62,8.71,15.62,2.47,.16,10.03-2.14,11.34-3.29,.17,.99,.33,2.3,.33,3.61Z" fill="#6aa044"></path><path d="M540.41,107.33l-1.64,30.08c0,14.79,4.6,17.91,12.49,17.91,5.75,.33,11.67-2.3,14.46-5.75v-52.27c0-3.45,.33-5.59,1.81-7.73,1.97-1.64,3.78-1.48,12.66-1.64-.16,8.88-.33,19.4-.33,32.05v27.95c0,5.26,.82,9.04,1.97,12.32-.82,.99-2.96,2.14-6.57,3.78-.5,.16-.99,.16-1.15,.16-2.96,0-4.44-2.14-5.09-4.93-3.94,3.29-7.72,5.26-11.34,6.41-3.45,1.15-6.57,1.81-10.19,1.81-19.07-.82-22.84-10.52-23.18-27.94l1.65-34.35c0-6.08-.99-10.52-2.31-14.47,.99-1.15,3.45-2.63,7.73-4.6,.66-.16,1.15-.16,1.32-.16,3.62,0,5.26,2.96,5.92,5.59,.98,3.78,1.8,7.4,1.8,15.78Z" fill="#6aa044"></path><path d="M632.95,156.8c0,1.48,0,3.13-.17,4.6-.33,1.32-1.15,2.3-2.46,3.29-3.12,1.97-8.71,3.12-13.81,3.12-15.29,0-18.08-14.3-18.08-27.61v-40.6c-5.26,0-7.89-.66-9.86-1.64,0-5.09,.17-4.44,1.48-5.75,2.3-1.97,7.39-2.47,9.86-3.62l.82-14.79c1.15-3.29,4.6-6.08,12.33-6.57-.16,7.56-.33,14.46-.33,21.2h21.2c-.5,8.22-1.48,10.03-3.78,10.52-1.32,.17-2.63,.33-3.95,.33-4.27,.16-6.41,.16-13.48,.16-.16,7.56-.33,15.29-.33,22.35s.17,13.64,.17,19.07c.66,9.21,2.14,15.62,8.71,15.62,2.47,.16,10.02-2.14,11.34-3.29,.16,.99,.33,2.3,.33,3.61Z" fill="#6aa044"></path><path d="M668.44,167.82c-20.38,0-31.72-12-31.72-40.44s13.31-41.09,32.22-41.09c20.71,0,31.23,13.64,31.23,40.11s-13.48,41.42-31.72,41.42Zm.33-10.68c8.71,0,16.27-7.56,16.27-30.24s-6.41-29.59-16.27-29.59h-.33c-8.71,0-16.44,8.05-16.44,29.42,0,22.68,7.07,30.41,16.76,30.41Z" fill="#6aa044"></path><path d="M723.83,105.36v52.43c0,2.79-.17,4.76-1.48,6.57-2.14,1.48-4.11,1.64-12.98,1.64,.16-8.88,.33-19.39,.33-32.22l.16-27.78c0-5.26-.99-9.04-2.14-12.33,.99-.99,2.96-2.14,6.74-3.78,.49-.17,.82-.17,1.15-.17,2.96,0,4.27,2.14,5.09,4.93,3.78-3.29,7.73-5.26,11.18-6.41,3.12-.99,5.92-1.81,8.88-1.31,4.27,.49,6.57,1.81,7.07,4.11,0,2.3-.65,6.58-2.63,9.53q-.66,.16-1.48,.16c-1.15,0-2.63-.16-3.95-.33-1.15-.33-2.14-.33-2.96-.33-5.42,0-9.7,1.81-12.98,5.26Z" fill="#6aa044"></path></svg> 