<?xml version="1.0" encoding="UTF-8" standalone="no"?><!DOCTYPE svg PUBLIC "-//W3C//DTD SVG 1.1//EN" "http://www.w3.org/Graphics/SVG/1.1/DTD/svg11.dtd"><svg width="100%" height="100%" viewBox="0 0 1120 292" version="1.1" xmlns="http://www.w3.org/2000/svg" xmlns:xlink="http://www.w3.org/1999/xlink" xml:space="preserve" xmlns:serif="http://www.serif.com/" style="fill-rule:evenodd;clip-rule:evenodd;stroke-linejoin:round;stroke-miterlimit:2;"><path d="M23.455,104.688c2.875,-4.251 6.938,-7.876 12.188,-10.876c5.375,-2.999 11.687,-4.499 18.937,-4.499c8.25,-0.001 15.438,1.999 21.563,5.999c6.25,3.876 11.125,9.438 14.625,16.688c3.625,7.25 5.437,15.75 5.437,25.5c0,9.75 -1.812,18.25 -5.437,25.5c-3.5,7.125 -8.375,12.688 -14.625,16.688c-6.25,4 -13.438,6 -21.563,6c-6.5,-0 -12.25,-1.25 -17.25,-3.75c-5,-2.625 -8.875,-5.688 -11.625,-9.188l-1.5,11.625l-21.75,0l0,-135l24,0l0,55.687l-3,-0.374Zm46.875,32.812c0,-7.875 -2.062,-14.188 -6.187,-18.938c-4,-4.874 -9.25,-7.312 -15.75,-7.312c-4,0 -7.688,1.063 -11.063,3.187c-3.25,2.001 -5.875,4.938 -7.875,8.813c-2,3.875 -3,8.625 -3,14.25c0,5.625 1,10.375 3,14.25c2,3.875 4.625,6.875 7.875,9c3.375,2 7.063,3 11.063,3c6.5,0 11.75,-2.375 15.75,-7.125c4.125,-4.875 6.187,-11.25 6.187,-19.125Zm85.833,48.188c-9.375,-0 -17.625,-2.063 -24.75,-6.188c-7.125,-4.125 -12.687,-9.875 -16.687,-17.25c-3.875,-7.375 -5.813,-15.875 -5.813,-25.5c0,-9.25 1.938,-17.438 5.813,-24.563c4,-7.125 9.437,-12.687 16.312,-16.687c6.875,-4.125 14.75,-6.188 23.625,-6.188c9,0.001 16.938,1.938 23.813,5.813c6.875,3.875 12.187,9.313 15.937,16.312c3.875,6.876 5.813,14.938 5.813,24.188c-0,1.375 -0.125,2.938 -0.375,4.688c-0.125,1.625 -0.313,3.375 -0.563,5.25l-64.5,-0c0.5,4 1.75,7.437 3.75,10.312c2.125,2.75 4.688,4.938 7.688,6.563c3.125,1.5 6.625,2.25 10.5,2.25c4.625,-0 8.75,-0.938 12.375,-2.813c3.75,-1.875 6.437,-4.438 8.062,-7.688l21.187,6.375c-3.749,8 -9.312,14.188 -16.687,18.563c-7.375,4.375 -15.875,6.563 -25.5,6.563Zm17.813,-57.563c-0.125,-3.5 -1.063,-6.625 -2.813,-9.375c-1.75,-2.875 -4.062,-5.062 -6.937,-6.563c-2.875,-1.624 -6.063,-2.437 -9.563,-2.437c-3.125,-0 -6.062,0.813 -8.812,2.438c-2.75,1.5 -5.125,3.624 -7.125,6.374c-1.875,2.751 -3.125,5.938 -3.75,9.563l39,0Zm49.096,-37.5l0,-26.25l24.188,0l0,26.25l20.812,0l0,21.188l-20.812,-0.001l0,38.063c0,4.875 1.063,8.313 3.187,10.313c2.125,2 4.75,3.062 7.875,3.187c3.25,0.125 6.5,-0.063 9.75,-0.563l0,20.625c-5.75,1.25 -11.375,1.625 -16.875,1.125c-5.375,-0.5 -10.187,-1.937 -14.437,-4.312c-4.25,-2.5 -7.625,-6.25 -10.125,-11.25c-2.375,-5 -3.563,-11.375 -3.563,-19.125l0,-38.063l-13.312,0.001l0,-21.188l13.313,0Zm68.847,0l0,-26.25l24.189,0l0,26.25l20.813,0l-0,21.188l-20.813,-0.001l0,38.063c0,4.875 1.063,8.313 3.188,10.313c2.125,2 4.75,3.062 7.875,3.187c3.25,0.125 6.5,-0.063 9.75,-0.563l-0,20.625c-5.75,1.25 -11.375,1.625 -16.875,1.125c-5.375,-0.5 -10.188,-1.937 -14.438,-4.312c-4.251,-2.5 -7.626,-6.25 -10.126,-11.25c-2.375,-5 -3.563,-11.375 -3.563,-19.125l0,-38.063l-13.312,0.001l-0,-21.188l13.312,0Zm104.661,95.063c-9.375,-0 -17.625,-2.063 -24.75,-6.188c-7.125,-4.125 -12.688,-9.875 -16.688,-17.25c-3.875,-7.375 -5.812,-15.875 -5.812,-25.5c-0,-9.25 1.937,-17.438 5.812,-24.563c4,-7.125 9.438,-12.687 16.313,-16.687c6.875,-4.125 14.75,-6.188 23.625,-6.188c9,0.001 16.937,1.938 23.812,5.813c6.875,3.875 12.188,9.313 15.938,16.312c3.875,6.876 5.812,14.938 5.812,24.188c0,1.375 -0.125,2.938 -0.375,4.688c-0.125,1.625 -0.312,3.375 -0.562,5.25l-64.5,-0c0.5,4 1.75,7.437 3.75,10.312c2.125,2.75 4.687,4.938 7.687,6.563c3.125,1.5 6.625,2.25 10.5,2.25c4.625,-0 8.75,-0.938 12.375,-2.813c3.75,-1.875 6.438,-4.438 8.063,-7.688l21.187,6.375c-3.75,8 -9.312,14.188 -16.687,18.563c-7.375,4.375 -15.875,6.563 -25.5,6.563Zm17.812,-57.563c-0.125,-3.5 -1.062,-6.625 -2.812,-9.375c-1.75,-2.875 -4.063,-5.062 -6.938,-6.563c-2.875,-1.624 -6.062,-2.437 -9.562,-2.437c-3.125,-0 -6.063,0.813 -8.813,2.438c-2.75,1.5 -5.125,3.624 -7.125,6.374c-1.875,2.751 -3.125,5.938 -3.75,9.563l39,0Zm44.544,-37.5l21.75,0l1.688,12c2.625,-3.25 5.562,-5.875 8.812,-7.875c3.375,-2.125 7.063,-3.563 11.063,-4.313c4,-0.874 8.187,-0.812 12.562,0.188l0,22.5c-3.375,-1.125 -6.937,-1.438 -10.687,-0.938c-3.625,0.501 -7.063,1.813 -10.313,3.938c-3.125,2.125 -5.75,5.188 -7.875,9.188c-2,3.874 -3,8.812 -3,14.812l0,44.25l-24,0l0,-93.75Zm71.228,0l21.75,0l1.688,9.188c3,-3.126 6.562,-5.626 10.687,-7.501c4.25,-1.999 8.875,-2.999 13.875,-2.999c6,-0.001 11.5,1.312 16.5,3.937c5,2.5 9,6.125 12,10.875c3.375,-4.625 7.75,-8.25 13.125,-10.875c5.5,-2.625 11.438,-3.938 17.813,-3.938c7.375,0.001 13.75,1.563 19.125,4.688c5.5,3.125 9.75,7.688 12.75,13.688c3,5.875 4.5,13.187 4.5,21.937l-0,54.75l-24,0l-0,-51.563c-0,-7.125 -1.563,-12.5 -4.688,-16.124c-3.125,-3.626 -7.562,-5.438 -13.312,-5.438c-5.875,-0 -10.5,1.875 -13.875,5.625c-3.25,3.625 -4.875,9.062 -4.875,16.312l-0,51.188l-24,0l-0,-51.563c-0,-7.125 -1.438,-12.5 -4.313,-16.124c-2.75,-3.626 -7,-5.438 -12.75,-5.438c-5.875,-0 -10.375,1.875 -13.5,5.625c-3,3.625 -4.5,9 -4.5,16.125l0,51.375l-24,0l0,-93.75Zm220.653,93.75l-1.875,-11.438c-3.125,3.875 -6.687,6.938 -10.687,9.188c-3.875,2.25 -9.125,3.375 -15.75,3.375c-6.25,0 -11.75,-1.063 -16.5,-3.188c-4.625,-2.25 -8.25,-5.312 -10.875,-9.187c-2.625,-4 -3.938,-8.688 -3.938,-14.063c0,-7.875 2.813,-14.375 8.438,-19.5c5.75,-5.25 14.375,-8.562 25.875,-9.937l23.437,-2.625l0,-6.563c0,-2.624 -1.187,-5.062 -3.562,-7.312c-2.375,-2.25 -6.125,-3.375 -11.25,-3.375c-4.5,-0 -8.438,1.125 -11.813,3.375c-3.25,2.125 -5.437,5.375 -6.562,9.75l-20.625,-7.5c2.5,-8.375 7.25,-14.813 14.25,-19.313c7,-4.499 15.625,-6.749 25.875,-6.749c12.5,-0.001 21.875,3.124 28.125,9.374c6.375,6.126 9.562,14.251 9.562,24.376l0,61.312l-22.125,0Zm-1.875,-40.688l-20.25,2.625c-4.125,0.5 -7.25,1.75 -9.375,3.75c-2.125,1.875 -3.187,4.188 -3.187,6.938c-0,2.625 1.062,4.875 3.187,6.75c2.125,1.75 5.125,2.625 9,2.625c4.375,0 8.063,-0.813 11.063,-2.438c3.125,-1.625 5.5,-4 7.125,-7.125c1.625,-3.125 2.437,-7 2.437,-11.625l0,-1.5Zm45.994,-53.062l21.75,-0l1.688,12c2.625,-3.25 5.562,-5.875 8.812,-7.875c3.375,-2.125 7.063,-3.563 11.063,-4.313c4,-0.875 8.187,-0.812 12.562,0.188l0,22.5c-3.375,-1.125 -6.937,-1.438 -10.687,-0.938c-3.625,0.5 -7.063,1.813 -10.313,3.938c-3.125,2.125 -5.75,5.187 -7.875,9.187c-2,3.875 -3,8.813 -3,14.813l0,44.25l-24,0l0,-93.75Zm71.228,-41.25l24.188,0l-0,77.813l6,-0l30.937,-36.563l31.313,0l-41.25,46.5l41.625,47.25l-31.5,0l-31.313,-37.125l-5.812,0l-0,37.125l-24.188,0l0,-135Zm123.441,104.438c0.75,3.125 2,5.5 3.75,7.125c1.875,1.625 3.937,2.812 6.187,3.562c2.375,0.625 4.75,0.938 7.125,0.938c4.375,-0 7.813,-0.813 10.313,-2.438c2.5,-1.75 3.75,-3.938 3.75,-6.563c-0,-2.25 -0.875,-4 -2.625,-5.25c-1.75,-1.375 -4,-2.437 -6.75,-3.187c-2.625,-0.75 -5.438,-1.438 -8.438,-2.063c-3.375,-0.875 -7,-1.812 -10.875,-2.812c-3.75,-1.125 -7.312,-2.688 -10.687,-4.688c-3.375,-2 -6.188,-4.562 -8.438,-7.687c-2.125,-3.25 -3.187,-7.313 -3.187,-12.188c-0,-5.874 1.562,-10.937 4.687,-15.187c3.125,-4.375 7.5,-7.813 13.125,-10.313c5.75,-2.499 12.375,-3.749 19.875,-3.749c8.875,-0.001 16.375,1.874 22.5,5.624c6.125,3.751 10.563,9.125 13.313,16.126l-21,5.999c-0.75,-1.749 -1.875,-3.187 -3.375,-4.312c-1.5,-1.125 -3.313,-1.938 -5.438,-2.438c-2,-0.499 -4.062,-0.749 -6.187,-0.749c-3.625,-0.001 -6.625,0.749 -9,2.249c-2.375,1.376 -3.563,3.313 -3.563,5.813c0,1.5 0.438,2.75 1.313,3.75c0.875,0.875 2.062,1.625 3.562,2.25c1.625,0.625 3.438,1.188 5.438,1.688c2.125,0.499 4.437,1.062 6.937,1.687c3.875,1 7.75,2.188 11.625,3.563c4,1.25 7.625,2.875 10.875,4.875c3.375,2 6.063,4.687 8.063,8.062c2,3.375 3.125,7.625 3.375,12.75c-0,5.5 -1.563,10.5 -4.688,15c-3.125,4.375 -7.625,7.875 -13.5,10.5c-5.875,2.625 -13,3.938 -21.375,3.938c-9.75,-0 -18.062,-2.063 -24.937,-6.188c-6.75,-4.125 -11.188,-10.563 -13.313,-19.313l21.563,-6.375Z" style="fill:#fff;fill-rule:nonzero;"/><path d="M25.36,251.553l-2.396,-0l-13.712,39.072l-9.252,0l16.707,-46.594l14.844,0l16.707,46.594l-9.252,0l-13.646,-39.072Zm-15.242,20.834l27.157,-0l0,7.521l-27.158,0l0.001,-7.521Zm63.452,-28.356c4.97,0 9.275,0.976 12.913,2.929c3.684,1.908 6.546,4.615 8.587,8.121c2.041,3.505 3.062,7.632 3.062,12.38c-0,4.704 -1.021,8.786 -3.062,12.248c-2.041,3.461 -4.903,6.146 -8.587,8.054c-3.638,1.908 -7.943,2.862 -12.913,2.862l-17.373,0l0.001,-46.594l17.372,0Zm-0.266,39.072c5.014,0 8.875,-1.375 11.582,-4.126c2.707,-2.796 4.06,-6.635 4.06,-11.516c0,-4.925 -1.353,-8.808 -4.06,-11.648c-2.707,-2.84 -6.568,-4.26 -11.582,-4.26l-8.121,-0l0,31.55l8.121,0Zm55.941,-31.55l-2.397,-0l-13.711,39.072l-9.253,0l16.708,-46.594l14.843,0l16.707,46.594l-9.252,0l-13.645,-39.072Zm-15.243,20.834l27.157,-0l0,7.521l-27.157,0l-0,-7.521Zm64.984,-7.056c1.775,0 3.239,-0.266 4.393,-0.798c1.153,-0.577 1.997,-1.376 2.529,-2.397c0.577,-1.065 0.865,-2.307 0.865,-3.727c0,-2.175 -0.643,-3.861 -1.93,-5.059c-1.242,-1.198 -3.195,-1.797 -5.857,-1.797l-9.918,-0l-0,13.778l9.918,0Zm16.973,-6.922c0,1.73 -0.311,3.461 -0.932,5.192c-0.621,1.686 -1.597,3.239 -2.929,4.659c-1.331,1.376 -3.061,2.485 -5.191,3.328c-2.086,0.843 -4.638,1.265 -7.655,1.265l-10.184,-0l-0,17.772l-8.986,0l-0,-46.594l19.17,0c3.772,0 6.878,0.666 9.319,1.997c2.485,1.287 4.326,3.04 5.524,5.259c1.243,2.174 1.864,4.548 1.864,7.122Zm7.563,-14.378l37.741,0l0,7.522l-14.377,-0l-0,39.072l-8.986,-0l-0,-39.072l-14.378,-0l0,-7.522Zm47.444,0l8.986,0l-0,46.594l-8.986,-0l-0,-46.594Zm53.481,0l9.587,0l-17.108,46.594l-10.85,-0l-17.04,-46.594l9.585,0l12.913,37.408l12.913,-37.408Zm51.365,7.522l-23.762,-0l-0,11.848l17.772,-0l-0,7.255l-17.772,0l-0,12.447l23.762,0l0,7.522l-32.75,-0l0,-46.594l32.75,0l0,7.522Zm41.381,-7.522l0,39.072l20.7,0l0,7.522l-29.687,-0l-0,-46.594l8.987,0Zm62.51,7.522l-23.763,-0l0,11.848l17.772,-0l0,7.255l-17.772,0l0,12.447l23.763,0l-0,7.522l-32.75,-0l-0,-46.594l32.75,0l-0,7.522Zm32.044,-0l-2.397,-0l-13.713,39.072l-9.253,-0l16.709,-46.594l14.841,0l16.709,46.594l-9.253,-0l-13.643,-39.072Zm-15.244,20.834l27.156,-0l0,7.521l-27.156,0l-0,-7.521Zm72.772,-13.978c-0,-2.086 -0.644,-3.75 -1.932,-4.992c-1.243,-1.243 -3.193,-1.864 -5.856,-1.864l-9.919,-0l0,13.778l9.919,0c1.775,0 3.238,-0.266 4.391,-0.799c1.156,-0.576 1.997,-1.375 2.531,-2.396c0.575,-1.065 0.866,-2.307 0.866,-3.727Zm-7.522,-14.378c3.772,0 6.878,0.666 9.319,1.997c2.484,1.287 4.325,3.04 5.525,5.259c1.24,2.174 1.862,4.548 1.862,7.122c0,1.73 -0.309,3.461 -0.931,5.192c-0.622,1.686 -1.597,3.239 -2.928,4.659c-1.332,1.376 -3.063,2.485 -5.194,3.328c-2.084,0.843 -4.638,1.265 -7.653,1.265l-10.185,-0l0,17.772l-8.987,-0l-0,-46.594l19.172,0Zm5.059,25.826l12.578,20.768l-10.05,-0l-12.047,-20.768l9.519,0Zm60.988,-25.826l-0,46.594l-9.119,-0l-20.434,-32.349l-0,32.349l-8.988,-0l0,-46.594l9.119,0l20.434,32.35l0,-32.35l8.988,0Zm12.037,0l8.985,0l-0,46.594l-8.985,-0l0,-46.594Zm59.606,0l0,46.594l-9.121,-0l-20.435,-32.349l0,32.349l-8.984,-0l-0,-46.594l9.119,0l20.434,32.35l-0,-32.35l8.987,0Zm46.45,14.777c-1.465,-2.707 -3.306,-4.637 -5.525,-5.791c-2.218,-1.198 -4.615,-1.797 -7.19,-1.797c-2.794,-0 -5.303,0.688 -7.522,2.063c-2.219,1.376 -3.994,3.284 -5.325,5.725c-1.284,2.396 -1.928,5.169 -1.928,8.32c-0,3.195 0.619,6.013 1.862,8.454c1.288,2.396 3.041,4.282 5.26,5.657c2.262,1.332 4.837,1.997 7.722,1.997c1.906,0 3.681,-0.333 5.325,-0.998c1.684,-0.666 3.171,-1.576 4.459,-2.729c1.284,-1.154 2.306,-2.507 3.059,-4.061l0,-3.86l-12.712,-0l-0,-7.189l21.5,0l-0,12.181c-1.066,2.574 -2.641,4.97 -4.725,7.189c-2.088,2.174 -4.594,3.905 -7.522,5.192c-2.884,1.286 -6.103,1.93 -9.653,1.93c-3.416,-0 -6.566,-0.577 -9.45,-1.731c-2.841,-1.153 -5.347,-2.773 -7.522,-4.859c-2.131,-2.13 -3.794,-4.637 -4.994,-7.521c-1.153,-2.929 -1.728,-6.146 -1.728,-9.652c0,-3.461 0.575,-6.634 1.728,-9.518c1.2,-2.929 2.863,-5.458 4.994,-7.588c2.128,-2.13 4.637,-3.772 7.522,-4.926c2.884,-1.154 6.012,-1.731 9.384,-1.731c3.106,0 6.035,0.511 8.788,1.531c2.793,0.976 5.256,2.419 7.387,4.327c2.175,1.864 3.838,4.149 4.991,6.856l-8.185,2.529Zm47.329,18.638c0.221,1.242 0.709,2.329 1.462,3.261c0.756,0.932 1.731,1.664 2.931,2.197c1.241,0.488 2.663,0.732 4.26,0.732c2.618,-0 4.568,-0.577 5.856,-1.731c1.287,-1.198 1.931,-2.64 1.931,-4.326c0,-1.332 -0.4,-2.441 -1.2,-3.328c-0.797,-0.888 -1.928,-1.642 -3.394,-2.264c-1.418,-0.621 -3.084,-1.22 -4.99,-1.797c-1.775,-0.532 -3.55,-1.109 -5.325,-1.73c-1.731,-0.622 -3.306,-1.398 -4.728,-2.33c-1.375,-0.932 -2.485,-2.13 -3.328,-3.594c-0.797,-1.509 -1.197,-3.395 -1.197,-5.658c-0,-2.84 0.687,-5.259 2.062,-7.256c1.422,-1.996 3.35,-3.505 5.791,-4.526c2.44,-1.02 5.259,-1.531 8.453,-1.531c2.709,0 5.15,0.4 7.322,1.198c2.175,0.755 3.994,1.886 5.459,3.395c1.51,1.464 2.619,3.284 3.328,5.458l-8.318,2.263c-0.222,-0.976 -0.713,-1.819 -1.466,-2.529c-0.753,-0.71 -1.688,-1.265 -2.797,-1.664c-1.062,-0.444 -2.197,-0.666 -3.394,-0.666c-1.331,-0.044 -2.55,0.156 -3.659,0.599c-1.109,0.444 -1.997,1.088 -2.663,1.931c-0.665,0.843 -1,1.819 -1,2.928c0,1.243 0.379,2.241 1.132,2.996c0.756,0.71 1.753,1.331 2.997,1.863c1.24,0.489 2.64,0.977 4.193,1.465c1.819,0.532 3.66,1.154 5.522,1.864c1.91,0.665 3.641,1.531 5.194,2.596c1.553,1.02 2.794,2.329 3.728,3.927c0.975,1.597 1.463,3.616 1.463,6.057c-0,2.574 -0.622,4.903 -1.863,6.989c-1.2,2.086 -3.019,3.75 -5.459,4.992c-2.441,1.243 -5.503,1.864 -9.185,1.864c-3.018,-0 -5.768,-0.444 -8.253,-1.331c-2.44,-0.888 -4.459,-2.175 -6.059,-3.861c-1.597,-1.731 -2.641,-3.772 -3.128,-6.124l8.322,-2.329Zm66.55,-33.415l10.115,0l-17.437,30.22l-0,16.374l-8.988,-0l0,-16.308l-17.437,-30.286l10.05,0l11.847,21.633l11.85,-21.633Zm25.696,33.415c0.222,1.242 0.713,2.329 1.466,3.261c0.753,0.932 1.731,1.664 2.928,2.197c1.244,0.488 2.663,0.732 4.26,0.732c2.618,-0 4.571,-0.577 5.859,-1.731c1.287,-1.198 1.928,-2.64 1.928,-4.326c0,-1.332 -0.397,-2.441 -1.197,-3.328c-0.8,-0.888 -1.931,-1.642 -3.394,-2.264c-1.421,-0.621 -3.084,-1.22 -4.993,-1.797c-1.775,-0.532 -3.55,-1.109 -5.325,-1.73c-1.732,-0.622 -3.307,-1.398 -4.725,-2.33c-1.375,-0.932 -2.485,-2.13 -3.328,-3.594c-0.8,-1.509 -1.197,-3.395 -1.197,-5.658c-0,-2.84 0.687,-5.259 2.062,-7.256c1.419,-1.996 3.35,-3.505 5.791,-4.526c2.44,-1.02 5.259,-1.531 8.453,-1.531c2.706,0 5.147,0.4 7.322,1.198c2.175,0.755 3.994,1.886 5.459,3.395c1.506,1.464 2.616,3.284 3.328,5.458l-8.322,2.263c-0.221,-0.976 -0.709,-1.819 -1.462,-2.529c-0.756,-0.71 -1.688,-1.265 -2.797,-1.664c-1.066,-0.444 -2.197,-0.666 -3.394,-0.666c-1.331,-0.044 -2.553,0.156 -3.662,0.599c-1.11,0.444 -1.997,1.088 -2.663,1.931c-0.665,0.843 -0.997,1.819 -0.997,2.928c0,1.243 0.375,2.241 1.132,2.996c0.753,0.71 1.753,1.331 2.993,1.863c1.244,0.489 2.641,0.977 4.194,1.465c1.819,0.532 3.663,1.154 5.525,1.864c1.91,0.665 3.638,1.531 5.191,2.596c1.553,1.02 2.797,2.329 3.728,3.927c0.978,1.597 1.466,3.616 1.466,6.057c-0,2.574 -0.622,4.903 -1.866,6.989c-1.197,2.086 -3.016,3.75 -5.456,4.992c-2.441,1.243 -5.503,1.864 -9.188,1.864c-3.015,-0 -5.769,-0.444 -8.253,-1.331c-2.441,-0.888 -4.459,-2.175 -6.056,-3.861c-1.597,-1.731 -2.641,-3.772 -3.128,-6.124l8.318,-2.329Zm33.604,-33.415l37.74,0l0,7.522l-14.378,-0l0,39.072l-8.984,-0l-0,-39.072l-14.378,-0l-0,-7.522Zm80.193,7.522l-23.765,-0l-0,11.848l17.775,-0l-0,7.255l-17.775,0l-0,12.447l23.765,0l0,7.522l-32.75,-0l0,-46.594l32.75,0l0,7.522Zm19.728,39.072l-8.987,-0l-0,-46.594l10.25,0l14.844,34.879l14.843,-34.879l10.25,0l0,46.594l-8.984,-0l0,-30.086l-12.581,30.086l-7.056,-0l-12.579,-30.086l0,30.086Z" style="fill:#fff;fill-opacity:0.8;fill-rule:nonzero;"/><path d="M1119.55,0l-91.891,0l0,21.762l68.988,0l-0,70.047l22.903,-0l-0,-91.809Z" style="fill:#fbba00;fill-rule:nonzero;"/></svg>