<?xml version="1.0" encoding="UTF-8" standalone="no"?>
<!-- Created with Inkscape (http://www.inkscape.org/) -->

<svg
   width="284.12173"
   height="385.13339"
   viewBox="0 0 75.173876 101.89988"
   version="1.1"
   id="svg5"
   xml:space="preserve"
   inkscape:export-filename="collabora-symbol-white.png"
   inkscape:export-xdpi="88.055756"
   inkscape:export-ydpi="88.055756"
   xmlns:inkscape="http://www.inkscape.org/namespaces/inkscape"
   xmlns:sodipodi="http://sodipodi.sourceforge.net/DTD/sodipodi-0.dtd"
   xmlns="http://www.w3.org/2000/svg"
   xmlns:svg="http://www.w3.org/2000/svg"><sodipodi:namedview
     id="namedview7"
     pagecolor="#ffffff"
     bordercolor="#666666"
     borderopacity="1.0"
     inkscape:showpageshadow="2"
     inkscape:pageopacity="0.0"
     inkscape:pagecheckerboard="0"
     inkscape:deskcolor="#d1d1d1"
     inkscape:document-units="mm"
     showgrid="false" /><defs
     id="defs2" /><g
     inkscape:label="Layer 1"
     inkscape:groupmode="layer"
     id="layer1"
     transform="translate(-47.98193,-19.554747)"><g
       inkscape:label="Collabora"
       style="display:inline;stroke-width:0.883322"
       transform="matrix(2.3991293,0,0,2.3991293,15.621676,-10.123442)"
       id="Collabora"><g
   inkscape:label="Logo"
   style="font-size:28.0163px;line-height:1.25;font-family:'Segoe UI';-inkscape-font-specification:'Segoe UI';letter-spacing:0px;word-spacing:0px;display:inline;fill:#ffffff;fill-opacity:1;stroke:none;stroke-width:1.26897"
   transform="matrix(0.69833864,0,0,0.69385158,12.02261,10.973709)"
   id="Logo"><path
     inkscape:connector-curvature="0"
     id="path864-6"
     d="M 2.0988724,16.566254 3.1191844,15.539343 20.091471,32.621383 3.1191844,49.703423 2.0988724,48.674025 18.050844,32.621383 Z"
     style="fill:#ffffff;stroke:none;stroke-width:1.26898px;stroke-linecap:butt;stroke-linejoin:miter;stroke-opacity:1" /><path
     inkscape:connector-curvature="0"
     id="path866-3"
     style="fill:#c8c8c8;fill-opacity:1;stroke:none;stroke-width:0.999999px;stroke-linecap:butt;stroke-linejoin:miter;stroke-opacity:1"
     d="M -49.050781,19.441406 V 44.662109 L -36.439453,32.052734 Z"
     transform="matrix(1.2648923,0,0,1.273072,64.142828,-8.1840554)" /><path
     inkscape:connector-curvature="0"
     id="path868-5"
     style="fill:#5c2983;fill-opacity:1;stroke:none;stroke-width:6.00001;stroke-linejoin:round;paint-order:stroke fill markers"
     d="M -37.621094,8.0097656 -48.244141,18.634766 -34.826172,32.052734 -48.244141,45.470703 -37.621094,56.09375 -13.578125,32.052734 Z"
     transform="matrix(1.2648923,0,0,1.273072,64.142828,-8.1840554)"
     sodipodi:nodetypes="ccccccc" /><path
     inkscape:connector-curvature="0"
     id="path870-0"
     style="fill:#2d0b47;fill-opacity:1;stroke:none;stroke-width:1.68107"
     d="m -38.115234,35.341797 -8.873675,8.865852 13.090471,-2.88929 z"
     transform="matrix(1.2648923,0,0,1.273072,64.142828,-8.1840554)"
     sodipodi:nodetypes="cccc" /></g>
<path
   inkscape:label="guides-right-x"
   inkscape:connector-curvature="0"
   id="guides-right-x"
   style="font-style:normal;font-variant:normal;font-weight:normal;font-stretch:normal;font-size:25.0182px;line-height:1.25;font-family:Montserrat;-inkscape-font-specification:Montserrat;letter-spacing:0px;word-spacing:0px;display:none;fill:#ffffff;fill-opacity:1;stroke-width:0.883322"
   d="m 188.87094,28.98456 3.19386,4.90285 3.30592,-4.90285 h 3.72616 l -5.21103,7.284231 5.43516,7.620425 h -3.86625 l -3.55806,-4.958879 -3.47402,4.958879 h -3.67013 l 5.29507,-7.592407 -5.01491,-7.312249 z" /><path
   inkscape:label="guides-bottom-x"
   d="m 17.606724,54.84409 3.19386,4.90285 3.30592,-4.90285 h 3.72616 l -5.21103,7.284231 5.43516,7.620425 h -3.86625 l -3.55806,-4.958879 -3.47402,4.958879 h -3.67013 l 5.29507,-7.592407 -5.01491,-7.312249 z"
   style="font-style:normal;font-variant:normal;font-weight:normal;font-stretch:normal;font-size:25.0182px;line-height:1.25;font-family:Montserrat;-inkscape-font-specification:Montserrat;letter-spacing:0px;word-spacing:0px;display:none;fill:#ffffff;fill-opacity:1;stroke-width:0.883322"
   id="guides-bottom-x"
   inkscape:connector-curvature="0" /><path
   inkscape:label="guides-top-x"
   inkscape:connector-curvature="0"
   id="guides-top-x"
   style="font-style:normal;font-variant:normal;font-weight:normal;font-stretch:normal;font-size:25.0182px;line-height:1.25;font-family:Montserrat;-inkscape-font-specification:Montserrat;letter-spacing:0px;word-spacing:0px;display:none;fill:#ffffff;fill-opacity:1;stroke-width:0.883322"
   d="m 17.606724,-2.5342603 3.19386,4.90285 3.30592,-4.90285 h 3.72616 l -5.21103,7.284231 5.43516,7.6204253 h -3.86625 l -3.55806,-4.9588793 -3.47402,4.9588793 h -3.67013 l 5.29507,-7.5924073 -5.01491,-7.312249 z" /><path
   inkscape:label="guides-left-x"
   inkscape:connector-curvature="0"
   id="guides-left-x"
   style="font-style:normal;font-variant:normal;font-weight:normal;font-stretch:normal;font-size:25.0182px;line-height:1.25;font-family:Montserrat;-inkscape-font-specification:Montserrat;letter-spacing:0px;word-spacing:0px;display:none;fill:#ffffff;fill-opacity:1;stroke-width:0.883322"
   d="m 3.0382639,28.98456 3.19386,4.90285 3.30592,-4.90285 h 3.7261601 l -5.2110301,7.284231 5.4351601,7.620425 H 9.6220839 l -3.55806,-4.958879 -3.47402,4.958879 h -3.67013 l 5.29507,-7.592407 -5.01490996,-7.312249 z" /></g></g></svg>
