<?xml version="1.0" encoding="UTF-8"?><svg id="Ebene_1" xmlns="http://www.w3.org/2000/svg" viewBox="0 0 449.23476 197.94812"><defs><style>.cls-1{fill:none;stroke:#72c02c;stroke-linecap:round;stroke-linejoin:round;stroke-width:2.5px;}.cls-2{fill:#72c02c;stroke-width:0px;}</style></defs><path class="cls-2" d="m203.06247,119.7948v-25.53721c0-17.49141,8.27926-28.45355,27.63645-28.45355h26.82029c18.19179,0,26.58778,9.09637,27.52066,24.722.11673,1.98251-.93289,3.03212-2.79866,3.03212h-10.49522c-1.86578,0-2.79866-1.04962-2.91539-2.91539-.69943-7.57983-4.08079-9.32888-11.31138-9.32888h-26.82029c-8.0458,0-11.42811,2.21502-11.42811,12.36005v26.70451c0,10.02831,3.61482,12.24427,11.42811,12.24427h26.82029c7.81329,0,11.42811-2.21596,11.42811-12.24427v-3.96501h-20.05661c-1.86578,0-2.91539-1.04962-2.91539-2.91539v-8.39599c0-1.86578,1.04962-2.91539,2.91539-2.91539h33.3505c1.86578,0,2.91539,1.04962,2.91539,2.91539v14.69275c0,17.37563-8.27926,28.33682-27.63739,28.33682h-26.82029c-19.35718,0-27.63645-10.96119-27.63645-28.33682Z"/><path class="cls-2" d="m320.14321,145.21623v-63.78656h-25.18797c-1.86578,0-2.91539-1.04867-2.91539-2.91444v-9.7958c0-1.86578,1.04962-2.91539,2.91539-2.91539h66.58427c1.86578,0,2.91539,1.04962,2.91539,2.91539v9.7958c0,1.86578-1.04962,2.91444-2.91539,2.91444h-25.18797v63.78656c0,1.86578-1.04867,2.91539-2.91444,2.91539h-10.3785c-1.86578,0-2.91539-1.04962-2.91539-2.91539Z"/><path class="cls-2" d="m370.75546,123.41057c-.11673-1.98251.93289-3.03212,2.79866-3.03212h10.3785c1.86578,0,2.79866,1.04962,2.91539,2.91539.69943,6.76272,3.84828,9.32888,11.42811,9.32888h22.85528c8.86291,0,12.01176-2.21596,12.01176-8.97964,0-6.53021-3.03212-8.27926-10.84541-8.86196l-26.00413-1.98251c-17.95833-1.39981-25.07124-7.22964-25.07124-22.62277,0-15.74236,7.57983-24.37181,27.8699-24.37181h21.33969c18.4243,0,26.70356,8.27926,27.52066,24.722.11673,1.98251-.93289,3.03212-2.79866,3.03212h-10.49522c-1.86578,0-2.79866-1.04962-2.91539-2.91539-.69943-6.76367-3.84828-9.32888-11.31138-9.32888h-21.10623c-8.97964,0-12.12754,2.09829-12.12754,8.97869,0,6.41348,3.03212,8.0458,10.84446,8.62945l26.00413,1.98251c17.72487,1.39886,25.18797,7.57983,25.18797,22.85528,0,15.74236-7.57983,24.37181-27.98663,24.37181h-22.97201c-18.54103,0-26.70356-8.27926-27.52066-24.72105Z"/><path class="cls-2" d="m10.75472,188.28138c0-.57569.31006-.8867.8867-.8867h2.57219c.57664,0,.8867.31101.8867.8867.2212,4.12439,1.7734,5.45444,6.16342,5.45444h8.46903c4.83337,0,6.47348-1.10885,6.47348-4.70008,0-3.41446-1.64011-4.16787-5.85241-4.47888l-9.71117-.79784c-6.82797-.53221-9.6658-2.4389-9.6658-8.24783,0-5.89684,2.74896-8.86795,10.77464-8.86795h7.80353c7.40556,0,10.24338,3.01554,10.50901,9.66674,0,.57664-.31006.8867-.8867.8867h-2.57219c-.57569,0-.8867-.31006-.8867-.8867-.2212-4.12439-1.7734-5.45444-6.16342-5.45444h-7.75911c-4.92223,0-6.51886,1.06442-6.51886,4.70008,0,3.37003,1.59663,4.03553,5.80893,4.39002l9.71117.75341c6.78355.53221,9.71023,2.57219,9.71023,8.33669,0,5.94127-2.74896,8.91238-10.77464,8.91238h-8.46903c-7.40461,0-10.24243-3.01554-10.50901-9.66674Z"/><path class="cls-2" d="m44.58075,187.17348v-9.71117c0-6.91683,2.88225-10.81907,10.50901-10.81907h9.88794c7.62676,0,10.50901,3.90224,10.50901,10.81907v.35544c0,.57569-.31006.8867-.8867.8867h-2.57219c-.57664,0-.8867-.26658-.8867-.70993v-.66455c0-5.05552-1.68454-6.47443-6.16342-6.47443h-9.88794c-4.47793,0-6.16342,1.41891-6.16342,6.47443v9.9768c0,5.01014,1.72897,6.42905,6.16342,6.42905h9.88794c4.43445,0,6.16342-1.41891,6.16342-6.42905v-.97556c0-.57664.31006-.88765.8867-.88765h2.57219c.57664,0,.8867.31101.8867.84322v.8867c0,6.8724-2.88225,10.77464-10.50901,10.77464h-9.88794c-7.62676,0-10.50901-3.90224-10.50901-10.77464Z"/><path class="cls-2" d="m80.04784,197.06142v-29.53149c0-.57569.31006-.8867.8867-.8867h2.57219c.57664,0,.8867.31101.8867.8867v12.46013h20.04246v-12.46013c0-.57569.31006-.8867.8867-.8867h2.61567c.57664,0,.8867.31101.8867.8867v29.53149c0,.57664-.31006.8867-.8867.8867h-2.61567c-.57664,0-.8867-.31006-.8867-.8867v-13.03677h-20.04246v13.03677c0,.57664-.31006.8867-.8867.8867h-2.57219c-.57664,0-.8867-.31006-.8867-.8867Z"/><path class="cls-2" d="m114.58475,187.17348v-19.64354c0-.57569.31006-.8867.8867-.8867h2.57124c.57664,0,.88765.31101.88765.8867v19.77683c0,5.01014,1.72897,6.42905,6.16342,6.42905h9.57694c4.43445,0,6.11899-1.41891,6.11899-6.42905v-19.77683c0-.57569.31101-.8867.8867-.8867h2.61662c.57664,0,.8867.31101.8867.8867v19.64354c0,6.8724-2.92668,10.77464-10.50901,10.77464h-9.57694c-7.62676,0-10.50901-3.90224-10.50901-10.77464Z"/><path class="cls-2" d="m150.93759,197.06142v-29.53149c0-.57569.31006-.8867.8867-.8867h2.57219c.57664,0,.8867.31101.8867.8867v26.20589h20.17481c.57664,0,.8867.31006.8867.8867v2.4389c0,.57664-.31006.8867-.8867.8867h-23.6337c-.57664,0-.8867-.31006-.8867-.8867Z"/><path class="cls-2" d="m178.20317,188.28138c0-.57569.31006-.8867.8867-.8867h2.57219c.57664,0,.8867.31101.8867.8867.2212,4.12439,1.7734,5.45444,6.16342,5.45444h8.46903c4.83337,0,6.47348-1.10885,6.47348-4.70008,0-3.41446-1.64011-4.16787-5.85241-4.47888l-9.71117-.79784c-6.82797-.53221-9.6658-2.4389-9.6658-8.24783,0-5.89684,2.74896-8.86795,10.77464-8.86795h7.80353c7.40556,0,10.24338,3.01554,10.50901,9.66674,0,.57664-.31006.8867-.8867.8867h-2.57219c-.57569,0-.8867-.31006-.8867-.8867-.2212-4.12439-1.7734-5.45444-6.16342-5.45444h-7.75911c-4.92223,0-6.51886,1.06442-6.51886,4.70008,0,3.37003,1.59663,4.03553,5.80893,4.39002l9.71117.75341c6.78355.53221,9.71023,2.57219,9.71023,8.33669,0,5.94127-2.74896,8.91238-10.77464,8.91238h-8.46903c-7.40461,0-10.24243-3.01554-10.50901-9.66674Z"/><path class="cls-2" d="m212.03015,187.17348v-9.71117c0-6.91683,2.88225-10.81907,10.50901-10.81907h11.13008c7.62582,0,10.50807,3.90224,10.50807,10.81907v9.71117c0,6.8724-2.88225,10.77464-10.50807,10.77464h-11.13008c-7.62676,0-10.50901-3.90224-10.50901-10.77464Zm21.63909,6.56234c4.47793,0,6.16342-1.41891,6.16342-6.42905v-9.9768c0-5.05552-1.64106-6.47443-6.16342-6.47443h-11.13008c-4.47793,0-6.16342,1.41891-6.16342,6.47443v9.9768c0,5.01014,1.72897,6.42905,6.16342,6.42905h11.13008Z"/><path class="cls-2" d="m249.18178,197.06142v-29.53149c0-.57569.31006-.8867.8867-.8867h23.98913c.57569,0,.8867.31101.8867.8867v2.4389c0,.57664-.31101.8867-.8867.8867h-20.53024v9.0901h13.92253c.57664,0,.88765.31006.88765.8867v2.30561c0,.57664-.31101.8867-.88765.8867h-13.92253v13.03677c0,.57664-.31006.8867-.8867.8867h-2.57219c-.57664,0-.8867-.31006-.8867-.8867Z"/><path class="cls-2" d="m288.59649,197.06142v-26.20589h-10.68579c-.57664,0-.88765-.31006-.88765-.8867v-2.4389c0-.57569.31101-.8867.88765-.8867h25.76159c.57664,0,.8867.31101.8867.8867v2.4389c0,.57664-.31006.8867-.8867.8867h-10.68579v26.20589c0,.57664-.31101.8867-.8867.8867h-2.61662c-.57664,0-.8867-.31006-.8867-.8867Z"/><path class="cls-2" d="m315.28448,197.23819l-10.06566-29.57497c-.2212-.62107.08886-1.01999.70993-1.01999h2.79339c.48778,0,.79784.17772.97556.70993l8.07011,24.7416,8.1136-24.7416c.17772-.53221.48778-.70993.97556-.70993h3.01554c.48778,0,.79784.17772.97556.70993l8.07011,24.7416,8.11454-24.7416c.17677-.53221.48778-.70993.97556-.70993h2.74896c.62107,0,.93113.39892.70898,1.01999l-10.06472,29.57497c-.17772.48778-.53221.70993-1.01999.70993h-2.97111c-.48778,0-.79784-.17772-.97556-.70993l-8.07011-24.5204-8.11454,24.5204c-.17677.53221-.48778.70993-.97556.70993h-2.97016c-.48778,0-.84227-.22215-1.01999-.70993Z"/><path class="cls-2" d="m380.63661,197.28262l-2.66105-5.27578h-20.75145l-2.70453,5.32021c-.22215.44335-.53221.62107-1.01999.62107h-2.97111c-.66455,0-.97461-.44335-.66455-1.06442l15.16466-29.6194c.2212-.44335.53221-.62107,1.01999-.62107h3.10345c.48778,0,.79784.17772,1.01999.62107l15.12024,29.6194c.31006.62107,0,1.06442-.6655,1.06442h-2.97016c-.48778,0-.79879-.22215-1.01999-.6655Zm-4.52331-9.00124l-8.46903-16.93807-8.55789,16.93807h17.02693Z"/><path class="cls-2" d="m410.87141,188.19347l6.07456,8.69024c.39892.57664.13329,1.06442-.57664,1.06442h-3.05902c-.44335,0-.79784-.17772-1.06442-.57664l-5.94127-8.73467h-13.34683v8.4246c0,.57664-.31006.8867-.8867.8867h-2.57219c-.57664,0-.8867-.31006-.8867-.8867v-29.53149c0-.57569.31006-.8867.8867-.8867h16.05137c9.31225,0,12.4157,3.41446,12.4157,10.81907v.53221c0,5.67564-1.7734,9.0901-7.09455,10.19895Zm2.70453-10.68673c0-5.45349-2.03903-6.6512-8.29131-6.6512h-12.32684v13.61341h12.32684c6.20785,0,8.29131-1.15328,8.29131-6.51886v-.44335Z"/><path class="cls-2" d="m422.61688,197.06142v-29.53149c0-.57569.31006-.8867.8867-.8867h24.69812c.57664,0,.8867.31101.8867.8867v2.4389c0,.57664-.31006.8867-.8867.8867h-21.23923v9.0901h14.45474c.57664,0,.8867.31006.8867.8867v2.30561c0,.57664-.31006.8867-.8867.8867h-14.45474v9.71117h21.23923c.57664,0,.8867.31006.8867.8867v2.4389c0,.57664-.31006.8867-.8867.8867h-24.69812c-.57664,0-.8867-.31006-.8867-.8867Z"/><path class="cls-1" d="m13.37588,145.52776v-53.01884c0-31.52876,25.55911-57.08788,57.08788-57.08788h24.61857"/><path class="cls-1" d="m26.42045,56.22415c-7.24041,5.63003-16.11892,8.70932-25.17045,8.81736"/><path class="cls-1" d="m209.34866,33.93137s-20.43031,4.10491-20.79191,21.69996c-.11539,5.61477-.05131,8.79182-.38414,12.88579-1.57602,19.38582-8.57488,33.61884-32.80404,33.61884h-24.78281c-15.2138,0-27.54702-10.76986-27.54702-24.05514V21.45632c0-11.15964,10.35991-20.20632,23.1395-20.20632h12.29994c12.77959,0,23.1395,9.04668,23.1395,20.20632v30.23666"/><path class="cls-1" d="m50.69736,145.52777v-12.14746c0-10.66551,8.6461-19.31161,19.31161-19.31161h15.61654c10.66551,0,19.31161,8.6461,19.31161,19.31161v12.14745"/><line class="cls-1" x1="142.09136" y1="145.79896" x2="142.09136" y2="112.44151"/></svg>