<?xml version="1.0" encoding="UTF-8" standalone="no"?>
<!-- Generator: Adobe Illustrator 14.0.0, SVG Export Plug-In . SVG Version: 6.00 Build 43363)  -->

<svg
   xmlns:dc="http://purl.org/dc/elements/1.1/"
   xmlns:cc="http://creativecommons.org/ns#"
   xmlns:rdf="http://www.w3.org/1999/02/22-rdf-syntax-ns#"
   xmlns:svg="http://www.w3.org/2000/svg"
   xmlns="http://www.w3.org/2000/svg"
   xmlns:sodipodi="http://sodipodi.sourceforge.net/DTD/sodipodi-0.dtd"
   xmlns:inkscape="http://www.inkscape.org/namespaces/inkscape"
   version="1.1"
   id="Ebene_1"
   x="0px"
   y="0px"
   width="131.89815"
   height="110"
   viewBox="0 0 131.89815 110"
   enable-background="new 0 0 612 792"
   xml:space="preserve"
   inkscape:version="0.91 r13725"
   sodipodi:docname="Logo Benno MailArchiv.svg"><metadata
     id="metadata2994"><rdf:RDF><cc:Work
         rdf:about=""><dc:format>image/svg+xml</dc:format><dc:type
           rdf:resource="http://purl.org/dc/dcmitype/StillImage" /><dc:title></dc:title></cc:Work></rdf:RDF></metadata><defs
     id="defs2992"><inkscape:perspective
       sodipodi:type="inkscape:persp3d"
       inkscape:vp_x="0 : 396 : 1"
       inkscape:vp_y="0 : 1000 : 0"
       inkscape:vp_z="612.00001 : 396 : 1"
       inkscape:persp3d-origin="306.00001 : 264 : 1"
       id="perspective2996" /></defs><sodipodi:namedview
     pagecolor="#ffffff"
     bordercolor="#666666"
     borderopacity="1"
     objecttolerance="10"
     gridtolerance="10"
     guidetolerance="10"
     inkscape:pageopacity="0"
     inkscape:pageshadow="2"
     inkscape:window-width="1680"
     inkscape:window-height="983"
     id="namedview2990"
     showgrid="false"
     inkscape:zoom="1.1919192"
     inkscape:cx="-3.374978"
     inkscape:cy="-23.851536"
     inkscape:window-x="-6"
     inkscape:window-y="0"
     inkscape:window-maximized="1"
     inkscape:current-layer="Ebene_1"
     fit-margin-top="10"
     fit-margin-left="5"
     fit-margin-right="5"
     fit-margin-bottom="5" /><g
     id="g4134"
     transform="matrix(0.25967546,0,0,0.25967546,-13.50182,-39.987526)"><path
       style="fill:#fdfdfd"
       d="m 71.25,375.6808 0,-183.1808 234.7126,0 234.71218,0 0,183.1808 0,181.1808 -234.71218,0 -234.712819,0 z"
       id="path4142"
       inkscape:connector-curvature="0"
       sodipodi:nodetypes="ccccccccc" /><path
       style="fill:#c6c6cb"
       d="m 240.76522,475.98527 28.67518,-7.35551 c 24.20059,-6.20773 30.49256,-7.6178 44.695,-11.37974 3.44151,-0.91159 13.84268,-3.65092 23.1137,-6.08739 l 16.8564,-4.42995 31.6696,-10.78283 31.6696,-10.78282 9.4498,-2.12323 c 5.19739,-1.16778 23.12647,-5.20787 39.8424,-8.97798 16.71593,-3.7701 31.86889,-7.18235 33.67326,-7.58276 1.80438,-0.40042 3.43833,-0.84988 3.63103,-0.99881 0.29452,-0.22763 0.25197,-0.95486 -0.26702,-4.56407 -0.56671,-3.94108 -1.48615,-7.40988 -11.20729,-42.2825 -5.82447,-20.89406 -12.10371,-43.49243 -13.95385,-50.2186 -1.85017,-6.72617 -5.08658,-18.43517 -7.19207,-26.02 -2.86411,-10.31778 -15.7176,-57.97541 -18.33379,-67.97725 -0.16261,-0.62171 -0.44296,-1.10585 -0.64031,-1.10585 -0.19308,0 -1.59653,1.32917 -3.11882,2.95371 -1.52226,1.62454 -6.56043,6.64305 -11.19594,11.15223 -4.63551,4.50918 -15.21484,15.03537 -23.50965,23.39154 -15.22766,15.34031 -31.25817,31.00132 -31.87581,31.14109 -0.1844,0.0417 -2.62405,-0.57929 -5.4215,-1.38004 -6.19136,-1.77225 -7.513,-2.19888 -7.51098,-2.42459 0,-0.0958 1.29383,-1.81654 2.87325,-3.82381 3.15567,-4.01046 5.45805,-6.30288 26.7519,-26.63613 6.95308,-6.63943 18.91681,-18.37026 26.58604,-26.0685 13.9371,-13.98984 13.94647,-13.99997 18.80778,-20.32321 2.67506,-3.47951 5.07746,-6.51433 5.33865,-6.74403 0.2612,-0.2297 1.07123,-0.75291 1.80006,-1.16267 l 1.32515,-0.74504 2.63355,0.87152 c 4.31251,1.42714 5.29835,2.78839 8.1643,11.27328 1.4653,4.33814 2.10125,6.8146 3.68409,14.34626 1.05217,5.00667 2.42045,10.92622 3.04059,13.15456 0.62014,2.22834 4.75611,17.22415 9.19105,33.32403 4.43495,16.09987 8.34326,30.20922 8.68516,31.3541 0.34188,1.14488 2.0195,7.17501 3.72805,13.4003 1.70855,6.22528 3.26514,11.50355 3.45914,11.72949 0.19397,0.22593 0.35268,0.80529 0.35268,1.28747 0,0.48218 2.58544,9.07907 5.74543,19.10421 l 5.74542,18.22753 3.33405,14.5712 c 3.05622,13.35702 3.43924,15.31922 4.59633,23.5481 0.69425,4.93729 1.26316,9.43554 1.26423,9.99609 0.003,1.21297 -1.20559,3.59781 -3.15074,6.22063 -1.14606,1.54535 -1.58177,1.90772 -3.36002,2.79436 -2.36148,1.17745 -3.78858,1.50289 -26.1785,5.96979 -13.80669,2.7545 -15.3404,3.12093 -35.5006,8.48171 -11.58877,3.08156 -21.98994,5.87425 -23.1137,6.20598 -1.12376,0.33174 -14.45564,4.53029 -29.6264,9.33013 -19.68863,6.22923 -36.42806,11.3049 -58.4866,17.73405 -16.99687,4.95387 -34.54938,10.2296 -34.54938,10.2296 m -195.73937,0.0934 -0.62493,-2.53697 c -0.81603,-2.87334 -8.418996,-36.41382 -8.760492,-38.61116 -0.144566,-0.93022 -1.179401,-8.13125 -2.299631,-16.0023 -2.02364,-14.21865 -7.743999,-51.83555 -8.188834,-53.84951 -0.127883,-0.57898 -1.565044,-6.61447 -3.193691,-13.41219 -3.669842,-15.31737 -8.179071,-38.8765 -7.943481,-41.5019 0.199448,-2.22263 0.588936,-3.41878 1.422835,-4.36961 0.724801,-0.82644 0.736755,-0.82948 3.623687,-0.92245 6.348365,-0.20445 7.626468,0.69277 9.413829,6.60842 1.662096,5.50107 7.592165,34.14294 9.953568,48.07516 0.97458,5.74997 2.12182,12.50356 2.54944,15.00798 0.42761,2.50443 2.09555,14.50615 3.70653,26.6705 2.64098,19.94174 3.0816,22.82076 4.48012,29.2725 0.85308,3.93553 2.18413,10.08275 2.95787,13.6605 0.77374,3.57775 2.49799,11.94969 3.83165,18.6043 1.33366,6.65461 2.72165,13.34189 2.82806,13.45068 m 182.72525,-84.00379 c -1.25126,-0.36675 -20.75722,-10.68308 -20.89599,-11.05149 -0.0644,-0.17109 1.07964,-3.33679 2.54239,-7.03489 2.08842,-5.27987 2.7502,-6.70747 3.08166,-6.64772 0.65489,0.11806 11.59563,5.18539 13.3857,6.19975 0.91494,0.51845 2.11298,0.96336 2.8094,1.04329 l 1.21421,0.13938 5.95755,-7.30701 c 3.27666,-4.01885 6.10756,-7.307 6.29088,-7.307 0.18333,0 1.39987,0.96006 2.70342,2.13347 1.30355,1.1734 3.40557,2.84345 4.67114,3.71122 1.26559,0.86776 2.34123,1.70057 2.39034,1.85068 0.11984,0.36623 -3.5602,4.63947 -15.22066,17.67413 -4.41763,4.93826 -6.64543,6.933 -7.67473,6.87183 -0.21722,-0.0129 -0.78211,-0.13694 -1.25531,-0.27564 z M 154.1273,322.18211 c -3.09034,-1.06629 -9.64135,-3.15583 -14.5578,-4.64341 -8.12193,-2.45748 -10.01287,-2.92239 -20.6874,-5.08619 -12.65097,-2.56444 -18.61961,-3.93317 -19.731366,-4.5248 -0.885487,-0.47122 -1.926528,-1.60703 -2.459277,-2.68314 -1.043608,-2.10801 0.145996,-8.42995 1.967394,-10.45536 1.430479,-1.5907 4.037089,-2.17783 7.068439,-1.59214 0.73976,0.14293 4.74926,0.72783 8.91001,1.29978 9.75595,1.34108 21.3752,3.67552 28.2524,5.67623 2.94987,0.85818 8.73986,2.80718 12.86665,4.33113 8.73734,3.22653 12.80105,5.21465 12.80105,6.26275 0,0.17364 -1.7285,3.25838 -3.84111,6.85498 -3.21151,5.46739 -3.93365,6.53595 -4.40565,6.51907 -0.3105,-0.0111 -3.093,-0.8926 -6.18334,-1.9589 z m -4.65737,-32.6189 c -2.73561,-1.41899 -3.7266,-3.22932 -4.0322,-7.36604 -0.16224,-2.19623 -0.13799,-2.34838 0.63432,-3.97981 0.47461,-1.00258 1.03257,-1.79304 1.36433,-1.93287 0.30873,-0.13011 8.66388,-1.88324 18.56702,-3.89584 17.93449,-3.64479 18.08397,-3.68044 37.7992,-9.01425 14.76817,-3.99542 25.72663,-7.1702 43.1626,-12.50467 39.87815,-12.20056 51.19792,-15.8315 84.5374,-27.1163 54.29898,-18.37919 68.868,-23.14149 76.4923,-25.00364 3.65222,-0.89202 7.33808,-1.84351 8.19081,-2.11442 3.87602,-1.23143 6.39605,0.11963 7.40151,3.96818 0.88966,3.4054 -0.0745,7.59283 -2.05234,8.9131 -1.29335,0.86336 -3.89643,1.6654 -26.6907,8.22378 -21.41593,6.16179 -25.08108,7.30148 -43.80348,13.62075 -11.2376,3.79296 -21.75369,7.32943 -23.3691,7.85881 -2.78452,0.9125 -14.7261,5.08986 -45.3335,15.85839 -7.44491,2.61932 -17.21396,6.05335 -21.709,7.63118 -6.63512,2.32902 -12.30533,4.02096 -30.1372,8.9927 -12.08042,3.36817 -26.33174,7.41995 -31.6696,9.00395 -5.33786,1.584 -10.19208,2.98961 -10.78715,3.12357 -0.59508,0.13397 -1.45705,0.44419 -1.9155,0.6894 -0.45845,0.24521 -1.41998,0.52933 -2.13673,0.63138 -0.71675,0.10204 -2.26831,0.49023 -3.4479,0.86263 -1.1796,0.37241 -5.82248,1.44405 -10.31752,2.38142 l -8.1728,1.70432 -5.4911,0.14518 -5.4911,0.14518 z"
       id="path4140"
       inkscape:connector-curvature="0"
       sodipodi:nodetypes="cssscccssscsssscsssscscsssscscssssscscsscsscssssssscccsssssssssssssscsscsccsssccscssssssssssssscsssscssssssssssssssscscsscccss" /><path
       style="fill:#de2305"
       d="m 71.249781,516.96947 0,-41.3718 234.712819,-7e-5 234.71218,7e-5 0,41.3718 0,41.3718 -234.71218,-7e-5 -234.712819,7e-5 z m 321.799339,23.27911 c 2.73156,-0.61194 5.49373,-1.55477 7.41148,-2.52982 l 1.6601,-0.84406 0.0686,-6.07936 c 0.0558,-4.94258 0.006,-6.05475 -0.26769,-5.94786 -0.18498,0.0723 -1.36516,0.73306 -2.62262,1.46836 -4.33787,2.53648 -9.62233,3.76504 -13.71041,3.1875 -8.26786,-1.16804 -13.29526,-9.27098 -10.64653,-17.15959 2.64965,-7.89132 12.84953,-11.25789 21.42093,-7.07021 1.18787,0.58035 2.82963,1.46977 3.64837,1.97648 0.81876,0.50671 1.65703,0.85546 1.86283,0.775 0.31292,-0.12234 0.37419,-1.08136 0.37419,-5.85757 0,-3.14121 -0.0674,-5.89019 -0.14974,-6.10884 -0.18072,-0.47984 -4.50607,-1.98327 -8.40616,-2.92186 -4.14014,-0.99636 -10.64906,-1.1664 -14.41031,-0.37646 -11.79437,2.47708 -18.40859,10.98848 -18.40859,23.68871 0,3.75232 0.51509,6.89189 1.62427,9.90038 1.24599,3.37953 2.3153,5.04077 5.01613,7.7928 3.51252,3.57913 6.89922,5.35099 12.17116,6.36775 2.65021,0.51111 10.61085,0.35546 13.36396,-0.26135 z m 130.47316,-23.07282 c 5.36154,-13.24496 9.48765,-23.77814 9.40278,-24.00345 -0.13084,-0.34736 -1.02982,-0.40151 -6.66538,-0.40151 l -6.51415,0 -0.3547,0.71555 c -0.1951,0.39355 -2.39065,6.22656 -4.87898,12.96225 -4.50003,12.18103 -4.85935,13.08913 -5.08676,12.85505 -0.0655,-0.0674 -2.20267,-5.91231 -4.74929,-12.98869 -2.54662,-7.07637 -4.75447,-13.01869 -4.90638,-13.20515 -0.39516,-0.48509 -13.19619,-0.49529 -13.37872,-0.0107 -0.0904,0.24006 14.45689,37.35457 18.35894,46.83909 l 0.40397,0.98195 4.40733,-0.0713 4.40734,-0.0712 9.554,-23.60194 z m -425.76176,22.8994 c 0.230166,-0.23449 0.30648,-3.53872 0.30648,-13.2702 0,-7.24454 0.09867,-12.95796 0.223779,-12.95796 0.12308,0 2.612961,3.24925 5.533071,7.22055 2.92011,3.9713 5.43407,7.30657 5.58657,7.41172 0.94692,0.65284 1.34245,0.23436 6.82194,-7.21751 2.99948,-4.07915 5.56977,-7.37721 5.71177,-7.32905 0.16714,0.0567 0.3032,4.71321 0.38587,13.20611 l 0.1277,13.11848 6.385,0 6.385,0 0,-23.6782 0,-23.6782 -5.79597,-0.0699 c -5.46365,-0.0659 -5.82242,-0.0408 -6.2573,0.43675 -0.25373,0.27864 -3.16218,4.13718 -6.46323,8.57447 -3.30104,4.43732 -6.1453,8.13026 -6.32056,8.20653 -0.19458,0.0847 -1.98463,-2.09969 -4.5972,-5.60981 -2.3532,-3.16167 -5.25955,-7.05114 -6.458563,-8.64327 l -2.180023,-2.89478 -5.865077,0 -5.865077,0 -0.0659,23.418 c -0.03625,12.8799 -0.01112,23.56436 0.05584,23.74325 0.171175,0.45735 11.897618,0.46971 12.345886,0.013 z m 56.41141,0.10986 c 0.16502,-0.10695 1.0488,-2.17223 1.96397,-4.58954 0.91516,-2.41729 1.81452,-4.49238 1.99856,-4.61129 0.18405,-0.11894 4.31438,-0.21802 9.17852,-0.22021 6.77426,-0.003 8.90285,0.0721 9.0959,0.32127 0.13861,0.17889 0.96098,2.25271 1.82749,4.60851 0.8665,2.35577 1.71534,4.37378 1.8863,4.48444 0.17096,0.11069 3.14305,0.20303 6.60465,0.20522 4.80465,0.003 6.3218,-0.073 6.41206,-0.32127 0.12675,-0.34869 -18.19356,-46.2698 -18.7146,-46.90943 -0.4295,-0.52724 -14.07718,-0.57325 -14.50433,-0.0489 -0.48811,0.59919 -18.95644,46.79606 -18.8066,47.04307 0.17379,0.28648 12.61873,0.3228 13.05808,0.0381 z m 7.29406,-17.96845 c -0.24407,-0.15787 0.35954,-2.05379 2.46322,-7.73697 3.34363,-9.03292 3.10911,-8.4386 3.32982,-8.4386 0.28968,0 5.95798,15.81902 5.77586,16.11921 -0.19771,0.32592 -11.07016,0.37888 -11.5689,0.0564 z m 50.63711,-5.63747 0,-23.6782 -6.385,0 -6.385,0 -0.0659,23.418 c -0.0362,12.8799 -0.0103,23.56642 0.0575,23.7478 0.0961,0.25666 1.52709,0.31438 6.4509,0.2602 l 6.32745,-0.0696 0,-23.6782 z m 43.48683,18.01885 c 0.0379,-3.11264 0.0379,-5.68508 0,-5.71654 -0.0379,-0.0315 -4.43617,-0.11928 -9.77403,-0.19515 l -9.7052,-0.13796 -0.1277,-17.8237 -0.1277,-17.8237 -6.385,0 -6.385,0 -0.0659,23.418 c -0.0362,12.8799 -0.0108,23.56525 0.0566,23.7452 0.0969,0.259 3.49029,0.31323 16.2838,0.2602 l 16.16133,-0.067 z m 15.8106,5.58707 c 0.16502,-0.10695 1.0488,-2.17223 1.96397,-4.58954 0.91516,-2.41729 1.81452,-4.49238 1.99856,-4.61129 0.18405,-0.11894 4.31438,-0.21802 9.17852,-0.22021 6.77426,-0.003 8.90285,0.0721 9.0959,0.32127 0.13861,0.17889 0.96098,2.25271 1.82749,4.60851 0.8665,2.35577 1.71534,4.37378 1.8863,4.48444 0.17096,0.11069 3.14305,0.20303 6.60465,0.20522 4.80423,0.003 6.32201,-0.073 6.41287,-0.32127 0.1283,-0.35054 -18.18472,-46.25797 -18.71018,-46.903 -0.26634,-0.32694 -1.4169,-0.38835 -7.27731,-0.38835 -5.35045,0 -7.02383,0.0772 -7.23274,0.33363 -0.48996,0.60148 -18.95721,46.79338 -18.80682,47.0413 0.17445,0.28757 12.61784,0.32501 13.05879,0.0393 z m 7.29406,-17.96845 c -0.24407,-0.15787 0.35954,-2.05379 2.46322,-7.73697 3.34363,-9.03292 3.10911,-8.4386 3.32982,-8.4386 0.28968,0 5.95798,15.81902 5.77586,16.11921 -0.19771,0.32592 -11.07016,0.37888 -11.5689,0.0564 z m 50.50941,8.93373 0.1277,-9.107 1.35554,-0.0792 c 2.04281,-0.1193 3.87715,0.52763 5.13785,1.81203 1.77337,1.8067 2.8848,3.98994 6.02417,11.83359 2.15772,5.39103 1.0251,4.77766 8.82223,4.77766 5.68163,0 6.6639,-0.0567 6.7902,-0.39199 0.16682,-0.44297 -4.13669,-10.86577 -6.12095,-14.82443 -0.97948,-1.95413 -1.70083,-2.9936 -2.91483,-4.20035 l -1.61325,-1.60362 1.62214,-1.1793 c 1.88634,-1.37133 2.73038,-2.41822 3.76401,-4.66854 1.35732,-2.95506 1.6116,-6.02698 0.77478,-9.36035 -1.31319,-5.23109 -4.83886,-9.16034 -9.58429,-10.68145 -1.75549,-0.56271 -2.1,-0.57647 -14.4407,-0.57647 l -12.6423,0 -0.0659,23.418 c -0.0362,12.8799 -0.0103,23.56642 0.0575,23.7478 0.0961,0.25666 1.52709,0.31438 6.4509,0.2602 l 6.32745,-0.0696 0.1277,-9.107 z m 0.12887,-18.11708 c -0.077,-0.20449 -0.1088,-2.71029 -0.0706,-5.56846 l 0.0694,-5.19666 2.0432,-0.0788 c 2.42804,-0.0936 4.94316,0.30643 6.27349,0.99786 1.50043,0.77988 2.12759,1.88528 2.24224,3.95216 0.2602,4.69174 -1.05785,5.79535 -7.29581,6.10882 -2.57237,0.12924 -3.14656,0.0914 -3.26195,-0.21496 z m 94.62453,18.11708 0.1277,-9.107 9.5775,0 9.5775,0 0.1277,9.107 0.1277,9.107 6.385,0 6.385,0 0,-23.6782 0,-23.6782 -6.385,0 -6.385,0 -0.1277,8.5866 -0.1277,8.5866 -9.5775,0 -9.5775,0 -0.1277,-8.5866 -0.1277,-8.5866 -6.385,0 -6.385,0 -0.0659,23.418 c -0.0362,12.8799 -0.0105,23.56642 0.0575,23.7478 0.0961,0.25666 1.52709,0.31438 6.45089,0.2602 l 6.32746,-0.0696 0.1277,-9.107 z m 56.3157,-14.5712 0,-23.6782 -6.385,0 -6.385,0 -0.0659,23.418 c -0.0362,12.8799 -0.0105,23.56642 0.0575,23.7478 0.0961,0.25666 1.52709,0.31438 6.45089,0.2602 l 6.32746,-0.0696 0,-23.6782 z M 295.2358,436.38657 c -3.45828,-0.27115 -9.32544,-1.28874 -13.14801,-2.28036 -14.19324,-3.6819 -25.73986,-10.29165 -35.65346,-20.40949 -7.13742,-7.28447 -12.1549,-14.86433 -15.81809,-23.89628 l -1.24154,-3.06114 -8.52737,-0.1301 -8.52737,-0.1301 -1.02626,-0.69233 c -1.37809,-0.92967 -1.96246,-2.22958 -1.81526,-4.03796 0.1339,-1.64505 0.71445,-2.56743 2.13787,-3.39668 l 0.99759,-0.58117 26.82673,-0.004 26.82674,-0.004 1.1375,0.58545 c 1.70825,0.87919 2.35823,2.03345 2.24072,3.97912 -0.11584,1.9182 -0.77181,2.97062 -2.33081,3.7395 -1.05664,0.52113 -1.48868,0.54273 -10.85271,0.54273 -11.26461,0 -10.28016,-0.3266 -8.9899,2.98248 6.92691,17.76522 23.2743,30.51875 43.67723,34.07512 11.01937,1.92075 23.13682,0.6059 33.7128,-3.65813 14.39085,-5.80211 25.75053,-16.98476 30.80895,-30.32885 0.47336,-1.24872 0.86065,-2.45045 0.86065,-2.67051 0,-0.35316 -1.16679,-0.40011 -9.94397,-0.40011 -6.40492,0 -10.19986,-0.0985 -10.66295,-0.27675 -3.48759,-1.34247 -3.85644,-6.31021 -0.59307,-7.98806 l 1.14539,-0.58891 27.12045,0.0685 c 27.06586,0.0684 27.12187,0.0696 27.84143,0.61284 1.37625,1.03898 1.87032,2.09473 1.87032,3.99661 0,1.61256 -0.0572,1.78826 -0.83005,2.55033 -1.59449,1.57222 -1.93805,1.62543 -10.49577,1.62543 -5.91468,0 -7.82402,0.0776 -8.00732,0.32525 -0.13238,0.17889 -0.68141,1.4376 -1.22012,2.79715 -3.42305,8.63904 -9.09061,17.23279 -15.91232,24.12798 -12.41711,12.55083 -28.91138,20.40481 -46.85141,22.30895 -3.38503,0.35928 -11.43767,0.47827 -14.75661,0.21804 z"
       id="path4138"
       inkscape:connector-curvature="0"
       sodipodi:nodetypes="ccccccccccscsccsssssscsssssscccssccscscccccccccssscscscccccscscsscccsccccscscscsccsccccsscccccccscscccccscccccscscccscscscscssccccssccccccssscssccsssscscsccccccccccccccccccccccccccccccccscscccccccscsccccssscccssscccsssssssssscscscssscssscc" /><path
       style="fill:#232326"
       d="m 203.15696,356.4151 c -2.58108,-0.34387 -4.73374,-1.00615 -7.18325,-2.20995 -6.17622,-3.0353 -10.67564,-8.70959 -12.41324,-15.65454 -0.57233,-2.28753 -0.57297,-2.31588 -0.57297,-25.18771 l 0,-22.8976 2.36245,-0.0748 2.36245,-0.0748 0,12.61411 c 0,8.47884 0.0874,12.66912 0.26649,12.78191 0.14658,0.0923 1.10366,-0.64237 2.12685,-1.63257 3.07015,-2.97115 5.57785,-4.47164 9.53471,-5.70513 2.08099,-0.64872 2.58563,-0.70064 6.84385,-0.70423 3.97129,-0.003 4.87538,0.0747 6.6404,0.57333 7.79016,2.20073 14.11057,8.79052 16.26566,16.95891 0.80022,3.03305 0.85564,10.26152 0.10175,13.2702 -1.359,5.42354 -4.32661,10.05357 -8.59563,13.41083 -4.77376,3.75419 -11.21895,5.40079 -17.73952,4.53207 z m 7.94754,-5.19122 c 5.83493,-1.49766 10.82029,-6.19573 12.72042,-11.98741 2.47315,-7.53825 0.89668,-15.71443 -4.05376,-21.02443 -3.89536,-4.17828 -7.64233,-5.84444 -13.15916,-5.85145 -3.49942,-0.004 -5.3438,0.42235 -8.4282,1.95027 -1.78382,0.88365 -2.58744,1.50204 -4.50705,3.46821 -1.98829,2.03652 -2.50781,2.75761 -3.48902,4.84282 -2.46277,5.23367 -2.81703,10.70438 -1.05886,16.35126 0.88093,2.82936 2.2488,5.05185 4.59098,7.45935 1.67469,1.72139 2.49073,2.32847 4.4695,3.325 1.33141,0.67052 3.16779,1.38211 4.08085,1.58132 2.52623,0.55118 6.43729,0.50029 8.8343,-0.11494 z m -8.34381,-10.22686 c -1.97862,-0.84597 -3.12876,-1.80782 -4.30192,-3.59766 -3.20441,-4.88882 -1.29789,-11.73968 3.94792,-14.18643 5.13236,-2.39383 11.47113,0.56748 13.04867,6.09601 0.60511,2.12063 0.3874,5.03773 -0.51644,6.91984 -0.89669,1.86722 -2.57666,3.57279 -4.43477,4.50238 -1.24394,0.62232 -1.83316,0.74407 -3.89215,0.80423 -2.06786,0.0604 -2.63682,-0.0191 -3.85131,-0.53837 z m 50.09418,15.40636 c -12.4214,-1.63767 -20.92116,-13.80767 -19.47459,-27.88383 0.66078,-6.42993 2.84165,-11.23741 6.93468,-15.28675 4.2775,-4.23184 8.82483,-5.92243 15.20614,-5.65327 3.56861,0.15052 5.35312,0.5865 8.1728,1.99672 4.83612,2.41871 8.48363,6.80219 10.18758,12.24315 0.66132,2.11171 1.28289,6.15786 1.1392,7.4157 l -0.0892,0.7806 -17.98162,0.0668 c -12.76651,0.0474 -18.0812,0.15101 -18.32495,0.35711 -0.48383,0.40908 -0.4475,4.19701 0.0628,6.5501 1.35383,6.24259 6.21828,11.648 12.49155,13.88071 1.89448,0.67427 2.32205,0.72637 5.8742,0.7158 3.11478,-0.009 4.20602,-0.11665 5.83696,-0.5744 2.63559,-0.73974 6.16769,-2.47218 8.79243,-4.31257 1.16314,-0.81556 2.22624,-1.41266 2.36245,-1.32689 0.13622,0.0858 0.24766,1.19447 0.24766,2.46379 0,1.75332 -0.0967,2.40633 -0.40225,2.71767 -1.53598,1.56484 -6.8354,4.26662 -9.94145,5.06839 -3.83528,0.99001 -7.53466,1.25048 -11.09443,0.78115 z m 16.2364,-30.54725 c 0.22385,-0.59429 -0.85846,-3.93708 -2.00259,-6.18514 -2.47291,-4.85894 -6.66829,-7.32504 -12.46148,-7.32504 -4.28084,0 -7.8853,1.4398 -10.71805,4.28133 -2.29525,2.30236 -4.60595,6.79579 -4.60595,8.95681 l 0,0.65871 14.82121,0 c 12.877,0 14.84033,-0.0507 14.96686,-0.38667 z m 111.05788,30.55897 c -7.95788,-1.06022 -14.76271,-6.17911 -18.15342,-13.65584 -1.52219,-3.35649 -1.99986,-5.9031 -1.99986,-10.66196 0,-3.44213 0.0986,-4.56326 0.56949,-6.47299 2.06447,-8.37346 7.98674,-14.73118 16.06941,-17.25094 2.07855,-0.64799 2.58449,-0.70002 6.84173,-0.70361 3.97129,-0.003 4.87538,0.0747 6.6404,0.57333 7.79016,2.20073 14.11057,8.79052 16.26566,16.95891 0.80022,3.03305 0.85564,10.26152 0.10175,13.2702 -1.35901,5.42354 -4.3266,10.05357 -8.59564,13.41083 -4.77376,3.75419 -11.21893,5.40079 -17.73952,4.53207 z m 7.94754,-5.19122 c 6.38643,-1.6392 11.26017,-6.6083 13.18032,-13.43818 0.82448,-2.93257 0.82686,-8.43609 0.005,-11.35855 -0.55319,-1.96692 -1.79893,-4.7273 -2.83292,-6.27727 -0.77128,-1.15622 -3.34691,-3.76079 -4.5688,-4.62015 -3.21809,-2.26331 -6.13823,-3.16388 -10.27602,-3.16914 -3.49941,-0.004 -5.34381,0.42235 -8.4282,1.95027 -1.78381,0.88365 -2.58743,1.50204 -4.50704,3.46821 -1.98829,2.03652 -2.50782,2.75761 -3.48902,4.84282 -2.46277,5.23367 -2.81704,10.70438 -1.05886,16.35126 0.88782,2.85148 2.25643,5.06252 4.62928,7.47876 1.6888,1.71969 2.54163,2.35414 4.4695,3.32496 1.31035,0.65986 3.12949,1.36274 4.04254,1.56195 2.52622,0.55118 6.43731,0.50029 8.83429,-0.11494 z m -8.12466,-10.13389 c -5.23376,-2.08447 -7.572,-8.23928 -5.08524,-13.38556 2.27655,-4.71127 7.96533,-6.64713 12.68837,-4.31779 1.63911,0.8084 3.46261,2.71734 4.34392,4.54746 0.67185,1.39516 0.75182,1.8241 0.75182,4.0331 0,2.17869 -0.0879,2.66579 -0.74089,4.10648 -0.95083,2.09771 -3.13631,4.21695 -5.13405,4.97846 -1.86286,0.71008 -5.09112,0.72799 -6.82393,0.0378 z m -101.66858,14.3913 c -0.0987,-0.10055 -0.17945,-10.61944 -0.17945,-23.37532 0,-17.69167 0.0727,-23.26655 0.30648,-23.50473 0.31815,-0.32413 3.41286,-0.43941 4.14213,-0.1543 0.34145,0.13349 0.40399,0.71521 0.40399,3.75754 0,3.9157 0.20933,4.52636 1.10198,3.21464 1.11861,-1.64374 4.68721,-4.95336 6.23431,-5.78186 2.84829,-1.52531 4.27628,-1.91027 7.60461,-2.05009 3.82733,-0.16078 6.07433,0.27931 9.04483,1.77149 2.9885,1.50123 5.16272,3.74058 6.73139,6.93303 2.11561,4.30557 2.10178,4.15532 2.10178,22.83101 l 0,16.3926 -2.2986,0 -2.2986,0 -0.1395,-15.7421 c -0.13497,-15.22957 -0.15796,-15.80987 -0.7061,-17.8237 -1.18654,-4.35919 -2.94602,-6.79607 -6.00637,-8.31879 -4.31579,-2.14738 -10.04979,-1.68856 -14.31995,1.14585 -1.91892,1.27372 -4.53171,3.96898 -5.92246,6.10939 l -0.99962,1.53845 -0.1277,16.54545 -0.1277,16.54545 -2.183,0.0744 c -1.20064,0.0409 -2.26374,-0.008 -2.36245,-0.10842 z m 41.1194,0 c -0.0987,-0.10055 -0.17945,-10.62853 -0.17945,-23.3955 0,-19.62008 0.0555,-23.25963 0.35889,-23.51612 0.22522,-0.19043 1.1051,-0.27498 2.36245,-0.22701 l 2.00356,0.0764 0.1277,3.75177 c 0.0808,2.37264 0.23028,3.78641 0.40675,3.84599 0.15348,0.0518 0.60058,-0.37847 0.99355,-0.95619 1.91924,-2.8215 5.52385,-5.54866 9.00079,-6.80976 2.06601,-0.74935 6.90022,-0.94339 9.52011,-0.38213 4.77761,1.0235 8.64128,4.03791 10.79591,8.42291 2.11563,4.30557 2.10179,4.15532 2.10179,22.83101 l 0,16.3926 -2.2986,0 -2.2986,0 -0.1395,-15.7421 c -0.13498,-15.22957 -0.15796,-15.80987 -0.7061,-17.8237 -1.18654,-4.35919 -2.94602,-6.79607 -6.00637,-8.31879 -4.3158,-2.14738 -10.04979,-1.68856 -14.31995,1.14585 -1.91892,1.27372 -4.53171,3.96898 -5.92246,6.10939 l -0.99962,1.53845 -0.1277,16.54545 -0.1277,16.54545 -2.183,0.0744 c -1.20064,0.0409 -2.26374,-0.008 -2.36245,-0.10842 z"
       id="path4136"
       inkscape:connector-curvature="0" /></g></svg>