<?xml version="1.0" encoding="UTF-8" standalone="no"?>
<svg xmlns:rdf="http://www.w3.org/1999/02/22-rdf-syntax-ns#" xmlns="http://www.w3.org/2000/svg" height="65" width="65" version="1.1" xmlns:cc="http://creativecommons.org/ns#" xmlns:xlink="http://www.w3.org/1999/xlink" viewBox="0 0 65.000001 65.000001" xmlns:dc="http://purl.org/dc/elements/1.1/">
<defs>
<linearGradient id="a">
<stop stop-color="#e7e8e8" offset="0"/>
<stop stop-color="#787878" offset="1"/>
</linearGradient>
<filter id="d" style="color-interpolation-filters:sRGB" height="1.1240398" width="1.0751565" y="-.062019892" x="-.037578184">
<feGaussianBlur stdDeviation="0.93722287"/>
</filter>
<linearGradient id="b" y2="167.76544" xlink:href="#a" gradientUnits="userSpaceOnUse" x2="64.101105" gradientTransform="matrix(.87126086 0 0 .87126086 1111.7446 5.3413083)" y1="124.63326" x1="19.725531"/>
<linearGradient id="c" y2="1923.542" xlink:href="#a" gradientUnits="userSpaceOnUse" x2="119.82317" gradientTransform="matrix(.87126086 0 0 .87126086 1111.7446 5.3413083)" y1="1476.0918" x1="-870.1297"/>
</defs>
<g transform="matrix(.96919736 0 0 .96919736 76.419488 1.3174337)">
<path opacity=".87699998" style="color-rendering:auto;color:#000000;isolation:auto;mix-blend-mode:normal;shape-rendering:auto;solid-color:#000000;image-rendering:auto" d="m-34.903482 10.151139c-0.03907 0.0037-0.07253 0.02953-0.08594 0.06641l-10.455075 28.458979-10.320313-28.097656c-0.01833-0.04884-0.07067-0.07585-0.121094-0.0625-5.586304 1.389056-10.092565 3.687526-13.511718 6.894531-3.420219 3.178103-5.140625 6.794226-5.140625 10.830078 0 3.794043 1.567775 7.257261 4.685546 10.375 3.329614 3.329632 7.897541 5.746034 13.695313 7.25586 0.06402 0.01652 0.126504-0.03155 0.126953-0.09766v-6.550782c0.000445-0.04443-0.02804-0.08399-0.07031-0.09766-3.9356-1.231739-6.995026-2.944236-9.179688-5.128906-1.855065-1.855041-2.771493-3.768498-2.771484-5.75586-0.000008-2.017899 0.916634-3.947881 2.771484-5.802734 1.979244-1.949437 3.92497-3.178875 5.832031-3.699219l10.451172 27.613282c0.01478 0.04005 0.05301 0.06658 0.0957 0.06641h6.642578c0.04269 0.000171 0.08092-0.02636 0.0957-0.06641l10.677739-28.382805c0.895817 0.208229 1.749557 0.494608 2.560547 0.871094 2.006799 0.928567 3.666993 2.127572 4.982422 3.591797 0.000612 0.000681 0.0013 0.0013 0.002 0.002 1.858687 2.549843 2.77534 4.498915 2.77539 5.80664-0.000051 2.465231-1.288643 4.73726-3.894531 6.833985-2.576644 2.067268-5.949805 3.613008-10.126953 4.634765-0.04608 0.01093-0.07849 0.05225-0.07813 0.09961v6.46289c-0.000213 0.06488 0.05963 0.113328 0.123047 0.09961 6.732828-1.388847 11.994319-3.972812 15.777344-7.75586 3.117726-3.117769 4.683532-6.581015 4.683594-10.375-0.000062-3.793955-1.565853-7.25914-4.683594-10.376953-3.722633-3.722554-8.895702-6.291847-15.507813-7.710937-0.01025-0.0023-0.02079-0.0029-0.03125-0.002z" fill-opacity=".68279569" filter="url(#d)"/>
<g style="color-rendering:auto;color:#000000;isolation:auto;mix-blend-mode:normal;shape-rendering:auto;solid-color:#000000;image-rendering:auto" transform="matrix(1.21369,0,0,1.21369,-1436.5549,-123.201)" fill="url(#b)">
<g style="color-rendering:auto;color:#000000;isolation:auto;mix-blend-mode:normal;shape-rendering:auto;solid-color:#000000;image-rendering:auto" transform="matrix(.0714681 0 0 .0714681 1091.54 10.9728)">
<path style="color-rendering:auto;color:#000000;isolation:auto;mix-blend-mode:normal;shape-rendering:auto;solid-color:#000000;image-rendering:auto" d="m617.371 1824.35h95.8145c16.7956 0.7833 26.2813 8.2663 28.457 22.4512v28.457c-0.6093 3.7421-3.30754 5.7867-8.09375 6.1348h-77.9297c-4.35126 0.9573-6.52738 3.3067-6.52734 7.0488-0.00004 3.481 2.17608 5.2227 6.52734 5.2227h92.1582c3.7419 0.087 5.61314 2.002 5.61328 5.7441v13.8359c-0.00014 2.8718-1.69799 4.3086-5.09179 4.3086h-126.359c-5.13445-0.6962-8.70157-3.9165-10.7031-9.6601v-41.7715c0.43511-4.09 2.65507-6.1367 6.6582-6.1367h79.4961c3.74196-0.5222 5.61319-2.1741 5.61329-4.959v-1.3066c-0.0001-4.0031-3.22046-6.0039-9.66016-6.0039h-75.9727c-4.09015 0.0001-6.13476-1.9589-6.13476-5.875v-12.4004c0-3.3939 2.04461-5.0898 6.13476-5.0899z" fill="#646464"/>
<path style="color-rendering:auto;color:#000000;isolation:auto;mix-blend-mode:normal;shape-rendering:auto;solid-color:#000000;image-rendering:auto" d="m776.196 1893.67c-3.74206 0-5.61308 1.871-5.61307 5.613v12.1399c-0.00001 4.0901 1.87101 6.1352 5.61307 6.1352h113.697c15.3161 0 23.1048-6.7879 23.366-20.3637v-52.4756c-2.17575-12.7926-9.96442-19.5804-23.366-20.3637h-113.697c-3.74206 0.0001-5.61308 2.2192-5.61307 6.6574v10.8344c-0.00001 3.9162 1.87101 5.8743 5.61307 5.8742h92.2893c4.3511 0.0001 6.52671 2.2192 6.52682 6.6574-0.00011 3.742-2.17572 5.6131-6.52682 5.6131h-91.7671c-4.09016 0-6.13523 2.0451-6.13522 6.1351v9.9208c-0.00001 3.5681 1.87101 5.3521 5.61307 5.352h92.8114c4.00301 0.0001 6.00457 2.2192 6.00468 6.6574-0.00011 3.742-2.00167 5.6131-6.00468 5.6131h-92.8114" fill="#646464"/>
<path style="color-rendering:auto;color:#000000;isolation:auto;mix-blend-mode:normal;shape-rendering:auto;solid-color:#000000;image-rendering:auto" d="m1054.88 1455.05c-42.7241-42.7232-102.12-72.2475-178.188-88.5732l-2.08405-1.042 2.08405 1.042-121.397 330.326h-0.52101l-119.834-326.158c-64.2591 15.9783-116.014 42.3765-155.263 79.1948-39.2501 36.4716-58.8751 77.8056-58.8751 124.002 0 43.4184 17.8883 83.0158 53.6649 118.792 38.2079 38.2081 90.6571 65.9957 157.348 83.363v-75.5477c-45.5025-14.2411-80.9317-34.0397-106.288-59.3961-21.5355-21.5352-32.3032-43.939-32.3031-67.2114-0.00009-23.6192 10.7676-46.1967 32.3031-67.7323 23.2721-22.9246 46.1969-37.3394 68.7744-43.2446l120.876 319.384h76.5897l123.481-328.242c10.7672 2.4318 21.0139 5.9052 30.7401 10.4204 23.2716 10.768 42.5492 24.6618 57.83301 41.6815 21.5348 29.5246 32.3026 52.102 32.3032 67.7323-0.0006 28.8299-15.1101 55.4018-45.32861 79.7159-29.8723 23.9669-68.9486 41.8552-117.229 53.6649v74.5056c77.4575-15.9779 137.89601-45.6759 181.31401-89.0942 35.7759-35.7764 53.6642-75.3738 53.6649-118.792-0.0007-43.4179-17.889-83.0153-53.6649-118.792" fill="url(#c)"/>
</g>
</g>
</g>
</svg>
