<?xml version="1.0" encoding="utf-8"?>
<!-- Generator: Adobe Illustrator 30.1.0, SVG Export Plug-In . SVG Version: 9.03 Build 0)  -->
<svg version="1.0" id="Layer_1" xmlns="http://www.w3.org/2000/svg" xmlns:xlink="http://www.w3.org/1999/xlink" x="0px" y="0px"
	 viewBox="0 0 1659.57 368.25" style="enable-background:new 0 0 1659.57 368.25;" xml:space="preserve">
<style type="text/css">
	.st0{fill:#101519;}
	.st1{fill:#663399;}
	.st2{fill:#FFFFFF;}
</style>
<g>
	<g>
		<path class="st0" d="M454.05,233.06c-10.61-8.21-16.34-20.02-17.19-35.41h33.36c0.51,6.67,3.12,11.63,7.83,14.88
			c4.7,3.25,10.99,4.88,18.86,4.88c6.67,0,11.8-1.24,15.4-3.72c3.59-2.48,5.39-5.94,5.39-10.39c0-2.91-0.73-5.17-2.18-6.8
			c-1.46-1.62-3.12-2.82-5-3.59c-1.88-0.77-5.65-2.09-11.29-3.98l-17.19-5.65c-9.24-2.91-16.9-5.94-22.97-9.11
			c-6.07-3.16-10.95-7.35-14.63-12.57c-3.68-5.22-5.52-11.76-5.52-19.63c0-12.49,4.66-22.45,13.98-29.89
			c9.32-7.44,22.28-11.16,38.88-11.16c16.25,0,29.51,4.19,39.77,12.57c10.26,8.38,16.25,20.19,17.96,35.41h-32.33
			c-0.69-6.67-3.25-11.68-7.7-15.01c-4.45-3.34-10.35-5-17.71-5c-5.82,0-10.35,1.11-13.6,3.34c-3.25,2.23-4.88,5.3-4.88,9.24
			c0,2.74,0.9,5,2.69,6.8c1.8,1.8,3.72,3.12,5.77,3.98c2.05,0.86,5.65,2.14,10.78,3.85l15.65,5.39c10.43,3.42,18.73,6.8,24.89,10.14
			c6.16,3.34,10.95,7.53,14.37,12.57c3.42,5.05,5.13,11.59,5.13,19.63c0,13-4.71,23.18-14.11,30.54c-9.41,7.35-22.41,11.03-39,11.03
			C479.8,245.38,464.66,241.28,454.05,233.06z"/>
		<path class="st0" d="M598.77,236.02c-10.78-6.24-19.03-14.92-24.76-26.04c-5.73-11.12-8.6-23.69-8.6-37.72
			c0-14.37,3.03-26.94,9.11-37.72c6.07-10.78,14.45-19.07,25.15-24.89c10.69-5.81,22.88-8.72,36.57-8.72
			c12.66,0,23.86,2.4,33.61,7.18c9.75,4.79,17.45,11.51,23.09,20.14c5.65,8.64,8.72,18.52,9.24,29.64h-34.13
			c-1.2-8.21-4.71-14.88-10.52-20.01c-5.82-5.13-13-7.7-21.55-7.7c-10.61,0-19.16,3.81-25.66,11.42c-6.5,7.61-9.75,17.83-9.75,30.66
			c0,13.34,3.34,23.95,10.01,31.82c6.67,7.87,15.4,11.8,26.17,11.8c8.38,0,15.35-2.48,20.91-7.44c5.56-4.96,9.02-11.89,10.39-20.79
			h34.13c-1.71,17.79-8.43,31.86-20.14,42.21c-11.72,10.35-26.81,15.52-45.29,15.52C622.21,245.38,609.55,242.26,598.77,236.02z"/>
		<path class="st0" d="M723.74,48.82h34.9v69.54c4.45-5.3,10.3-9.53,17.58-12.7c7.27-3.16,15.18-4.75,23.74-4.75
			c14.37,0,25.92,4.58,34.64,13.73c8.72,9.15,13.09,21.43,13.09,36.82v89.81h-34.9V153c0-6.5-2.1-11.76-6.29-15.78
			c-4.19-4.02-9.88-6.03-17.06-6.03c-9.07,0-16.47,2.61-22.2,7.83c-5.73,5.22-8.6,11.93-8.6,20.14v82.11h-34.9V48.82z"/>
		<path class="st0" d="M900.66,236.02c-10.69-6.24-18.9-14.88-24.63-25.92c-5.73-11.03-8.6-23.65-8.6-37.85
			c0-14.37,3.04-26.94,9.11-37.72c6.07-10.78,14.5-19.07,25.28-24.89c10.78-5.81,23.01-8.72,36.69-8.72
			c14.37,0,26.94,3.08,37.72,9.24c10.78,6.16,19.03,14.63,24.76,25.4c5.73,10.78,8.6,23.01,8.6,36.69c0,14.71-3,27.63-8.98,38.75
			c-5.99,11.12-14.37,19.63-25.15,25.53c-10.78,5.9-23.09,8.85-36.95,8.85C923.97,245.38,911.35,242.26,900.66,236.02z
			 M964.68,203.81c6.5-8.04,9.75-18.56,9.75-31.56c0-12.66-3.25-22.84-9.75-30.54c-6.5-7.7-15.23-11.55-26.17-11.55
			c-10.95,0-19.67,3.85-26.17,11.55c-6.5,7.7-9.75,17.88-9.75,30.54c0,13.52,3.29,24.16,9.88,31.95
			c6.58,7.79,15.27,11.68,26.04,11.68C949.46,215.87,958.18,211.85,964.68,203.81z"/>
		<path class="st0" d="M1057.19,236.02c-10.69-6.24-18.9-14.88-24.63-25.92c-5.73-11.03-8.6-23.65-8.6-37.85
			c0-14.37,3.04-26.94,9.11-37.72c6.07-10.78,14.5-19.07,25.28-24.89c10.78-5.81,23.01-8.72,36.69-8.72
			c14.37,0,26.94,3.08,37.72,9.24c10.78,6.16,19.03,14.63,24.76,25.4c5.73,10.78,8.6,23.01,8.6,36.69c0,14.71-3,27.63-8.98,38.75
			c-5.99,11.12-14.37,19.63-25.15,25.53c-10.78,5.9-23.09,8.85-36.95,8.85C1080.49,245.38,1067.87,242.26,1057.19,236.02z
			 M1121.21,203.81c6.5-8.04,9.75-18.56,9.75-31.56c0-12.66-3.25-22.84-9.75-30.54c-6.5-7.7-15.23-11.55-26.17-11.55
			c-10.95,0-19.67,3.85-26.17,11.55c-6.5,7.7-9.75,17.88-9.75,30.54c0,13.52,3.29,24.16,9.88,31.95
			c6.58,7.79,15.27,11.68,26.04,11.68C1105.98,215.87,1114.7,211.85,1121.21,203.81z"/>
		<path class="st0" d="M1187.92,48.82h34.9v192.45h-34.9V48.82z"/>
		<path class="st0" d="M1266.7,134.79h-22.84v-29.51h22.84V89.37c0-13.17,3.89-23.22,11.67-30.15c7.78-6.93,19.12-10.39,34-10.39
			h29.51v29.51h-26.43c-9.07,0-13.6,4.79-13.6,14.37v12.57h37.21v29.51h-37.21v106.49h-35.15V134.79z"/>
		<path class="st0" d="M1380.24,236.02c-10.69-6.24-18.9-14.88-24.63-25.92c-5.73-11.03-8.6-23.65-8.6-37.85
			c0-14.37,3.04-26.94,9.11-37.72c6.07-10.78,14.5-19.07,25.28-24.89c10.78-5.81,23.01-8.72,36.69-8.72
			c14.37,0,26.94,3.08,37.72,9.24c10.78,6.16,19.03,14.63,24.76,25.4c5.73,10.78,8.6,23.01,8.6,36.69c0,14.71-3,27.63-8.98,38.75
			c-5.99,11.12-14.37,19.63-25.15,25.53c-10.78,5.9-23.09,8.85-36.95,8.85C1403.55,245.38,1390.93,242.26,1380.24,236.02z
			 M1444.26,203.81c6.5-8.04,9.75-18.56,9.75-31.56c0-12.66-3.25-22.84-9.75-30.54c-6.5-7.7-15.23-11.55-26.17-11.55
			c-10.95,0-19.67,3.85-26.17,11.55c-6.5,7.7-9.75,17.88-9.75,30.54c0,13.52,3.29,24.16,9.88,31.95
			c6.58,7.79,15.27,11.68,26.04,11.68C1429.04,215.87,1437.76,211.85,1444.26,203.81z"/>
		<path class="st0" d="M1540.23,173.28l-47.98-68h39l28.48,41.83l28.74-41.83h38.75l-47.98,67.74l49.01,68.26h-39.26l-29.25-44.39
			l-29.25,44.39h-39L1540.23,173.28z"/>
	</g>
	<g>
		<g>
			<path class="st0" d="M446.84,334.44c-2.49-1.54-4.37-3.63-5.65-6.29l-0.64,7.89h-3.91v-53.29h4.97v22.52
				c1.42-2.37,3.33-4.24,5.72-5.61c2.39-1.37,5.06-2.06,7.99-2.06c3.22,0,6.11,0.82,8.67,2.45c2.56,1.63,4.55,3.92,5.97,6.86
				c1.42,2.94,2.13,6.3,2.13,10.09c0,3.84-0.71,7.25-2.13,10.23s-3.4,5.32-5.93,7c-2.53,1.68-5.44,2.52-8.7,2.52
				C452.16,336.75,449.33,335.98,446.84,334.44z M460.98,330.39c1.87-1.3,3.33-3.11,4.37-5.44c1.04-2.32,1.56-4.97,1.56-7.96
				c0-2.89-0.52-5.47-1.56-7.75c-1.04-2.27-2.5-4.05-4.37-5.33c-1.87-1.28-4.01-1.92-6.43-1.92c-2.46,0-4.68,0.63-6.64,1.88
				c-1.97,1.26-3.51,3.01-4.62,5.26c-1.11,2.25-1.67,4.8-1.67,7.64c0,3.03,0.56,5.73,1.67,8.1c1.11,2.37,2.64,4.2,4.58,5.51
				c1.94,1.3,4.17,1.95,6.68,1.95C456.97,332.35,459.11,331.7,460.98,330.39z"/>
			<path class="st0" d="M476.93,345.99h6.18c1.75,0,3.11-0.34,4.09-1.03c0.97-0.69,1.72-1.72,2.24-3.09l2.13-5.83h-1.35
				l-14.92-37.66h5.33l12.72,32.9l12.22-32.9h5.19L493.77,344c-0.81,2.08-2.06,3.65-3.77,4.69c-1.71,1.04-4,1.56-6.89,1.56h-6.18
				V345.99z"/>
		</g>
		<g>
			<path class="st0" d="M551.88,313.27l-6.72-1.53c-2.04-0.51-3.49-1.1-4.36-1.76c-0.87-0.71-1.3-1.58-1.3-2.6
				c0-1.32,0.56-2.32,1.68-2.98c1.12-0.71,2.78-1.07,4.97-1.07c2.34,0,4.18,0.41,5.5,1.22c1.38,0.82,2.19,2.01,2.45,3.59h8.79
				c-0.31-3.62-1.94-6.44-4.89-8.48c-2.9-2.09-6.77-3.13-11.61-3.13c-4.89,0-8.74,1.04-11.54,3.13c-2.75,2.04-4.13,4.87-4.13,8.48
				c0,2.95,1.02,5.43,3.06,7.41c2.09,1.94,5.27,3.36,9.55,4.28l6.27,1.45c1.99,0.46,3.34,1.04,4.05,1.76
				c0.71,0.66,1.07,1.53,1.07,2.6c0,1.48-0.64,2.62-1.91,3.44c-1.22,0.76-3.08,1.15-5.58,1.15c-2.75,0-4.94-0.51-6.57-1.53
				c-1.63-1.02-2.57-2.52-2.83-4.51h-8.79c0.31,4.02,2.06,7.18,5.27,9.48c3.21,2.24,7.51,3.36,12.91,3.36c5.15,0,9.14-1.02,12-3.06
				c2.85-2.04,4.28-4.92,4.28-8.63c0-2.9-0.99-5.43-2.98-7.57C558.58,315.64,555.7,314.13,551.88,313.27z"/>
			<path class="st0" d="M596.56,298.98c-2.85-1.63-6.21-2.45-10.09-2.45c-4.08,0-7.64,0.87-10.7,2.6c-3.06,1.68-5.45,4.05-7.18,7.11
				c-1.68,3.01-2.52,6.5-2.52,10.47c0,3.97,0.84,7.49,2.52,10.55c1.73,3.06,4.13,5.45,7.18,7.18c3.11,1.73,6.72,2.6,10.85,2.6
				c4.59,0,8.38-1.07,11.39-3.21c3.06-2.14,5.22-5.04,6.49-8.71h-9.09c-0.71,1.58-1.83,2.75-3.36,3.51
				c-1.53,0.76-3.31,1.15-5.35,1.15c-3.51,0-6.24-1.1-8.18-3.29c-1.43-1.71-2.32-3.97-2.66-6.8h29.41c0.1-0.61,0.18-1.22,0.23-1.83
				c0.05-0.61,0.08-1.27,0.08-1.99c0-3.87-0.79-7.26-2.37-10.16S599.42,300.56,596.56,298.98z M586.33,303.79
				c3.01,0,5.35,0.92,7.03,2.75c1.39,1.51,2.19,3.66,2.43,6.42h-19.76c0.42-2.37,1.25-4.32,2.5-5.81
				C580.47,304.91,583.06,303.79,586.33,303.79z"/>
			<polygon class="st0" points="634.9,297.3 625,325.77 615.1,297.3 604.71,297.3 620.3,336.27 629.32,336.27 644.98,297.3 			"/>
			<path class="st0" d="M674.44,298.98c-2.85-1.63-6.22-2.45-10.09-2.45c-4.08,0-7.64,0.87-10.7,2.6c-3.06,1.68-5.45,4.05-7.18,7.11
				c-1.68,3.01-2.52,6.5-2.52,10.47c0,3.97,0.84,7.49,2.52,10.55c1.73,3.06,4.13,5.45,7.18,7.18c3.11,1.73,6.72,2.6,10.85,2.6
				c4.59,0,8.38-1.07,11.39-3.21c3.06-2.14,5.22-5.04,6.49-8.71h-9.09c-0.71,1.58-1.83,2.75-3.36,3.51
				c-1.53,0.76-3.31,1.15-5.35,1.15c-3.52,0-6.24-1.1-8.18-3.29c-1.43-1.71-2.32-3.97-2.66-6.8h29.41c0.1-0.61,0.18-1.22,0.23-1.83
				c0.05-0.61,0.08-1.27,0.08-1.99c0-3.87-0.79-7.26-2.37-10.16C679.51,302.8,677.29,300.56,674.44,298.98z M664.2,303.79
				c3.01,0,5.35,0.92,7.03,2.75c1.39,1.51,2.19,3.66,2.43,6.42H653.9c0.42-2.37,1.25-4.32,2.5-5.81
				C658.34,304.91,660.94,303.79,664.2,303.79z"/>
			<path class="st0" d="M711.98,296.53c-3.57,0-6.62,0.87-9.17,2.6c-2.24,1.48-4.01,3.41-5.3,5.79l-1.27-7.63h-7.87v38.97H698
				v-21.01c0-2.14,0.43-4.02,1.3-5.65c0.92-1.63,2.17-2.9,3.74-3.82c1.63-0.92,3.46-1.38,5.5-1.38c2.34,0,4.13,0.61,5.35,1.83
				c1.22,1.22,1.83,3.03,1.83,5.43v24.61h9.7v-26.59c0-3.97-1.2-7.16-3.59-9.55C719.49,297.73,716.21,296.53,711.98,296.53z"/>
			<path class="st0" d="M773.72,298.98c-2.85-1.63-6.22-2.45-10.09-2.45c-4.08,0-7.64,0.87-10.7,2.6c-3.06,1.68-5.45,4.05-7.18,7.11
				c-1.68,3.01-2.52,6.5-2.52,10.47c0,3.97,0.84,7.49,2.52,10.55c1.73,3.06,4.13,5.45,7.18,7.18c3.11,1.73,6.72,2.6,10.85,2.6
				c4.59,0,8.38-1.07,11.39-3.21c3.06-2.14,5.22-5.04,6.49-8.71h-9.09c-0.71,1.58-1.83,2.75-3.36,3.52
				c-1.53,0.76-3.31,1.15-5.35,1.15c-3.51,0-6.24-1.1-8.18-3.29c-1.43-1.71-2.32-3.97-2.66-6.8h29.41c0.1-0.61,0.18-1.22,0.23-1.83
				c0.05-0.61,0.08-1.27,0.08-1.99c0-3.87-0.79-7.26-2.37-10.16C778.79,302.8,776.57,300.56,773.72,298.98z M763.48,303.79
				c3.01,0,5.35,0.92,7.03,2.75c1.39,1.51,2.19,3.66,2.43,6.42h-19.76c0.42-2.37,1.25-4.32,2.5-5.81
				C757.62,304.91,760.22,303.79,763.48,303.79z"/>
			<path class="st0" d="M816.29,303.32c-0.78-1.64-1.93-3.01-3.44-4.11c-2.39-1.78-5.43-2.67-9.09-2.67c-3.57,0-6.7,0.84-9.4,2.52
				c-2.65,1.68-4.71,4.05-6.19,7.11c-1.48,3.06-2.22,6.65-2.22,10.77c0,4.08,0.71,7.62,2.14,10.62c1.43,3.01,3.44,5.35,6.04,7.03
				c2.65,1.63,5.76,2.45,9.32,2.45c3.51,0,6.55-0.84,9.09-2.52c2.08-1.41,3.52-3.2,4.34-5.36l1.24,7.12H826v-55.02h-9.7V303.32z
				 M813.7,325.95c-1.83,2.14-4.3,3.21-7.41,3.21c-3.11,0-5.6-1.07-7.49-3.21c-1.88-2.14-2.83-5.17-2.83-9.09
				c0-3.92,0.94-6.95,2.83-9.09c1.88-2.19,4.36-3.29,7.41-3.29c3.11,0,5.6,1.07,7.49,3.21c1.88,2.14,2.83,5.17,2.83,9.09
				C816.52,320.71,815.58,323.76,813.7,325.95z"/>
			<path class="st0" d="M859.4,318.31c0,2.09-0.46,3.97-1.38,5.65c-0.87,1.63-2.06,2.9-3.59,3.82c-1.48,0.92-3.21,1.38-5.2,1.38
				c-2.19,0-3.9-0.61-5.12-1.83c-1.17-1.22-1.76-3.03-1.76-5.43V297.3h-9.63v26.59c0,2.5,0.51,4.74,1.53,6.72
				c1.07,1.99,2.57,3.57,4.51,4.74c1.99,1.12,4.33,1.68,7.03,1.68c3.41,0,6.37-0.84,8.86-2.52c2.27-1.54,4.03-3.53,5.29-5.96
				l1.29,7.72h7.87V297.3h-9.7V318.31z"/>
			<path class="st0" d="M888.4,305.78c1.53-1.02,3.34-1.53,5.43-1.53c2.24,0,4.15,0.59,5.73,1.76c1.58,1.17,2.65,2.8,3.21,4.89h9.25
				c-0.46-2.85-1.53-5.35-3.21-7.49c-1.68-2.19-3.82-3.87-6.42-5.04c-2.6-1.22-5.5-1.83-8.71-1.83c-3.92,0-7.39,0.87-10.39,2.6
				c-2.95,1.73-5.3,4.13-7.03,7.18c-1.68,3.01-2.52,6.47-2.52,10.39c0,3.92,0.84,7.44,2.52,10.55c1.73,3.06,4.08,5.45,7.03,7.18
				c3.01,1.73,6.47,2.6,10.39,2.6c3.21,0,6.09-0.59,8.63-1.76c2.6-1.22,4.74-2.9,6.42-5.04c1.73-2.19,2.83-4.71,3.29-7.57h-9.25
				c-0.56,2.09-1.63,3.72-3.21,4.89c-1.58,1.17-3.49,1.76-5.73,1.76c-2.04,0-3.82-0.51-5.35-1.53c-1.53-1.07-2.7-2.55-3.51-4.43
				c-0.82-1.89-1.22-4.1-1.22-6.65c0-2.5,0.41-4.69,1.22-6.57C885.78,308.25,886.93,306.8,888.4,305.78z"/>
			<path class="st0" d="M949.76,310.82c0-4.69-1.38-8.23-4.13-10.62c-2.75-2.45-6.8-3.67-12.15-3.67c-5.15,0-9.25,1.12-12.3,3.36
				c-3.06,2.24-4.79,5.17-5.2,8.79h9.25c0.31-1.58,1.12-2.78,2.45-3.59c1.38-0.87,3.21-1.3,5.5-1.3c2.34,0,4.08,0.53,5.2,1.6
				c1.17,1.02,1.76,2.55,1.76,4.58v1.95l-10.39,1.57c-4.74,0.71-8.41,2.11-11,4.2c-2.6,2.09-3.9,4.92-3.9,8.48
				c0,3.31,1.15,5.96,3.44,7.95c2.34,1.94,5.48,2.9,9.4,2.9c3.36,0,6.19-0.71,8.48-2.14c1.89-1.19,3.34-2.82,4.37-4.87
				c0.18,2.16,0.6,5.29,0.68,6.24h9.63c-0.15-1.27-1.07-6.57-1.07-7.79V310.82z M937.38,327.63c-1.83,1.38-4.13,2.06-6.88,2.06
				c-1.88,0-3.36-0.38-4.43-1.15c-1.07-0.82-1.6-1.96-1.6-3.44c0-1.63,0.56-2.9,1.68-3.82c1.17-0.92,2.9-1.55,5.2-1.91l8.79-1.34
				v4.55C940.13,324.58,939.21,326.26,937.38,327.63z"/>
			<path class="st0" d="M968.35,284.84l-9.7,3.59v8.86h-5.84v7.56h5.84v18.57c0,4.53,1.12,7.95,3.36,10.24
				c2.29,2.24,5.83,3.36,10.62,3.36c1.38,0,2.62-0.1,3.74-0.31c1.12-0.15,1.99-0.38,2.6-0.69v-7.49c-0.61,0.2-1.27,0.38-1.99,0.53
				c-0.66,0.1-1.43,0.15-2.29,0.15c-2.19,0-3.8-0.46-4.81-1.38c-1.02-0.92-1.53-2.32-1.53-4.2v-18.8h10.62v-7.56h-10.62V284.84z"/>
			<rect x="983.65" y="297.3" class="st0" width="9.63" height="38.97"/>
			<path class="st0" d="M1028.95,299.13c-3.11-1.73-6.75-2.6-10.16-2.6c-4.13,0-7,0.87-10.16,2.6c-3.11,1.68-5.53,4.02-7.26,7.03
				c-1.73,3.01-2.6,6.5-2.6,10.47c0,3.97,0.87,7.51,2.6,10.62c1.73,3.06,4.15,5.45,7.26,7.18c3.16,1.73,6.04,2.6,10.16,2.6
				c3.36,0,6.98-0.87,10.09-2.6c3.11-1.73,5.53-4.13,7.26-7.18c1.78-3.11,2.67-6.65,2.67-10.62c0-3.97-0.87-7.46-2.6-10.47
				C1034.48,303.16,1032.06,300.81,1028.95,299.13z M1027.35,323.36c-0.92,1.88-2.19,3.36-3.82,4.43c-1.63,1.02-2.7,1.53-4.74,1.53
				c-2.09,0-3.18-0.51-4.81-1.53c-1.58-1.07-2.85-2.55-3.82-4.43c-0.92-1.94-1.38-4.2-1.38-6.8c0-3.82,1.02-6.83,3.06-9.02
				c2.04-2.19,3.85-3.29,6.95-3.29c2.34,0,4.89,1.1,6.88,3.29c2.04,2.19,3.05,5.2,3.05,9.02
				C1028.72,319.15,1028.27,321.42,1027.35,323.36z"/>
			<path class="st0" d="M1077.07,300.13c-2.34-2.39-5.63-3.59-9.86-3.59c-3.57,0-6.62,0.87-9.17,2.6c-2.24,1.48-4.01,3.41-5.3,5.79
				l-1.27-7.63h-7.87v38.97h9.63v-21.01c0-2.14,0.43-4.02,1.3-5.65c0.92-1.63,2.17-2.9,3.74-3.82c1.63-0.92,3.47-1.38,5.5-1.38
				c2.35,0,4.13,0.61,5.35,1.83c1.22,1.22,1.83,3.03,1.83,5.43v24.61h9.71v-26.59C1080.66,305.7,1079.46,302.52,1077.07,300.13z"/>
			<path class="st0" d="M988.29,280.49c-3.38,0-6.11,2.74-6.11,6.11c0,3.38,2.74,6.11,6.11,6.11c3.38,0,6.11-2.74,6.11-6.11
				C994.4,283.22,991.66,280.49,988.29,280.49z"/>
		</g>
	</g>
	<path class="st1" d="M294.82,349.86H99.69c-37.76,0-68.37-30.61-68.37-68.37V86.37C31.32,48.61,61.93,18,99.69,18h195.12
		c37.76,0,68.37,30.61,68.37,68.37v195.12C363.18,319.25,332.57,349.86,294.82,349.86z"/>
	<g>
		<path class="st2" d="M298.55,94.91c-0.68-3.56-3.75-6.12-7.4-6.34c-1.37-0.11-32.09-1.22-73.05,35.8c-6.6-1.33-13.65-2-20.82-2
			h-0.23c-7.28,0-14.22,0.67-20.82,2c-40.85-36.92-71.68-35.8-72.93-35.69c-3.75,0.11-6.71,2.78-7.4,6.23
			c-10.58,54.15,5.01,83.39,12.17,93.4c-4.89,14.23-7.4,30.02-7.4,46.59c0,3.89,2.96,7.23,6.83,7.67c0.34,0,39.03,5.45,60.87,25.46
			c4.1,9.23,13.54,15.23,24.12,15.23h9.56c10.58,0,20.03-6,24.12-15.23c21.85-19.9,60.42-25.35,60.87-25.46
			c3.98-0.56,6.94-3.78,6.94-7.67c0-16.46-2.5-32.36-7.4-46.59C293.55,178.41,309.25,149.17,298.55,94.91z M278.18,170.85
			c-2.39-2.11-6.14-2.67-9.1-1c-3.76,2-5.01,6.78-3.07,10.56c6.94,13.68,11.04,30.47,11.83,48.04
			c-10.35,2.11-30.49,7.12-48.13,17.68l4.55-35.25c7.28-0.45,13.09-5.89,14.11-12.79c0.23-1.89-0.8-3.78-2.62-4.67
			c-2.62-1.33-5.58-2.11-8.65-2.11c-7.85,0-14.68,4.67-17.52,11.45c-0.34,0.67-0.57,1.45-0.68,2.33l-7.28,55.49
			c-0.11,0.89-0.46,1.78-0.91,2.56c-1.82,2.78-5.23,4.67-8.76,4.67h-9.56c-3.64,0-6.94-1.89-8.76-4.67
			c-0.46-0.78-0.8-1.67-0.91-2.56l-7.28-55.49c-0.11-0.78-0.34-1.56-0.68-2.33c-2.84-6.67-9.56-11.45-17.52-11.45
			c-3.19,0-6.14,0.78-8.65,2.11c-1.71,0.89-2.84,2.78-2.62,4.67c1.02,7.01,6.83,12.34,14.11,12.79l4.55,35.25
			c-17.64-10.56-37.66-15.57-48.13-17.68c0.68-13.57,3.3-26.69,7.62-38.25c0.11-0.33,0.23-0.56,0.34-0.89c1.14-3,2.5-6,3.87-8.78
			c1.93-3.78,0.68-8.56-3.07-10.56c-3.07-1.67-6.71-1.11-9.22,1c-1.14-2.45-2.28-5.34-3.41-8.67c-3.64-11.34-6.83-30.24-2.5-57.38
			c2.96,0.56,6.94,1.56,11.72,3.22c10.47,3.78,26.97,12.12,46.31,30.36c0,0,0,0,0.11,0.11c0.11,0.11,0.23,0.22,0.34,0.33
			c0.11,0.11,0.11,0.11,0.23,0.22c0.11,0.11,0.23,0.22,0.34,0.22c0.11,0.11,0.23,0.11,0.23,0.22c0.11,0.11,0.23,0.11,0.34,0.22
			c0.11,0.11,0.23,0.11,0.34,0.22c0.11,0.11,0.23,0.11,0.34,0.11c0.11,0,0.23,0.11,0.34,0.11c0.11,0,0.34,0.11,0.46,0.11
			c0.11,0,0.23,0.11,0.23,0.11c0.23,0,0.34,0.11,0.57,0.11c0.11,0,0.11,0,0.23,0c0.23,0,0.46,0.11,0.68,0.11h0.11
			c0.23,0,0.46,0,0.68,0h0.11c0.23,0,0.34,0,0.57,0c0.11,0,0.11,0,0.23,0c0.23,0,0.34,0,0.57-0.11c0.11,0,0.23,0,0.23,0
			c0.11,0,0.11,0,0.23,0c6.6-1.67,13.77-2.45,21.28-2.45h0.23c7.51,0,14.68,0.78,21.28,2.45h0.11c0.23,0,0.34,0.11,0.57,0.11
			c0.11,0,0.34,0,0.46,0.11c0.23,0,0.46,0,0.68,0h0.11c0.11,0,0.11,0,0.23,0c0.34,0,0.68,0,0.91-0.11c0.11,0,0.11,0,0.23,0
			c0.34-0.11,0.68-0.11,1.02-0.22c0.11,0,0.11,0,0.23-0.11c0.34-0.11,0.68-0.22,1.02-0.44c0.11,0,0.11-0.11,0.23-0.11
			c0.34-0.11,0.57-0.33,0.91-0.56l0.11-0.11c0.23-0.11,0.46-0.33,0.68-0.56c19.34-18.24,35.84-26.57,46.31-30.36
			c4.78-1.78,8.76-2.67,11.72-3.22C289.34,137.94,283.53,159.29,278.18,170.85z"/>
		<path class="st2" d="M197.18,248.68c-3.41,0-8.88,0.78-9.22,6.45c-0.23,2.67,1.25,6.78,9.22,6.78c7.96,0,9.33-4.23,9.22-6.78
			C206.05,249.46,200.59,248.68,197.18,248.68z"/>
	</g>
</g>
</svg>
