<?xml version="1.0" encoding="UTF-8"?>
<!DOCTYPE svg PUBLIC "-//W3C//DTD SVG 1.1//EN" "http://www.w3.org/Graphics/SVG/1.1/DTD/svg11.dtd">
<svg version="1.2" width="75.26mm" height="75.26mm" viewBox="0 0 7526 7526" preserveAspectRatio="xMidYMid" fill-rule="evenodd" stroke-width="28.222" stroke-linejoin="round" xmlns="http://www.w3.org/2000/svg" xmlns:ooo="http://xml.openoffice.org/svg/export" xmlns:xlink="http://www.w3.org/1999/xlink" xmlns:presentation="http://sun.com/xmlns/staroffice/presentation" xmlns:smil="http://www.w3.org/2001/SMIL20/" xmlns:anim="urn:oasis:names:tc:opendocument:xmlns:animation:1.0" xml:space="preserve">
 <defs class="ClipPathGroup">
  <clipPath id="presentation_clip_path" clipPathUnits="userSpaceOnUse">
   <rect x="0" y="0" width="7526" height="7526"/>
  </clipPath>
  <clipPath id="presentation_clip_path_shrink" clipPathUnits="userSpaceOnUse">
   <rect x="7" y="7" width="7511" height="7511"/>
  </clipPath>
 </defs>
 <defs class="TextShapeIndex">
  <g ooo:slide="id1" ooo:id-list="id3"/>
 </defs>
 <defs class="EmbeddedBulletChars">
  <g id="bullet-char-template-57356" transform="scale(0.00048828125,-0.00048828125)">
   <path d="M 580,1141 L 1163,571 580,0 -4,571 580,1141 Z"/>
  </g>
  <g id="bullet-char-template-57354" transform="scale(0.00048828125,-0.00048828125)">
   <path d="M 8,1128 L 1137,1128 1137,0 8,0 8,1128 Z"/>
  </g>
  <g id="bullet-char-template-10146" transform="scale(0.00048828125,-0.00048828125)">
   <path d="M 174,0 L 602,739 174,1481 1456,739 174,0 Z M 1358,739 L 309,1346 659,739 1358,739 Z"/>
  </g>
  <g id="bullet-char-template-10132" transform="scale(0.00048828125,-0.00048828125)">
   <path d="M 2015,739 L 1276,0 717,0 1260,543 174,543 174,936 1260,936 717,1481 1274,1481 2015,739 Z"/>
  </g>
  <g id="bullet-char-template-10007" transform="scale(0.00048828125,-0.00048828125)">
   <path d="M 0,-2 C -7,14 -16,27 -25,37 L 356,567 C 262,823 215,952 215,954 215,979 228,992 255,992 264,992 276,990 289,987 310,991 331,999 354,1012 L 381,999 492,748 772,1049 836,1024 860,1049 C 881,1039 901,1025 922,1006 886,937 835,863 770,784 769,783 710,716 594,584 L 774,223 C 774,196 753,168 711,139 L 727,119 C 717,90 699,76 672,76 641,76 570,178 457,381 L 164,-76 C 142,-110 111,-127 72,-127 30,-127 9,-110 8,-76 1,-67 -2,-52 -2,-32 -2,-23 -1,-13 0,-2 Z"/>
  </g>
  <g id="bullet-char-template-10004" transform="scale(0.00048828125,-0.00048828125)">
   <path d="M 285,-33 C 182,-33 111,30 74,156 52,228 41,333 41,471 41,549 55,616 82,672 116,743 169,778 240,778 293,778 328,747 346,684 L 369,508 C 377,444 397,411 428,410 L 1163,1116 C 1174,1127 1196,1133 1229,1133 1271,1133 1292,1118 1292,1087 L 1292,965 C 1292,929 1282,901 1262,881 L 442,47 C 390,-6 338,-33 285,-33 Z"/>
  </g>
  <g id="bullet-char-template-9679" transform="scale(0.00048828125,-0.00048828125)">
   <path d="M 813,0 C 632,0 489,54 383,161 276,268 223,411 223,592 223,773 276,916 383,1023 489,1130 632,1184 813,1184 992,1184 1136,1130 1245,1023 1353,916 1407,772 1407,592 1407,412 1353,268 1245,161 1136,54 992,0 813,0 Z"/>
  </g>
  <g id="bullet-char-template-8226" transform="scale(0.00048828125,-0.00048828125)">
   <path d="M 346,457 C 273,457 209,483 155,535 101,586 74,649 74,723 74,796 101,859 155,911 209,963 273,989 346,989 419,989 480,963 531,910 582,859 608,796 608,723 608,648 583,586 532,535 482,483 420,457 346,457 Z"/>
  </g>
  <g id="bullet-char-template-8211" transform="scale(0.00048828125,-0.00048828125)">
   <path d="M -4,459 L 1135,459 1135,606 -4,606 -4,459 Z"/>
  </g>
  <g id="bullet-char-template-61548" transform="scale(0.00048828125,-0.00048828125)">
   <path d="M 173,740 C 173,903 231,1043 346,1159 462,1274 601,1332 765,1332 928,1332 1067,1274 1183,1159 1299,1043 1357,903 1357,740 1357,577 1299,437 1183,322 1067,206 928,148 765,148 601,148 462,206 346,322 231,437 173,577 173,740 Z"/>
  </g>
 </defs>
 <g>
  <g id="id2" class="Master_Slide">
   <g id="bg-id2" class="Background"/>
   <g id="bo-id2" class="BackgroundObjects"/>
  </g>
 </g>
 <g class="SlideGroup">
  <g>
   <g id="container-id1">
    <g id="id1" class="Slide" clip-path="url(#presentation_clip_path)">
     <g class="Page">
      <g class="Graphic">
       <g id="id3">
        <rect class="BoundingBox" stroke="none" fill="none" x="56" y="306" width="7353" height="6405"/>
        <defs>
         <clipPath id="clip_path_1" clipPathUnits="userSpaceOnUse">
          <path d="M 56,306 L 7408,306 7408,6710 56,6710 56,306 Z"/>
         </clipPath>
        </defs>
        <g clip-path="url(#clip_path_1)">
         <path fill="rgb(63,63,62)" stroke="none" d="M 2530,5473 C 2530,5044 2206,4725 1774,4725 1343,4725 1016,5044 1016,5473 1016,5901 1340,6221 1774,6221 2208,6221 2530,5901 2530,5473 Z M 816,5473 C 816,4943 1223,4546 1774,4546 2325,4546 2730,4940 2730,5473 2730,6005 2322,6400 1774,6400 1226,6400 816,6002 816,5473 Z"/>
         <path fill="rgb(63,63,62)" stroke="none" d="M 3077,4564 L 3757,4564 C 4222,4564 4503,4797 4503,5187 4503,5576 4222,5810 3757,5810 L 3274,5810 3274,6381 3074,6381 3074,5636 3752,5636 C 4113,5636 4303,5472 4303,5187 4303,4901 4113,4737 3752,4737 L 3074,4737 3077,4563 3077,4564 Z"/>
         <path fill="rgb(63,63,62)" stroke="none" d="M 4761,6161 L 4839,6008 C 4969,6135 5200,6228 5439,6228 5777,6228 5925,6088 5925,5912 5925,5418 4808,5722 4808,5049 4808,4779 5015,4546 5478,4546 5686,4546 5899,4608 6047,4709 L 5977,4867 C 5823,4766 5639,4717 5478,4717 5148,4717 5003,4862 5003,5041 5003,5535 6120,5236 6120,5899 6120,6166 5907,6400 5442,6400 5166,6400 4899,6301 4761,6161 Z"/>
         <path fill="rgb(203,29,88)" stroke="none" d="M 6549,4764 L 6449,4764 6449,4564 6649,4564 6649,4764 6549,4764 Z"/>
         <path fill="rgb(63,63,62)" stroke="none" d="M 6549,6382 L 6449,6382 6449,5351 6649,5351 6649,6382 6549,6382 Z"/>
         <path fill="rgb(203,29,88)" stroke="none" d="M 6549,5151 L 6449,5151 6449,4951 6649,4951 6649,5151 6549,5151 Z"/>
         <path fill="rgb(63,63,62)" stroke="none" d="M 870,7087 C 870,7110 873,7130 878,7148 884,7166 892,7182 903,7195 913,7208 926,7218 941,7225 956,7232 973,7235 992,7235 1011,7235 1028,7232 1043,7225 1058,7218 1070,7208 1081,7195 1092,7182 1100,7166 1105,7148 1111,7130 1114,7109 1114,7087 1114,7065 1111,7045 1105,7026 1100,7008 1092,6992 1081,6979 1070,6967 1058,6957 1043,6950 1028,6943 1011,6940 992,6940 973,6940 956,6943 941,6950 926,6957 913,6967 903,6979 892,6992 884,7008 878,7026 873,7045 870,7065 870,7087 Z M 815,7087 C 815,7056 820,7028 830,7003 839,6979 852,6959 868,6943 884,6927 903,6915 925,6907 946,6898 969,6894 993,6894 1017,6894 1039,6899 1061,6907 1082,6915 1100,6927 1116,6943 1132,6959 1145,6979 1154,7003 1164,7027 1169,7055 1169,7087 1169,7119 1164,7147 1154,7171 1145,7195 1132,7215 1116,7231 1100,7248 1082,7260 1061,7268 1039,7276 1017,7280 993,7280 969,7280 946,7276 925,7268 903,7260 884,7247 868,7231 852,7215 839,7195 830,7171 820,7147 815,7119 815,7087 Z"/>
         <path fill="rgb(63,63,62)" stroke="none" d="M 1429,7134 C 1429,7102 1421,7077 1405,7059 1389,7042 1368,7033 1341,7033 1326,7033 1314,7034 1306,7035 1298,7036 1291,7037 1286,7039 L 1286,7213 C 1292,7218 1301,7223 1312,7228 1324,7233 1336,7235 1350,7235 1364,7235 1376,7232 1386,7227 1396,7222 1405,7215 1411,7206 1418,7197 1422,7186 1425,7174 1428,7162 1429,7148 1429,7134 Z M 1481,7134 C 1481,7155 1478,7174 1473,7192 1467,7210 1459,7225 1448,7238 1438,7251 1425,7261 1409,7268 1394,7275 1376,7278 1356,7278 1340,7278 1326,7276 1314,7272 1301,7268 1292,7264 1286,7259 L 1286,7370 1237,7370 1237,7003 C 1248,7000 1263,6997 1281,6994 1298,6990 1319,6989 1342,6989 1363,6989 1382,6992 1399,6999 1416,7005 1431,7015 1443,7028 1455,7040 1464,7055 1471,7073 1477,7091 1481,7111 1481,7134 Z"/>
         <path fill="rgb(63,63,62)" stroke="none" d="M 1727,7107 C 1728,7084 1722,7066 1711,7051 1699,7037 1683,7030 1663,7030 1651,7030 1641,7032 1633,7037 1624,7041 1617,7047 1610,7054 1604,7061 1599,7069 1596,7079 1593,7088 1590,7097 1589,7107 L 1727,7107 1727,7107 Z M 1537,7134 C 1537,7109 1541,7088 1548,7070 1555,7051 1564,7036 1576,7024 1588,7012 1601,7003 1617,6997 1632,6991 1648,6988 1664,6988 1701,6988 1730,7000 1750,7023 1770,7046 1780,7081 1780,7129 L 1780,7137 C 1780,7141 1780,7144 1779,7147 L 1589,7147 C 1591,7175 1600,7197 1614,7212 1629,7227 1652,7235 1682,7235 1700,7235 1715,7233 1726,7230 1738,7227 1747,7224 1753,7222 L 1760,7263 C 1754,7266 1743,7270 1728,7273 1713,7277 1696,7279 1677,7279 1653,7279 1632,7275 1614,7268 1597,7261 1582,7250 1571,7238 1560,7225 1551,7210 1546,7192 1540,7174 1537,7155 1537,7134 Z"/>
         <path fill="rgb(63,63,62)" stroke="none" d="M 1845,7003 C 1857,7000 1872,6997 1891,6994 1909,6990 1931,6989 1956,6989 1978,6989 1996,6992 2011,6998 2025,7004 2037,7013 2046,7024 2054,7035 2060,7049 2064,7065 2068,7080 2069,7097 2069,7116 L 2069,7272 2020,7272 2020,7127 C 2020,7110 2019,7095 2016,7083 2014,7071 2010,7061 2005,7054 2000,7046 1993,7041 1984,7038 1975,7034 1964,7033 1950,7033 1945,7033 1940,7033 1934,7033 1928,7033 1923,7034 1918,7034 1912,7035 1908,7036 1904,7036 1900,7037 1897,7038 1895,7038 L 1895,7272 1845,7272 1845,7003 1845,7003 Z"/>
         <path fill="rgb(63,63,62)" stroke="none" d="M 2353,7235 C 2407,7235 2434,7217 2434,7180 2434,7168 2431,7158 2427,7150 2422,7142 2415,7135 2407,7130 2399,7124 2390,7119 2379,7115 2369,7110 2358,7106 2346,7102 2332,7097 2320,7092 2307,7086 2295,7080 2285,7073 2276,7065 2267,7057 2260,7048 2255,7037 2250,7026 2247,7012 2247,6997 2247,6964 2258,6939 2280,6921 2302,6903 2332,6894 2371,6894 2394,6894 2414,6896 2432,6901 2451,6906 2464,6911 2473,6917 L 2456,6959 C 2449,6954 2437,6950 2423,6945 2408,6941 2391,6939 2371,6939 2361,6939 2352,6940 2344,6942 2335,6944 2328,6947 2321,6951 2315,6956 2310,6961 2306,6968 2302,6974 2300,6982 2300,6991 2300,7001 2302,7009 2306,7016 2310,7023 2316,7028 2323,7034 2330,7039 2338,7043 2347,7048 2357,7052 2367,7056 2379,7061 2395,7067 2409,7073 2423,7080 2436,7086 2447,7094 2457,7103 2467,7112 2475,7122 2480,7135 2485,7147 2488,7162 2488,7179 2488,7211 2476,7236 2453,7254 2429,7271 2396,7280 2353,7280 2338,7280 2325,7279 2312,7277 2300,7275 2289,7273 2279,7270 2270,7268 2262,7265 2255,7262 2248,7258 2242,7256 2238,7254 L 2254,7211 C 2262,7216 2275,7221 2291,7227 2308,7232 2328,7235 2352,7235 Z"/>
         <path fill="rgb(63,63,62)" stroke="none" d="M 2510,7324 C 2513,7326 2519,7327 2525,7329 2531,7331 2537,7331 2543,7331 2563,7331 2578,7327 2589,7318 2600,7309 2610,7295 2619,7276 2597,7233 2576,7188 2557,7140 2537,7092 2521,7044 2508,6995 L 2561,6995 C 2565,7011 2570,7028 2576,7047 2581,7065 2587,7084 2594,7104 2601,7123 2608,7143 2616,7162 2624,7182 2632,7201 2641,7219 2654,7181 2666,7145 2676,7108 2686,7071 2695,7034 2704,6995 L 2755,6995 C 2742,7047 2728,7097 2712,7146 2697,7194 2680,7239 2662,7281 2655,7297 2647,7311 2640,7322 2632,7334 2623,7343 2614,7351 2605,7358 2595,7364 2583,7367 2571,7371 2558,7373 2544,7373 2540,7373 2536,7372 2531,7372 2527,7371 2523,7371 2519,7370 2515,7369 2511,7368 2508,7367 2504,7366 2502,7365 2500,7364 L 2510,7324 2510,7324 Z"/>
         <path fill="rgb(63,63,62)" stroke="none" d="M 2866,7236 C 2886,7236 2901,7234 2911,7228 2921,7223 2926,7215 2926,7203 2926,7191 2921,7181 2911,7174 2902,7167 2886,7159 2864,7150 2853,7146 2843,7141 2833,7137 2823,7132 2815,7127 2808,7121 2801,7115 2795,7108 2791,7099 2786,7091 2784,7080 2784,7068 2784,7043 2793,7024 2811,7009 2829,6995 2854,6988 2886,6988 2893,6988 2901,6988 2909,6989 2917,6990 2924,6991 2931,6992 2938,6993 2944,6995 2949,6996 2954,6997 2958,6999 2961,7000 L 2952,7042 C 2946,7040 2938,7037 2927,7034 2915,7031 2902,7029 2886,7029 2872,7029 2860,7032 2849,7037 2839,7043 2834,7051 2834,7063 2834,7069 2835,7074 2837,7079 2840,7084 2843,7088 2848,7092 2853,7095 2859,7099 2866,7102 2873,7105 2881,7109 2892,7112 2905,7117 2916,7122 2927,7127 2937,7132 2946,7137 2953,7144 2960,7150 2966,7158 2970,7167 2974,7176 2976,7187 2976,7200 2976,7226 2966,7245 2947,7258 2928,7272 2901,7278 2866,7278 2841,7278 2822,7276 2808,7272 2794,7268 2785,7265 2780,7263 L 2789,7220 C 2795,7222 2804,7225 2816,7230 2829,7234 2845,7236 2866,7236 Z"/>
         <path fill="rgb(63,63,62)" stroke="none" d="M 3086,6995 L 3191,6995 3191,7036 3086,7036 3086,7164 C 3086,7178 3087,7190 3089,7199 3091,7208 3094,7215 3099,7220 3103,7225 3108,7229 3115,7231 3121,7233 3129,7234 3137,7234 3152,7234 3164,7232 3173,7229 3182,7226 3188,7223 3192,7222 L 3201,7263 C 3196,7265 3188,7269 3175,7272 3163,7276 3149,7278 3133,7278 3114,7278 3098,7276 3086,7271 3073,7266 3064,7259 3056,7249 3049,7239 3043,7227 3040,7213 3037,7200 3036,7183 3036,7165 L 3036,6917 3085,6909 3085,6995 3086,6995 Z"/>
         <path fill="rgb(63,63,62)" stroke="none" d="M 3423,7107 C 3423,7084 3418,7066 3406,7051 3395,7037 3379,7030 3359,7030 3347,7030 3337,7032 3328,7037 3320,7041 3312,7047 3306,7054 3300,7061 3295,7069 3292,7079 3288,7088 3286,7097 3285,7107 L 3423,7107 3423,7107 Z M 3233,7134 C 3233,7109 3237,7088 3244,7070 3251,7051 3260,7036 3272,7024 3284,7012 3297,7003 3313,6997 3328,6991 3344,6988 3360,6988 3397,6988 3425,7000 3445,7023 3465,7046 3475,7081 3475,7129 L 3475,7137 C 3475,7141 3475,7144 3475,7147 L 3285,7147 C 3287,7175 3295,7197 3310,7212 3324,7227 3347,7235 3378,7235 3395,7235 3410,7233 3422,7230 3434,7227 3443,7224 3449,7222 L 3456,7263 C 3450,7266 3439,7270 3424,7273 3409,7277 3392,7279 3373,7279 3348,7279 3328,7275 3310,7268 3293,7261 3278,7250 3267,7238 3255,7225 3247,7210 3241,7192 3236,7174 3233,7155 3233,7134 Z"/>
         <path fill="rgb(63,63,62)" stroke="none" d="M 3541,7003 C 3552,7000 3567,6997 3586,6994 3605,6990 3626,6989 3651,6989 3669,6989 3684,6991 3696,6996 3708,7001 3718,7008 3726,7017 3729,7016 3733,7013 3738,7010 3743,7007 3750,7004 3758,7001 3765,6997 3774,6995 3784,6993 3793,6990 3804,6989 3815,6989 3836,6989 3853,6992 3867,6999 3880,7005 3891,7013 3899,7025 3906,7036 3912,7050 3914,7065 3917,7081 3918,7098 3918,7117 L 3918,7272 3868,7272 3868,7127 C 3868,7111 3868,7097 3866,7085 3865,7073 3861,7064 3857,7056 3853,7048 3846,7042 3839,7039 3831,7035 3821,7033 3809,7033 3792,7033 3779,7035 3768,7040 3757,7044 3750,7048 3746,7051 3749,7061 3751,7071 3752,7082 3753,7093 3754,7104 3754,7117 L 3754,7272 3705,7272 3705,7127 C 3705,7111 3704,7097 3702,7085 3700,7073 3697,7064 3693,7056 3688,7048 3682,7042 3675,7039 3667,7035 3657,7033 3645,7033 3641,7033 3635,7033 3629,7033 3624,7034 3618,7034 3613,7035 3608,7035 3603,7036 3599,7036 3595,7037 3592,7038 3590,7038 L 3590,7272 3541,7272 3541,7003 3541,7003 Z"/>
         <path fill="rgb(63,63,62)" stroke="none" d="M 4113,7272 L 4087,7272 4087,6903 4139,6903 4139,7272 4113,7272 Z"/>
         <path fill="rgb(63,63,62)" stroke="none" d="M 4212,7003 C 4223,7000 4239,6997 4257,6994 4276,6990 4298,6989 4322,6989 4344,6989 4363,6992 4377,6998 4392,7004 4403,7013 4412,7024 4421,7035 4427,7049 4431,7064 4434,7080 4436,7097 4436,7116 L 4436,7272 4386,7272 4386,7127 C 4386,7110 4385,7095 4383,7083 4381,7071 4377,7061 4372,7054 4366,7046 4359,7041 4350,7037 4341,7034 4330,7032 4317,7032 4312,7032 4306,7032 4301,7033 4295,7033 4289,7034 4284,7034 4279,7035 4274,7035 4270,7036 4266,7037 4263,7037 4262,7038 L 4262,7272 4212,7272 4212,7002 4212,7003 Z"/>
         <path fill="rgb(63,63,62)" stroke="none" d="M 4556,6995 L 4661,6995 4661,7036 4556,7036 4556,7164 C 4556,7178 4557,7189 4559,7199 4561,7208 4564,7215 4568,7220 4573,7225 4578,7229 4584,7231 4591,7233 4598,7234 4607,7234 4622,7234 4634,7232 4643,7229 4652,7225 4658,7223 4662,7222 L 4671,7263 C 4666,7265 4658,7268 4645,7272 4633,7276 4618,7278 4602,7278 4584,7278 4568,7275 4556,7270 4543,7266 4533,7258 4526,7249 4518,7239 4513,7227 4510,7213 4507,7199 4506,7183 4506,7164 L 4506,6917 4555,6909 4555,6994 4556,6995 Z"/>
         <path fill="rgb(63,63,62)" stroke="none" d="M 4888,7107 C 4888,7084 4883,7066 4871,7051 4859,7037 4844,7030 4823,7030 4812,7030 4802,7032 4793,7037 4784,7041 4777,7047 4771,7054 4765,7061 4760,7069 4757,7079 4753,7088 4751,7097 4750,7107 L 4887,7107 4888,7107 Z M 4698,7134 C 4698,7109 4701,7088 4708,7070 4715,7051 4725,7036 4737,7024 4748,7012 4762,7003 4777,6997 4792,6991 4808,6988 4824,6988 4861,6988 4890,7000 4910,7023 4930,7046 4940,7081 4940,7129 L 4940,7137 C 4940,7141 4940,7144 4939,7147 L 4750,7147 C 4752,7175 4760,7197 4775,7212 4789,7227 4812,7235 4843,7235 4860,7235 4875,7233 4887,7230 4899,7227 4908,7224 4914,7222 L 4921,7263 C 4915,7266 4904,7270 4889,7273 4874,7277 4857,7279 4837,7279 4813,7279 4792,7275 4775,7268 4757,7261 4743,7250 4731,7238 4720,7225 4712,7210 4706,7192 4701,7174 4698,7155 4698,7134 Z"/>
         <path fill="rgb(63,63,62)" stroke="none" d="M 5179,7039 C 5174,7037 5167,7036 5159,7034 5151,7033 5139,7033 5125,7033 5098,7033 5078,7041 5064,7059 5049,7076 5042,7099 5042,7128 5042,7144 5044,7158 5048,7169 5052,7180 5058,7190 5065,7197 5072,7205 5080,7210 5089,7214 5098,7217 5107,7219 5117,7219 5130,7219 5142,7217 5153,7213 5164,7210 5172,7205 5179,7200 L 5179,7038 5179,7039 Z M 5180,7244 C 5175,7247 5167,7251 5155,7255 5142,7259 5128,7262 5112,7262 5096,7262 5080,7259 5065,7254 5050,7248 5037,7240 5026,7229 5015,7218 5006,7204 5000,7187 4993,7170 4990,7151 4990,7127 4990,7107 4993,7089 4999,7072 5005,7055 5014,7040 5026,7028 5037,7016 5051,7006 5068,6999 5084,6992 5103,6989 5125,6989 5148,6989 5168,6991 5185,6994 5202,6997 5217,7001 5228,7003 L 5228,7251 C 5228,7293 5218,7324 5195,7343 5173,7363 5140,7372 5095,7372 5078,7372 5061,7371 5046,7368 5030,7365 5017,7362 5005,7358 L 5014,7315 C 5025,7319 5037,7322 5051,7325 5066,7328 5081,7330 5096,7330 5126,7330 5147,7324 5160,7312 5173,7300 5179,7281 5179,7256 L 5179,7244 5180,7244 Z"/>
         <path fill="rgb(63,63,62)" stroke="none" d="M 5401,6989 C 5405,6989 5410,6989 5415,6990 5421,6990 5426,6991 5432,6992 5437,6993 5442,6994 5446,6994 5451,6995 5454,6996 5456,6997 L 5448,7040 C 5444,7038 5437,7037 5428,7035 5419,7033 5408,7032 5393,7032 5384,7032 5375,7033 5366,7035 5357,7037 5351,7038 5348,7039 L 5348,7272 5298,7272 5298,7007 C 5310,7002 5325,6998 5342,6995 5359,6991 5379,6989 5401,6989 Z"/>
         <path fill="rgb(63,63,62)" stroke="none" d="M 5592,7236 C 5604,7236 5615,7236 5624,7235 5633,7235 5640,7234 5646,7233 L 5646,7150 C 5643,7148 5637,7147 5629,7145 5621,7144 5611,7143 5600,7143 5593,7143 5585,7144 5576,7145 5568,7146 5560,7148 5553,7152 5546,7155 5541,7160 5536,7166 5531,7172 5529,7179 5529,7189 5529,7207 5535,7219 5546,7226 5557,7233 5573,7236 5593,7236 Z M 5588,6988 C 5608,6988 5625,6990 5639,6996 5652,7001 5663,7008 5672,7018 5680,7027 5686,7038 5690,7051 5693,7064 5695,7079 5695,7094 L 5695,7267 C 5691,7268 5685,7269 5677,7270 5670,7271 5661,7272 5651,7273 5642,7274 5631,7276 5620,7276 5609,7277 5598,7278 5587,7278 5571,7278 5557,7276 5544,7273 5530,7270 5519,7264 5509,7257 5500,7250 5492,7241 5487,7230 5481,7219 5479,7205 5479,7189 5479,7173 5482,7161 5488,7149 5494,7138 5503,7130 5514,7123 5524,7116 5537,7111 5551,7108 5565,7105 5580,7103 5596,7103 5601,7103 5606,7103 5611,7104 5617,7104 5622,7105 5626,7106 5631,7107 5636,7108 5639,7108 5643,7109 5645,7109 5647,7110 L 5647,7096 C 5647,7087 5646,7079 5644,7071 5642,7063 5639,7056 5634,7050 5630,7044 5624,7039 5616,7035 5608,7031 5597,7029 5584,7029 5568,7029 5554,7030 5541,7033 5529,7035 5520,7037 5514,7040 L 5508,6999 C 5515,6996 5525,6993 5540,6990 5555,6988 5571,6986 5589,6986 Z"/>
         <path fill="rgb(63,63,62)" stroke="none" d="M 5809,6995 L 5914,6995 5914,7036 5809,7036 5809,7164 C 5809,7178 5810,7189 5813,7199 5815,7208 5818,7215 5822,7220 5827,7225 5832,7229 5838,7231 5845,7233 5852,7234 5861,7234 5876,7234 5888,7232 5897,7229 5906,7225 5912,7223 5915,7222 L 5925,7263 C 5920,7265 5911,7268 5899,7272 5886,7276 5872,7278 5856,7278 5837,7278 5822,7275 5809,7270 5797,7266 5787,7258 5780,7249 5772,7239 5767,7227 5764,7213 5761,7199 5759,7183 5759,7164 L 5759,6917 5809,6909 5809,6994 5809,6995 Z"/>
         <path fill="rgb(63,63,62)" stroke="none" d="M 6035,7272 L 5986,7272 5986,6995 6035,6995 6035,7272 6035,7272 Z M 6010,6945 C 6001,6945 5994,6942 5988,6936 5981,6930 5978,6922 5978,6912 5978,6902 5981,6894 5988,6888 5994,6882 6001,6879 6010,6879 6019,6879 6027,6882 6033,6888 6039,6894 6042,6902 6042,6912 6042,6922 6039,6930 6033,6936 6027,6942 6019,6945 6010,6945 Z"/>
         <path fill="rgb(63,63,62)" stroke="none" d="M 6308,7133 C 6308,7102 6301,7077 6287,7059 6273,7041 6254,7032 6230,7032 6206,7032 6187,7041 6173,7059 6159,7077 6152,7102 6152,7133 6152,7165 6159,7189 6173,7208 6187,7226 6206,7235 6230,7235 6254,7235 6273,7226 6287,7208 6301,7189 6308,7165 6308,7133 Z M 6360,7133 C 6360,7155 6357,7175 6350,7193 6344,7211 6335,7226 6324,7239 6312,7252 6298,7262 6282,7269 6266,7276 6249,7279 6230,7279 6211,7279 6194,7276 6178,7269 6162,7262 6148,7252 6136,7239 6125,7226 6116,7211 6110,7193 6103,7175 6100,7155 6100,7133 6100,7111 6103,7092 6110,7074 6116,7056 6125,7041 6136,7028 6148,7015 6162,7005 6178,6998 6194,6991 6211,6988 6230,6988 6249,6988 6266,6992 6282,6998 6298,7005 6312,7015 6324,7028 6335,7041 6344,7056 6350,7074 6357,7092 6360,7112 6360,7133 Z"/>
         <path fill="rgb(63,63,62)" stroke="none" d="M 6425,7003 C 6436,7000 6451,6997 6470,6994 6489,6990 6510,6989 6535,6989 6557,6989 6575,6992 6590,6998 6604,7004 6616,7013 6625,7024 6633,7035 6640,7049 6643,7064 6647,7080 6649,7097 6649,7116 L 6649,7272 6599,7272 6599,7127 C 6599,7110 6598,7095 6596,7083 6593,7071 6589,7061 6584,7054 6579,7046 6572,7041 6563,7037 6554,7034 6543,7032 6530,7032 6525,7032 6519,7032 6513,7033 6508,7033 6502,7034 6497,7034 6492,7035 6487,7035 6483,7036 6479,7037 6476,7037 6474,7038 L 6474,7272 6425,7272 6425,7002 6425,7003 Z"/>
         <path fill="rgb(203,29,88)" stroke="none" d="M 5116,1190 C 4947,1078 4730,1057 4541,1137 L 4147,1323 4147,993 4003,910 4144,699 3989,596 3842,817 3732,754 3602,828 3495,590 3326,667 3440,922 3317,993 3317,1320 2924,1130 C 2738,1050 2519,1069 2350,1181 2178,1294 2076,1483 2076,1688 L 2076,1748 C 2076,2067 2324,2330 2637,2354 L 2637,2146 C 2437,2123 2281,1954 2281,1748 L 2281,1688 C 2281,1553 2348,1427 2462,1352 2574,1278 2720,1266 2841,1317 L 3493,1632 2798,1960 2798,3033 3548,3466 3732,3847 3921,3452 4646,3033 4646,2384 4646,2384 4646,1981 4646,1981 4646,1961 4152,1722 3918,1837 4441,2089 4441,2915 3722,3330 3003,2915 3003,2090 4623,1325 C 4748,1273 4889,1286 5002,1361 5117,1438 5183,1561 5183,1698 5183,1911 5017,2085 4807,2100 L 4807,2306 C 5130,2291 5388,2025 5388,1698 5388,1494 5286,1304 5116,1190 L 5116,1190 Z M 3961,1411 L 3731,1519 3503,1409 3503,1100 3732,968 3961,1100 3961,1411 3961,1411 Z"/>
        </g>
       </g>
      </g>
     </g>
    </g>
   </g>
  </g>
 </g>
</svg>