<svg xmlns="http://www.w3.org/2000/svg" xmlns:xlink="http://www.w3.org/1999/xlink" width="500" zoomAndPan="magnify" viewBox="0 0 375 374.999991" height="500" preserveAspectRatio="xMidYMid meet" version="1.0"><defs><g/><clipPath id="9aa579d1be"><path d="M 18.75 18.75 L 356.25 18.75 L 356.25 356.25 L 18.75 356.25 Z M 18.75 18.75 " clip-rule="nonzero"/></clipPath><clipPath id="e6b055144d"><path d="M 56.25 18.75 L 318.75 18.75 C 328.695312 18.75 338.234375 22.699219 345.265625 29.734375 C 352.300781 36.765625 356.25 46.304688 356.25 56.25 L 356.25 318.75 C 356.25 328.695312 352.300781 338.234375 345.265625 345.265625 C 338.234375 352.300781 328.695312 356.25 318.75 356.25 L 56.25 356.25 C 46.304688 356.25 36.765625 352.300781 29.734375 345.265625 C 22.699219 338.234375 18.75 328.695312 18.75 318.75 L 18.75 56.25 C 18.75 46.304688 22.699219 36.765625 29.734375 29.734375 C 36.765625 22.699219 46.304688 18.75 56.25 18.75 Z M 56.25 18.75 " clip-rule="nonzero"/></clipPath><clipPath id="bfb29a3ae0"><path d="M 0.75 0.75 L 338.25 0.75 L 338.25 338.25 L 0.75 338.25 Z M 0.75 0.75 " clip-rule="nonzero"/></clipPath><clipPath id="b4b44503d0"><path d="M 38.25 0.75 L 300.75 0.75 C 310.695312 0.75 320.234375 4.699219 327.265625 11.734375 C 334.300781 18.765625 338.25 28.304688 338.25 38.25 L 338.25 300.75 C 338.25 310.695312 334.300781 320.234375 327.265625 327.265625 C 320.234375 334.300781 310.695312 338.25 300.75 338.25 L 38.25 338.25 C 28.304688 338.25 18.765625 334.300781 11.734375 327.265625 C 4.699219 320.234375 0.75 310.695312 0.75 300.75 L 0.75 38.25 C 0.75 28.304688 4.699219 18.765625 11.734375 11.734375 C 18.765625 4.699219 28.304688 0.75 38.25 0.75 Z M 38.25 0.75 " clip-rule="nonzero"/></clipPath><clipPath id="3e71571851"><rect x="0" width="339" y="0" height="339"/></clipPath><clipPath id="1d6166d591"><rect x="0" width="254" y="0" height="326"/></clipPath></defs><g clip-path="url(#9aa579d1be)"><g clip-path="url(#e6b055144d)"><g transform="matrix(1, 0, 0, 1, 18, 18)"><g clip-path="url(#3e71571851)"><g clip-path="url(#bfb29a3ae0)"><g clip-path="url(#b4b44503d0)"><path fill="#a7144d" d="M 0.75 0.75 L 338.25 0.75 L 338.25 338.25 L 0.75 338.25 Z M 0.75 0.75 " fill-opacity="1" fill-rule="nonzero"/></g></g></g></g></g></g><g transform="matrix(1, 0, 0, 1, 62, 34)"><g clip-path="url(#1d6166d591)"><g fill="#ffffff" fill-opacity="1"><g transform="translate(0.693665, 247.929441)"><g><path d="M 26.34375 -190.109375 L 182.515625 -190.109375 C 200.796875 -190.109375 213.960938 -186.53125 222.015625 -179.375 C 230.078125 -172.226562 234.109375 -160.867188 234.109375 -145.296875 L 234.109375 -132.265625 C 234.109375 -116.878906 228.40625 -105.472656 217 -98.046875 C 229.3125 -90.804688 235.46875 -79.035156 235.46875 -62.734375 L 235.46875 -46.984375 C 235.46875 -31.597656 231.753906 -19.921875 224.328125 -11.953125 C 216.910156 -3.984375 204.601562 0 187.40625 0 L 26.34375 0 C 20.914062 0 18.203125 -2.710938 18.203125 -8.140625 L 18.203125 -181.96875 C 18.203125 -187.394531 20.914062 -190.109375 26.34375 -190.109375 Z M 59.484375 -79.84375 L 59.484375 -41.828125 C 59.484375 -39.285156 60.660156 -38.015625 63.015625 -38.015625 L 174.359375 -38.015625 C 187.765625 -38.015625 194.46875 -43.722656 194.46875 -55.140625 L 194.46875 -64.09375 C 194.46875 -69.882812 192.742188 -73.957031 189.296875 -76.3125 C 185.859375 -78.664062 179.703125 -79.84375 170.828125 -79.84375 Z M 59.484375 -112.71875 L 170.828125 -112.71875 C 179.703125 -112.71875 185.8125 -113.800781 189.15625 -115.96875 C 192.507812 -118.144531 194.1875 -121.859375 194.1875 -127.109375 L 194.1875 -135.25 C 194.1875 -146.476562 187.488281 -152.09375 174.09375 -152.09375 L 63.015625 -152.09375 C 60.660156 -152.09375 59.484375 -150.828125 59.484375 -148.296875 Z M 59.484375 -112.71875 "/></g></g></g></g></g><g fill="#b4b4b4" fill-opacity="1"><g transform="translate(220.699984, 323.94912)"><g><path d="M 27.46875 0.84375 C 23.039062 0.84375 19.28125 0.144531 16.1875 -1.25 C 13.101562 -2.644531 10.769531 -4.664062 9.1875 -7.3125 C 7.601562 -9.957031 6.8125 -13.144531 6.8125 -16.875 C 6.8125 -19.019531 7.066406 -21.273438 7.578125 -23.640625 L 15.109375 -58.890625 L 26.5 -58.890625 L 18.6875 -22.15625 C 18.363281 -20.675781 18.203125 -19.304688 18.203125 -18.046875 C 18.203125 -15.140625 19.0625 -12.945312 20.78125 -11.46875 C 22.5 -10 25.050781 -9.265625 28.4375 -9.265625 C 32.65625 -9.265625 36.019531 -10.300781 38.53125 -12.375 C 41.039062 -14.457031 42.765625 -17.71875 43.703125 -22.15625 L 51.515625 -58.890625 L 62.90625 -58.890625 L 55.0625 -22.078125 C 53.925781 -16.703125 52.265625 -12.347656 50.078125 -9.015625 C 47.890625 -5.691406 44.96875 -3.21875 41.3125 -1.59375 C 37.664062 0.03125 33.050781 0.84375 27.46875 0.84375 Z M 27.46875 0.84375 "/></g></g></g><g fill="#b4b4b4" fill-opacity="1"><g transform="translate(283.121207, 323.94912)"><g><path d="M 54.53125 -58.890625 L 52.484375 -49.140625 L 25.015625 -49.140625 L 22.078125 -35.359375 L 46.078125 -35.359375 L 44.0625 -25.859375 L 20.0625 -25.859375 L 16.640625 -9.75 L 44.75 -9.75 L 42.6875 0 L 2.9375 0 L 15.421875 -58.890625 Z M 54.53125 -58.890625 "/></g></g></g></svg>